<?xml version="1.0" encoding="utf-8" standalone="no"?>
<!DOCTYPE svg PUBLIC "-//W3C//DTD SVG 1.1//EN"
  "http://www.w3.org/Graphics/SVG/1.1/DTD/svg11.dtd">
<!-- Created with matplotlib (https://matplotlib.org/) -->
<svg height="360pt" version="1.1" viewBox="0 0 720 360" width="720pt" xmlns="http://www.w3.org/2000/svg" xmlns:xlink="http://www.w3.org/1999/xlink">
 <metadata>
  <rdf:RDF xmlns:cc="http://creativecommons.org/ns#" xmlns:dc="http://purl.org/dc/elements/1.1/" xmlns:rdf="http://www.w3.org/1999/02/22-rdf-syntax-ns#">
   <cc:Work>
    <dc:type rdf:resource="http://purl.org/dc/dcmitype/StillImage"/>
    <dc:date>2021-01-14T20:35:15.658324</dc:date>
    <dc:format>image/svg+xml</dc:format>
    <dc:creator>
     <cc:Agent>
      <dc:title>Matplotlib v3.3.2, https://matplotlib.org/</dc:title>
     </cc:Agent>
    </dc:creator>
   </cc:Work>
  </rdf:RDF>
 </metadata>
 <defs>
  <style type="text/css">*{stroke-linecap:butt;stroke-linejoin:round;}</style>
 </defs>
 <g id="figure_1">
  <g id="patch_1">
   <path d="M 0 360 
L 720 360 
L 720 0 
L 0 0 
z
" style="fill:none;"/>
  </g>
  <g id="axes_1">
   <g id="patch_2">
    <path d="M 44.55 289.465387 
L 709.2 289.465387 
L 709.2 26.8 
L 44.55 26.8 
z
" style="fill:#ffffff;"/>
   </g>
   <g id="matplotlib.axis_1">
    <g id="xtick_1">
     <g id="line2d_1">
      <path clip-path="url(#p47ad19c6fa)" d="M 74.761364 289.465387 
L 74.761364 26.8 
" style="fill:none;stroke:#b0b0b0;stroke-linecap:square;stroke-width:0.8;"/>
     </g>
     <g id="line2d_2">
      <defs>
       <path d="M 0 0 
L 0 3.5 
" id="mb0abc2dc1d" style="stroke:#000000;stroke-width:0.8;"/>
      </defs>
      <g>
       <use style="stroke:#000000;stroke-width:0.8;" x="74.761364" xlink:href="#mb0abc2dc1d" y="289.465387"/>
      </g>
     </g>
     <g id="text_1">
      <!-- Enero -->
      <g transform="translate(68.758178 324.42677)rotate(-55)scale(0.1 -0.1)">
       <defs>
        <path d="M 9.8125 72.90625 
L 55.90625 72.90625 
L 55.90625 64.59375 
L 19.671875 64.59375 
L 19.671875 43.015625 
L 54.390625 43.015625 
L 54.390625 34.71875 
L 19.671875 34.71875 
L 19.671875 8.296875 
L 56.78125 8.296875 
L 56.78125 0 
L 9.8125 0 
z
" id="DejaVuSans-69"/>
        <path d="M 54.890625 33.015625 
L 54.890625 0 
L 45.90625 0 
L 45.90625 32.71875 
Q 45.90625 40.484375 42.875 44.328125 
Q 39.84375 48.1875 33.796875 48.1875 
Q 26.515625 48.1875 22.3125 43.546875 
Q 18.109375 38.921875 18.109375 30.90625 
L 18.109375 0 
L 9.078125 0 
L 9.078125 54.6875 
L 18.109375 54.6875 
L 18.109375 46.1875 
Q 21.34375 51.125 25.703125 53.5625 
Q 30.078125 56 35.796875 56 
Q 45.21875 56 50.046875 50.171875 
Q 54.890625 44.34375 54.890625 33.015625 
z
" id="DejaVuSans-110"/>
        <path d="M 56.203125 29.59375 
L 56.203125 25.203125 
L 14.890625 25.203125 
Q 15.484375 15.921875 20.484375 11.0625 
Q 25.484375 6.203125 34.421875 6.203125 
Q 39.59375 6.203125 44.453125 7.46875 
Q 49.3125 8.734375 54.109375 11.28125 
L 54.109375 2.78125 
Q 49.265625 0.734375 44.1875 -0.34375 
Q 39.109375 -1.421875 33.890625 -1.421875 
Q 20.796875 -1.421875 13.15625 6.1875 
Q 5.515625 13.8125 5.515625 26.8125 
Q 5.515625 40.234375 12.765625 48.109375 
Q 20.015625 56 32.328125 56 
Q 43.359375 56 49.78125 48.890625 
Q 56.203125 41.796875 56.203125 29.59375 
z
M 47.21875 32.234375 
Q 47.125 39.59375 43.09375 43.984375 
Q 39.0625 48.390625 32.421875 48.390625 
Q 24.90625 48.390625 20.390625 44.140625 
Q 15.875 39.890625 15.1875 32.171875 
z
" id="DejaVuSans-101"/>
        <path d="M 41.109375 46.296875 
Q 39.59375 47.171875 37.8125 47.578125 
Q 36.03125 48 33.890625 48 
Q 26.265625 48 22.1875 43.046875 
Q 18.109375 38.09375 18.109375 28.8125 
L 18.109375 0 
L 9.078125 0 
L 9.078125 54.6875 
L 18.109375 54.6875 
L 18.109375 46.1875 
Q 20.953125 51.171875 25.484375 53.578125 
Q 30.03125 56 36.53125 56 
Q 37.453125 56 38.578125 55.875 
Q 39.703125 55.765625 41.0625 55.515625 
z
" id="DejaVuSans-114"/>
        <path d="M 30.609375 48.390625 
Q 23.390625 48.390625 19.1875 42.75 
Q 14.984375 37.109375 14.984375 27.296875 
Q 14.984375 17.484375 19.15625 11.84375 
Q 23.34375 6.203125 30.609375 6.203125 
Q 37.796875 6.203125 41.984375 11.859375 
Q 46.1875 17.53125 46.1875 27.296875 
Q 46.1875 37.015625 41.984375 42.703125 
Q 37.796875 48.390625 30.609375 48.390625 
z
M 30.609375 56 
Q 42.328125 56 49.015625 48.375 
Q 55.71875 40.765625 55.71875 27.296875 
Q 55.71875 13.875 49.015625 6.21875 
Q 42.328125 -1.421875 30.609375 -1.421875 
Q 18.84375 -1.421875 12.171875 6.21875 
Q 5.515625 13.875 5.515625 27.296875 
Q 5.515625 40.765625 12.171875 48.375 
Q 18.84375 56 30.609375 56 
z
" id="DejaVuSans-111"/>
       </defs>
       <use xlink:href="#DejaVuSans-69"/>
       <use x="63.183594" xlink:href="#DejaVuSans-110"/>
       <use x="126.5625" xlink:href="#DejaVuSans-101"/>
       <use x="188.085938" xlink:href="#DejaVuSans-114"/>
       <use x="226.949219" xlink:href="#DejaVuSans-111"/>
      </g>
     </g>
    </g>
    <g id="xtick_2">
     <g id="line2d_3">
      <path clip-path="url(#p47ad19c6fa)" d="M 129.691116 289.465387 
L 129.691116 26.8 
" style="fill:none;stroke:#b0b0b0;stroke-linecap:square;stroke-width:0.8;"/>
     </g>
     <g id="line2d_4">
      <g>
       <use style="stroke:#000000;stroke-width:0.8;" x="129.691116" xlink:href="#mb0abc2dc1d" y="289.465387"/>
      </g>
     </g>
     <g id="text_2">
      <!-- Febrero -->
      <g transform="translate(121.126104 331.744102)rotate(-55)scale(0.1 -0.1)">
       <defs>
        <path d="M 9.8125 72.90625 
L 51.703125 72.90625 
L 51.703125 64.59375 
L 19.671875 64.59375 
L 19.671875 43.109375 
L 48.578125 43.109375 
L 48.578125 34.8125 
L 19.671875 34.8125 
L 19.671875 0 
L 9.8125 0 
z
" id="DejaVuSans-70"/>
        <path d="M 48.6875 27.296875 
Q 48.6875 37.203125 44.609375 42.84375 
Q 40.53125 48.484375 33.40625 48.484375 
Q 26.265625 48.484375 22.1875 42.84375 
Q 18.109375 37.203125 18.109375 27.296875 
Q 18.109375 17.390625 22.1875 11.75 
Q 26.265625 6.109375 33.40625 6.109375 
Q 40.53125 6.109375 44.609375 11.75 
Q 48.6875 17.390625 48.6875 27.296875 
z
M 18.109375 46.390625 
Q 20.953125 51.265625 25.265625 53.625 
Q 29.59375 56 35.59375 56 
Q 45.5625 56 51.78125 48.09375 
Q 58.015625 40.1875 58.015625 27.296875 
Q 58.015625 14.40625 51.78125 6.484375 
Q 45.5625 -1.421875 35.59375 -1.421875 
Q 29.59375 -1.421875 25.265625 0.953125 
Q 20.953125 3.328125 18.109375 8.203125 
L 18.109375 0 
L 9.078125 0 
L 9.078125 75.984375 
L 18.109375 75.984375 
z
" id="DejaVuSans-98"/>
       </defs>
       <use xlink:href="#DejaVuSans-70"/>
       <use x="52.019531" xlink:href="#DejaVuSans-101"/>
       <use x="113.542969" xlink:href="#DejaVuSans-98"/>
       <use x="177.019531" xlink:href="#DejaVuSans-114"/>
       <use x="215.882812" xlink:href="#DejaVuSans-101"/>
       <use x="277.40625" xlink:href="#DejaVuSans-114"/>
       <use x="316.269531" xlink:href="#DejaVuSans-111"/>
      </g>
     </g>
    </g>
    <g id="xtick_3">
     <g id="line2d_5">
      <path clip-path="url(#p47ad19c6fa)" d="M 184.620868 289.465387 
L 184.620868 26.8 
" style="fill:none;stroke:#b0b0b0;stroke-linecap:square;stroke-width:0.8;"/>
     </g>
     <g id="line2d_6">
      <g>
       <use style="stroke:#000000;stroke-width:0.8;" x="184.620868" xlink:href="#mb0abc2dc1d" y="289.465387"/>
      </g>
     </g>
     <g id="text_3">
      <!-- Marzo -->
      <g transform="translate(178.210353 325.590222)rotate(-55)scale(0.1 -0.1)">
       <defs>
        <path d="M 9.8125 72.90625 
L 24.515625 72.90625 
L 43.109375 23.296875 
L 61.8125 72.90625 
L 76.515625 72.90625 
L 76.515625 0 
L 66.890625 0 
L 66.890625 64.015625 
L 48.09375 14.015625 
L 38.1875 14.015625 
L 19.390625 64.015625 
L 19.390625 0 
L 9.8125 0 
z
" id="DejaVuSans-77"/>
        <path d="M 34.28125 27.484375 
Q 23.390625 27.484375 19.1875 25 
Q 14.984375 22.515625 14.984375 16.5 
Q 14.984375 11.71875 18.140625 8.90625 
Q 21.296875 6.109375 26.703125 6.109375 
Q 34.1875 6.109375 38.703125 11.40625 
Q 43.21875 16.703125 43.21875 25.484375 
L 43.21875 27.484375 
z
M 52.203125 31.203125 
L 52.203125 0 
L 43.21875 0 
L 43.21875 8.296875 
Q 40.140625 3.328125 35.546875 0.953125 
Q 30.953125 -1.421875 24.3125 -1.421875 
Q 15.921875 -1.421875 10.953125 3.296875 
Q 6 8.015625 6 15.921875 
Q 6 25.140625 12.171875 29.828125 
Q 18.359375 34.515625 30.609375 34.515625 
L 43.21875 34.515625 
L 43.21875 35.40625 
Q 43.21875 41.609375 39.140625 45 
Q 35.0625 48.390625 27.6875 48.390625 
Q 23 48.390625 18.546875 47.265625 
Q 14.109375 46.140625 10.015625 43.890625 
L 10.015625 52.203125 
Q 14.9375 54.109375 19.578125 55.046875 
Q 24.21875 56 28.609375 56 
Q 40.484375 56 46.34375 49.84375 
Q 52.203125 43.703125 52.203125 31.203125 
z
" id="DejaVuSans-97"/>
        <path d="M 5.515625 54.6875 
L 48.1875 54.6875 
L 48.1875 46.484375 
L 14.40625 7.171875 
L 48.1875 7.171875 
L 48.1875 0 
L 4.296875 0 
L 4.296875 8.203125 
L 38.09375 47.515625 
L 5.515625 47.515625 
z
" id="DejaVuSans-122"/>
       </defs>
       <use xlink:href="#DejaVuSans-77"/>
       <use x="86.279297" xlink:href="#DejaVuSans-97"/>
       <use x="147.558594" xlink:href="#DejaVuSans-114"/>
       <use x="188.671875" xlink:href="#DejaVuSans-122"/>
       <use x="241.162109" xlink:href="#DejaVuSans-111"/>
      </g>
     </g>
    </g>
    <g id="xtick_4">
     <g id="line2d_7">
      <path clip-path="url(#p47ad19c6fa)" d="M 239.55062 289.465387 
L 239.55062 26.8 
" style="fill:none;stroke:#b0b0b0;stroke-linecap:square;stroke-width:0.8;"/>
     </g>
     <g id="line2d_8">
      <g>
       <use style="stroke:#000000;stroke-width:0.8;" x="239.55062" xlink:href="#mb0abc2dc1d" y="289.465387"/>
      </g>
     </g>
     <g id="text_4">
      <!-- Abril -->
      <g transform="translate(235.256064 319.546416)rotate(-55)scale(0.1 -0.1)">
       <defs>
        <path d="M 34.1875 63.1875 
L 20.796875 26.90625 
L 47.609375 26.90625 
z
M 28.609375 72.90625 
L 39.796875 72.90625 
L 67.578125 0 
L 57.328125 0 
L 50.6875 18.703125 
L 17.828125 18.703125 
L 11.1875 0 
L 0.78125 0 
z
" id="DejaVuSans-65"/>
        <path d="M 9.421875 54.6875 
L 18.40625 54.6875 
L 18.40625 0 
L 9.421875 0 
z
M 9.421875 75.984375 
L 18.40625 75.984375 
L 18.40625 64.59375 
L 9.421875 64.59375 
z
" id="DejaVuSans-105"/>
        <path d="M 9.421875 75.984375 
L 18.40625 75.984375 
L 18.40625 0 
L 9.421875 0 
z
" id="DejaVuSans-108"/>
       </defs>
       <use xlink:href="#DejaVuSans-65"/>
       <use x="68.408203" xlink:href="#DejaVuSans-98"/>
       <use x="131.884766" xlink:href="#DejaVuSans-114"/>
       <use x="172.998047" xlink:href="#DejaVuSans-105"/>
       <use x="200.78125" xlink:href="#DejaVuSans-108"/>
      </g>
     </g>
    </g>
    <g id="xtick_5">
     <g id="line2d_9">
      <path clip-path="url(#p47ad19c6fa)" d="M 294.480372 289.465387 
L 294.480372 26.8 
" style="fill:none;stroke:#b0b0b0;stroke-linecap:square;stroke-width:0.8;"/>
     </g>
     <g id="line2d_10">
      <g>
       <use style="stroke:#000000;stroke-width:0.8;" x="294.480372" xlink:href="#mb0abc2dc1d" y="289.465387"/>
      </g>
     </g>
     <g id="text_5">
      <!-- Mayo -->
      <g transform="translate(289.056588 322.771827)rotate(-55)scale(0.1 -0.1)">
       <defs>
        <path d="M 32.171875 -5.078125 
Q 28.375 -14.84375 24.75 -17.8125 
Q 21.140625 -20.796875 15.09375 -20.796875 
L 7.90625 -20.796875 
L 7.90625 -13.28125 
L 13.1875 -13.28125 
Q 16.890625 -13.28125 18.9375 -11.515625 
Q 21 -9.765625 23.484375 -3.21875 
L 25.09375 0.875 
L 2.984375 54.6875 
L 12.5 54.6875 
L 29.59375 11.921875 
L 46.6875 54.6875 
L 56.203125 54.6875 
z
" id="DejaVuSans-121"/>
       </defs>
       <use xlink:href="#DejaVuSans-77"/>
       <use x="86.279297" xlink:href="#DejaVuSans-97"/>
       <use x="147.558594" xlink:href="#DejaVuSans-121"/>
       <use x="206.738281" xlink:href="#DejaVuSans-111"/>
      </g>
     </g>
    </g>
    <g id="xtick_6">
     <g id="line2d_11">
      <path clip-path="url(#p47ad19c6fa)" d="M 349.410124 289.465387 
L 349.410124 26.8 
" style="fill:none;stroke:#b0b0b0;stroke-linecap:square;stroke-width:0.8;"/>
     </g>
     <g id="line2d_12">
      <g>
       <use style="stroke:#000000;stroke-width:0.8;" x="349.410124" xlink:href="#mb0abc2dc1d" y="289.465387"/>
      </g>
     </g>
     <g id="text_6">
      <!-- Junio -->
      <g transform="translate(344.637887 320.910816)rotate(-55)scale(0.1 -0.1)">
       <defs>
        <path d="M 9.8125 72.90625 
L 19.671875 72.90625 
L 19.671875 5.078125 
Q 19.671875 -8.109375 14.671875 -14.0625 
Q 9.671875 -20.015625 -1.421875 -20.015625 
L -5.171875 -20.015625 
L -5.171875 -11.71875 
L -2.09375 -11.71875 
Q 4.4375 -11.71875 7.125 -8.046875 
Q 9.8125 -4.390625 9.8125 5.078125 
z
" id="DejaVuSans-74"/>
        <path d="M 8.5 21.578125 
L 8.5 54.6875 
L 17.484375 54.6875 
L 17.484375 21.921875 
Q 17.484375 14.15625 20.5 10.265625 
Q 23.53125 6.390625 29.59375 6.390625 
Q 36.859375 6.390625 41.078125 11.03125 
Q 45.3125 15.671875 45.3125 23.6875 
L 45.3125 54.6875 
L 54.296875 54.6875 
L 54.296875 0 
L 45.3125 0 
L 45.3125 8.40625 
Q 42.046875 3.421875 37.71875 1 
Q 33.40625 -1.421875 27.6875 -1.421875 
Q 18.265625 -1.421875 13.375 4.4375 
Q 8.5 10.296875 8.5 21.578125 
z
M 31.109375 56 
z
" id="DejaVuSans-117"/>
       </defs>
       <use xlink:href="#DejaVuSans-74"/>
       <use x="29.492188" xlink:href="#DejaVuSans-117"/>
       <use x="92.871094" xlink:href="#DejaVuSans-110"/>
       <use x="156.25" xlink:href="#DejaVuSans-105"/>
       <use x="184.033203" xlink:href="#DejaVuSans-111"/>
      </g>
     </g>
    </g>
    <g id="xtick_7">
     <g id="line2d_13">
      <path clip-path="url(#p47ad19c6fa)" d="M 404.339876 289.465387 
L 404.339876 26.8 
" style="fill:none;stroke:#b0b0b0;stroke-linecap:square;stroke-width:0.8;"/>
     </g>
     <g id="line2d_14">
      <g>
       <use style="stroke:#000000;stroke-width:0.8;" x="404.339876" xlink:href="#mb0abc2dc1d" y="289.465387"/>
      </g>
     </g>
     <g id="text_7">
      <!-- Julio -->
      <g transform="translate(400.588426 317.995147)rotate(-55)scale(0.1 -0.1)">
       <use xlink:href="#DejaVuSans-74"/>
       <use x="29.492188" xlink:href="#DejaVuSans-117"/>
       <use x="92.871094" xlink:href="#DejaVuSans-108"/>
       <use x="120.654297" xlink:href="#DejaVuSans-105"/>
       <use x="148.4375" xlink:href="#DejaVuSans-111"/>
      </g>
     </g>
    </g>
    <g id="xtick_8">
     <g id="line2d_15">
      <path clip-path="url(#p47ad19c6fa)" d="M 459.269628 289.465387 
L 459.269628 26.8 
" style="fill:none;stroke:#b0b0b0;stroke-linecap:square;stroke-width:0.8;"/>
     </g>
     <g id="line2d_16">
      <g>
       <use style="stroke:#000000;stroke-width:0.8;" x="459.269628" xlink:href="#mb0abc2dc1d" y="289.465387"/>
      </g>
     </g>
     <g id="text_8">
      <!-- Agosto -->
      <g transform="translate(451.61965 329.130495)rotate(-55)scale(0.1 -0.1)">
       <defs>
        <path d="M 45.40625 27.984375 
Q 45.40625 37.75 41.375 43.109375 
Q 37.359375 48.484375 30.078125 48.484375 
Q 22.859375 48.484375 18.828125 43.109375 
Q 14.796875 37.75 14.796875 27.984375 
Q 14.796875 18.265625 18.828125 12.890625 
Q 22.859375 7.515625 30.078125 7.515625 
Q 37.359375 7.515625 41.375 12.890625 
Q 45.40625 18.265625 45.40625 27.984375 
z
M 54.390625 6.78125 
Q 54.390625 -7.171875 48.1875 -13.984375 
Q 42 -20.796875 29.203125 -20.796875 
Q 24.46875 -20.796875 20.265625 -20.09375 
Q 16.0625 -19.390625 12.109375 -17.921875 
L 12.109375 -9.1875 
Q 16.0625 -11.328125 19.921875 -12.34375 
Q 23.78125 -13.375 27.78125 -13.375 
Q 36.625 -13.375 41.015625 -8.765625 
Q 45.40625 -4.15625 45.40625 5.171875 
L 45.40625 9.625 
Q 42.625 4.78125 38.28125 2.390625 
Q 33.9375 0 27.875 0 
Q 17.828125 0 11.671875 7.65625 
Q 5.515625 15.328125 5.515625 27.984375 
Q 5.515625 40.671875 11.671875 48.328125 
Q 17.828125 56 27.875 56 
Q 33.9375 56 38.28125 53.609375 
Q 42.625 51.21875 45.40625 46.390625 
L 45.40625 54.6875 
L 54.390625 54.6875 
z
" id="DejaVuSans-103"/>
        <path d="M 44.28125 53.078125 
L 44.28125 44.578125 
Q 40.484375 46.53125 36.375 47.5 
Q 32.28125 48.484375 27.875 48.484375 
Q 21.1875 48.484375 17.84375 46.4375 
Q 14.5 44.390625 14.5 40.28125 
Q 14.5 37.15625 16.890625 35.375 
Q 19.28125 33.59375 26.515625 31.984375 
L 29.59375 31.296875 
Q 39.15625 29.25 43.1875 25.515625 
Q 47.21875 21.78125 47.21875 15.09375 
Q 47.21875 7.46875 41.1875 3.015625 
Q 35.15625 -1.421875 24.609375 -1.421875 
Q 20.21875 -1.421875 15.453125 -0.5625 
Q 10.6875 0.296875 5.421875 2 
L 5.421875 11.28125 
Q 10.40625 8.6875 15.234375 7.390625 
Q 20.0625 6.109375 24.8125 6.109375 
Q 31.15625 6.109375 34.5625 8.28125 
Q 37.984375 10.453125 37.984375 14.40625 
Q 37.984375 18.0625 35.515625 20.015625 
Q 33.0625 21.96875 24.703125 23.78125 
L 21.578125 24.515625 
Q 13.234375 26.265625 9.515625 29.90625 
Q 5.8125 33.546875 5.8125 39.890625 
Q 5.8125 47.609375 11.28125 51.796875 
Q 16.75 56 26.8125 56 
Q 31.78125 56 36.171875 55.265625 
Q 40.578125 54.546875 44.28125 53.078125 
z
" id="DejaVuSans-115"/>
        <path d="M 18.3125 70.21875 
L 18.3125 54.6875 
L 36.8125 54.6875 
L 36.8125 47.703125 
L 18.3125 47.703125 
L 18.3125 18.015625 
Q 18.3125 11.328125 20.140625 9.421875 
Q 21.96875 7.515625 27.59375 7.515625 
L 36.8125 7.515625 
L 36.8125 0 
L 27.59375 0 
Q 17.1875 0 13.234375 3.875 
Q 9.28125 7.765625 9.28125 18.015625 
L 9.28125 47.703125 
L 2.6875 47.703125 
L 2.6875 54.6875 
L 9.28125 54.6875 
L 9.28125 70.21875 
z
" id="DejaVuSans-116"/>
       </defs>
       <use xlink:href="#DejaVuSans-65"/>
       <use x="68.408203" xlink:href="#DejaVuSans-103"/>
       <use x="131.884766" xlink:href="#DejaVuSans-111"/>
       <use x="193.066406" xlink:href="#DejaVuSans-115"/>
       <use x="245.166016" xlink:href="#DejaVuSans-116"/>
       <use x="284.375" xlink:href="#DejaVuSans-111"/>
      </g>
     </g>
    </g>
    <g id="xtick_9">
     <g id="line2d_17">
      <path clip-path="url(#p47ad19c6fa)" d="M 514.19938 289.465387 
L 514.19938 26.8 
" style="fill:none;stroke:#b0b0b0;stroke-linecap:square;stroke-width:0.8;"/>
     </g>
     <g id="line2d_18">
      <g>
       <use style="stroke:#000000;stroke-width:0.8;" x="514.19938" xlink:href="#mb0abc2dc1d" y="289.465387"/>
      </g>
     </g>
     <g id="text_9">
      <!-- Septiembre -->
      <g transform="translate(499.874855 348.194979)rotate(-55)scale(0.1 -0.1)">
       <defs>
        <path d="M 53.515625 70.515625 
L 53.515625 60.890625 
Q 47.90625 63.578125 42.921875 64.890625 
Q 37.9375 66.21875 33.296875 66.21875 
Q 25.25 66.21875 20.875 63.09375 
Q 16.5 59.96875 16.5 54.203125 
Q 16.5 49.359375 19.40625 46.890625 
Q 22.3125 44.4375 30.421875 42.921875 
L 36.375 41.703125 
Q 47.40625 39.59375 52.65625 34.296875 
Q 57.90625 29 57.90625 20.125 
Q 57.90625 9.515625 50.796875 4.046875 
Q 43.703125 -1.421875 29.984375 -1.421875 
Q 24.8125 -1.421875 18.96875 -0.25 
Q 13.140625 0.921875 6.890625 3.21875 
L 6.890625 13.375 
Q 12.890625 10.015625 18.65625 8.296875 
Q 24.421875 6.59375 29.984375 6.59375 
Q 38.421875 6.59375 43.015625 9.90625 
Q 47.609375 13.234375 47.609375 19.390625 
Q 47.609375 24.75 44.3125 27.78125 
Q 41.015625 30.8125 33.5 32.328125 
L 27.484375 33.5 
Q 16.453125 35.6875 11.515625 40.375 
Q 6.59375 45.0625 6.59375 53.421875 
Q 6.59375 63.09375 13.40625 68.65625 
Q 20.21875 74.21875 32.171875 74.21875 
Q 37.3125 74.21875 42.625 73.28125 
Q 47.953125 72.359375 53.515625 70.515625 
z
" id="DejaVuSans-83"/>
        <path d="M 18.109375 8.203125 
L 18.109375 -20.796875 
L 9.078125 -20.796875 
L 9.078125 54.6875 
L 18.109375 54.6875 
L 18.109375 46.390625 
Q 20.953125 51.265625 25.265625 53.625 
Q 29.59375 56 35.59375 56 
Q 45.5625 56 51.78125 48.09375 
Q 58.015625 40.1875 58.015625 27.296875 
Q 58.015625 14.40625 51.78125 6.484375 
Q 45.5625 -1.421875 35.59375 -1.421875 
Q 29.59375 -1.421875 25.265625 0.953125 
Q 20.953125 3.328125 18.109375 8.203125 
z
M 48.6875 27.296875 
Q 48.6875 37.203125 44.609375 42.84375 
Q 40.53125 48.484375 33.40625 48.484375 
Q 26.265625 48.484375 22.1875 42.84375 
Q 18.109375 37.203125 18.109375 27.296875 
Q 18.109375 17.390625 22.1875 11.75 
Q 26.265625 6.109375 33.40625 6.109375 
Q 40.53125 6.109375 44.609375 11.75 
Q 48.6875 17.390625 48.6875 27.296875 
z
" id="DejaVuSans-112"/>
        <path d="M 52 44.1875 
Q 55.375 50.25 60.0625 53.125 
Q 64.75 56 71.09375 56 
Q 79.640625 56 84.28125 50.015625 
Q 88.921875 44.046875 88.921875 33.015625 
L 88.921875 0 
L 79.890625 0 
L 79.890625 32.71875 
Q 79.890625 40.578125 77.09375 44.375 
Q 74.3125 48.1875 68.609375 48.1875 
Q 61.625 48.1875 57.5625 43.546875 
Q 53.515625 38.921875 53.515625 30.90625 
L 53.515625 0 
L 44.484375 0 
L 44.484375 32.71875 
Q 44.484375 40.625 41.703125 44.40625 
Q 38.921875 48.1875 33.109375 48.1875 
Q 26.21875 48.1875 22.15625 43.53125 
Q 18.109375 38.875 18.109375 30.90625 
L 18.109375 0 
L 9.078125 0 
L 9.078125 54.6875 
L 18.109375 54.6875 
L 18.109375 46.1875 
Q 21.1875 51.21875 25.484375 53.609375 
Q 29.78125 56 35.6875 56 
Q 41.65625 56 45.828125 52.96875 
Q 50 49.953125 52 44.1875 
z
" id="DejaVuSans-109"/>
       </defs>
       <use xlink:href="#DejaVuSans-83"/>
       <use x="63.476562" xlink:href="#DejaVuSans-101"/>
       <use x="125" xlink:href="#DejaVuSans-112"/>
       <use x="188.476562" xlink:href="#DejaVuSans-116"/>
       <use x="227.685547" xlink:href="#DejaVuSans-105"/>
       <use x="255.46875" xlink:href="#DejaVuSans-101"/>
       <use x="316.992188" xlink:href="#DejaVuSans-109"/>
       <use x="414.404297" xlink:href="#DejaVuSans-98"/>
       <use x="477.880859" xlink:href="#DejaVuSans-114"/>
       <use x="516.744141" xlink:href="#DejaVuSans-101"/>
      </g>
     </g>
    </g>
    <g id="xtick_10">
     <g id="line2d_19">
      <path clip-path="url(#p47ad19c6fa)" d="M 569.129132 289.465387 
L 569.129132 26.8 
" style="fill:none;stroke:#b0b0b0;stroke-linecap:square;stroke-width:0.8;"/>
     </g>
     <g id="line2d_20">
      <g>
       <use style="stroke:#000000;stroke-width:0.8;" x="569.129132" xlink:href="#mb0abc2dc1d" y="289.465387"/>
      </g>
     </g>
     <g id="text_10">
      <!-- Octubre -->
      <g transform="translate(559.91347 333.602553)rotate(-55)scale(0.1 -0.1)">
       <defs>
        <path d="M 39.40625 66.21875 
Q 28.65625 66.21875 22.328125 58.203125 
Q 16.015625 50.203125 16.015625 36.375 
Q 16.015625 22.609375 22.328125 14.59375 
Q 28.65625 6.59375 39.40625 6.59375 
Q 50.140625 6.59375 56.421875 14.59375 
Q 62.703125 22.609375 62.703125 36.375 
Q 62.703125 50.203125 56.421875 58.203125 
Q 50.140625 66.21875 39.40625 66.21875 
z
M 39.40625 74.21875 
Q 54.734375 74.21875 63.90625 63.9375 
Q 73.09375 53.65625 73.09375 36.375 
Q 73.09375 19.140625 63.90625 8.859375 
Q 54.734375 -1.421875 39.40625 -1.421875 
Q 24.03125 -1.421875 14.8125 8.828125 
Q 5.609375 19.09375 5.609375 36.375 
Q 5.609375 53.65625 14.8125 63.9375 
Q 24.03125 74.21875 39.40625 74.21875 
z
" id="DejaVuSans-79"/>
        <path d="M 48.78125 52.59375 
L 48.78125 44.1875 
Q 44.96875 46.296875 41.140625 47.34375 
Q 37.3125 48.390625 33.40625 48.390625 
Q 24.65625 48.390625 19.8125 42.84375 
Q 14.984375 37.3125 14.984375 27.296875 
Q 14.984375 17.28125 19.8125 11.734375 
Q 24.65625 6.203125 33.40625 6.203125 
Q 37.3125 6.203125 41.140625 7.25 
Q 44.96875 8.296875 48.78125 10.40625 
L 48.78125 2.09375 
Q 45.015625 0.34375 40.984375 -0.53125 
Q 36.96875 -1.421875 32.421875 -1.421875 
Q 20.0625 -1.421875 12.78125 6.34375 
Q 5.515625 14.109375 5.515625 27.296875 
Q 5.515625 40.671875 12.859375 48.328125 
Q 20.21875 56 33.015625 56 
Q 37.15625 56 41.109375 55.140625 
Q 45.0625 54.296875 48.78125 52.59375 
z
" id="DejaVuSans-99"/>
       </defs>
       <use xlink:href="#DejaVuSans-79"/>
       <use x="78.710938" xlink:href="#DejaVuSans-99"/>
       <use x="133.691406" xlink:href="#DejaVuSans-116"/>
       <use x="172.900391" xlink:href="#DejaVuSans-117"/>
       <use x="236.279297" xlink:href="#DejaVuSans-98"/>
       <use x="299.755859" xlink:href="#DejaVuSans-114"/>
       <use x="338.619141" xlink:href="#DejaVuSans-101"/>
      </g>
     </g>
    </g>
    <g id="xtick_11">
     <g id="line2d_21">
      <path clip-path="url(#p47ad19c6fa)" d="M 624.058884 289.465387 
L 624.058884 26.8 
" style="fill:none;stroke:#b0b0b0;stroke-linecap:square;stroke-width:0.8;"/>
     </g>
     <g id="line2d_22">
      <g>
       <use style="stroke:#000000;stroke-width:0.8;" x="624.058884" xlink:href="#mb0abc2dc1d" y="289.465387"/>
      </g>
     </g>
     <g id="text_11">
      <!-- Noviembre -->
      <g transform="translate(610.666869 345.531454)rotate(-55)scale(0.1 -0.1)">
       <defs>
        <path d="M 9.8125 72.90625 
L 23.09375 72.90625 
L 55.421875 11.921875 
L 55.421875 72.90625 
L 64.984375 72.90625 
L 64.984375 0 
L 51.703125 0 
L 19.390625 60.984375 
L 19.390625 0 
L 9.8125 0 
z
" id="DejaVuSans-78"/>
        <path d="M 2.984375 54.6875 
L 12.5 54.6875 
L 29.59375 8.796875 
L 46.6875 54.6875 
L 56.203125 54.6875 
L 35.6875 0 
L 23.484375 0 
z
" id="DejaVuSans-118"/>
       </defs>
       <use xlink:href="#DejaVuSans-78"/>
       <use x="74.804688" xlink:href="#DejaVuSans-111"/>
       <use x="135.986328" xlink:href="#DejaVuSans-118"/>
       <use x="195.166016" xlink:href="#DejaVuSans-105"/>
       <use x="222.949219" xlink:href="#DejaVuSans-101"/>
       <use x="284.472656" xlink:href="#DejaVuSans-109"/>
       <use x="381.884766" xlink:href="#DejaVuSans-98"/>
       <use x="445.361328" xlink:href="#DejaVuSans-114"/>
       <use x="484.224609" xlink:href="#DejaVuSans-101"/>
      </g>
     </g>
    </g>
    <g id="xtick_12">
     <g id="line2d_23">
      <path clip-path="url(#p47ad19c6fa)" d="M 678.988636 289.465387 
L 678.988636 26.8 
" style="fill:none;stroke:#b0b0b0;stroke-linecap:square;stroke-width:0.8;"/>
     </g>
     <g id="line2d_24">
      <g>
       <use style="stroke:#000000;stroke-width:0.8;" x="678.988636" xlink:href="#mb0abc2dc1d" y="289.465387"/>
      </g>
     </g>
     <g id="text_12">
      <!-- Diciembre -->
      <g transform="translate(666.612478 342.629864)rotate(-55)scale(0.1 -0.1)">
       <defs>
        <path d="M 19.671875 64.796875 
L 19.671875 8.109375 
L 31.59375 8.109375 
Q 46.6875 8.109375 53.6875 14.9375 
Q 60.6875 21.78125 60.6875 36.53125 
Q 60.6875 51.171875 53.6875 57.984375 
Q 46.6875 64.796875 31.59375 64.796875 
z
M 9.8125 72.90625 
L 30.078125 72.90625 
Q 51.265625 72.90625 61.171875 64.09375 
Q 71.09375 55.28125 71.09375 36.53125 
Q 71.09375 17.671875 61.125 8.828125 
Q 51.171875 0 30.078125 0 
L 9.8125 0 
z
" id="DejaVuSans-68"/>
       </defs>
       <use xlink:href="#DejaVuSans-68"/>
       <use x="77.001953" xlink:href="#DejaVuSans-105"/>
       <use x="104.785156" xlink:href="#DejaVuSans-99"/>
       <use x="159.765625" xlink:href="#DejaVuSans-105"/>
       <use x="187.548828" xlink:href="#DejaVuSans-101"/>
       <use x="249.072266" xlink:href="#DejaVuSans-109"/>
       <use x="346.484375" xlink:href="#DejaVuSans-98"/>
       <use x="409.960938" xlink:href="#DejaVuSans-114"/>
       <use x="448.824219" xlink:href="#DejaVuSans-101"/>
      </g>
     </g>
    </g>
   </g>
   <g id="matplotlib.axis_2">
    <g id="ytick_1">
     <g id="line2d_25">
      <path clip-path="url(#p47ad19c6fa)" d="M 44.55 273.751149 
L 709.2 273.751149 
" style="fill:none;stroke:#b0b0b0;stroke-linecap:square;stroke-width:0.8;"/>
     </g>
     <g id="line2d_26">
      <defs>
       <path d="M 0 0 
L -3.5 0 
" id="m5f60a5a97e" style="stroke:#000000;stroke-width:0.8;"/>
      </defs>
      <g>
       <use style="stroke:#000000;stroke-width:0.8;" x="44.55" xlink:href="#m5f60a5a97e" y="273.751149"/>
      </g>
     </g>
     <g id="text_13">
      <!-- 0 -->
      <g transform="translate(31.1875 277.550368)scale(0.1 -0.1)">
       <defs>
        <path d="M 31.78125 66.40625 
Q 24.171875 66.40625 20.328125 58.90625 
Q 16.5 51.421875 16.5 36.375 
Q 16.5 21.390625 20.328125 13.890625 
Q 24.171875 6.390625 31.78125 6.390625 
Q 39.453125 6.390625 43.28125 13.890625 
Q 47.125 21.390625 47.125 36.375 
Q 47.125 51.421875 43.28125 58.90625 
Q 39.453125 66.40625 31.78125 66.40625 
z
M 31.78125 74.21875 
Q 44.046875 74.21875 50.515625 64.515625 
Q 56.984375 54.828125 56.984375 36.375 
Q 56.984375 17.96875 50.515625 8.265625 
Q 44.046875 -1.421875 31.78125 -1.421875 
Q 19.53125 -1.421875 13.0625 8.265625 
Q 6.59375 17.96875 6.59375 36.375 
Q 6.59375 54.828125 13.0625 64.515625 
Q 19.53125 74.21875 31.78125 74.21875 
z
" id="DejaVuSans-48"/>
       </defs>
       <use xlink:href="#DejaVuSans-48"/>
      </g>
     </g>
    </g>
    <g id="ytick_2">
     <g id="line2d_27">
      <path clip-path="url(#p47ad19c6fa)" d="M 44.55 243.10933 
L 709.2 243.10933 
" style="fill:none;stroke:#b0b0b0;stroke-linecap:square;stroke-width:0.8;"/>
     </g>
     <g id="line2d_28">
      <g>
       <use style="stroke:#000000;stroke-width:0.8;" x="44.55" xlink:href="#m5f60a5a97e" y="243.10933"/>
      </g>
     </g>
     <g id="text_14">
      <!-- 10 -->
      <g transform="translate(24.825 246.908548)scale(0.1 -0.1)">
       <defs>
        <path d="M 12.40625 8.296875 
L 28.515625 8.296875 
L 28.515625 63.921875 
L 10.984375 60.40625 
L 10.984375 69.390625 
L 28.421875 72.90625 
L 38.28125 72.90625 
L 38.28125 8.296875 
L 54.390625 8.296875 
L 54.390625 0 
L 12.40625 0 
z
" id="DejaVuSans-49"/>
       </defs>
       <use xlink:href="#DejaVuSans-49"/>
       <use x="63.623047" xlink:href="#DejaVuSans-48"/>
      </g>
     </g>
    </g>
    <g id="ytick_3">
     <g id="line2d_29">
      <path clip-path="url(#p47ad19c6fa)" d="M 44.55 212.46751 
L 709.2 212.46751 
" style="fill:none;stroke:#b0b0b0;stroke-linecap:square;stroke-width:0.8;"/>
     </g>
     <g id="line2d_30">
      <g>
       <use style="stroke:#000000;stroke-width:0.8;" x="44.55" xlink:href="#m5f60a5a97e" y="212.46751"/>
      </g>
     </g>
     <g id="text_15">
      <!-- 20 -->
      <g transform="translate(24.825 216.266729)scale(0.1 -0.1)">
       <defs>
        <path d="M 19.1875 8.296875 
L 53.609375 8.296875 
L 53.609375 0 
L 7.328125 0 
L 7.328125 8.296875 
Q 12.9375 14.109375 22.625 23.890625 
Q 32.328125 33.6875 34.8125 36.53125 
Q 39.546875 41.84375 41.421875 45.53125 
Q 43.3125 49.21875 43.3125 52.78125 
Q 43.3125 58.59375 39.234375 62.25 
Q 35.15625 65.921875 28.609375 65.921875 
Q 23.96875 65.921875 18.8125 64.3125 
Q 13.671875 62.703125 7.8125 59.421875 
L 7.8125 69.390625 
Q 13.765625 71.78125 18.9375 73 
Q 24.125 74.21875 28.421875 74.21875 
Q 39.75 74.21875 46.484375 68.546875 
Q 53.21875 62.890625 53.21875 53.421875 
Q 53.21875 48.921875 51.53125 44.890625 
Q 49.859375 40.875 45.40625 35.40625 
Q 44.1875 33.984375 37.640625 27.21875 
Q 31.109375 20.453125 19.1875 8.296875 
z
" id="DejaVuSans-50"/>
       </defs>
       <use xlink:href="#DejaVuSans-50"/>
       <use x="63.623047" xlink:href="#DejaVuSans-48"/>
      </g>
     </g>
    </g>
    <g id="ytick_4">
     <g id="line2d_31">
      <path clip-path="url(#p47ad19c6fa)" d="M 44.55 181.82569 
L 709.2 181.82569 
" style="fill:none;stroke:#b0b0b0;stroke-linecap:square;stroke-width:0.8;"/>
     </g>
     <g id="line2d_32">
      <g>
       <use style="stroke:#000000;stroke-width:0.8;" x="44.55" xlink:href="#m5f60a5a97e" y="181.82569"/>
      </g>
     </g>
     <g id="text_16">
      <!-- 30 -->
      <g transform="translate(24.825 185.624909)scale(0.1 -0.1)">
       <defs>
        <path d="M 40.578125 39.3125 
Q 47.65625 37.796875 51.625 33 
Q 55.609375 28.21875 55.609375 21.1875 
Q 55.609375 10.40625 48.1875 4.484375 
Q 40.765625 -1.421875 27.09375 -1.421875 
Q 22.515625 -1.421875 17.65625 -0.515625 
Q 12.796875 0.390625 7.625 2.203125 
L 7.625 11.71875 
Q 11.71875 9.328125 16.59375 8.109375 
Q 21.484375 6.890625 26.8125 6.890625 
Q 36.078125 6.890625 40.9375 10.546875 
Q 45.796875 14.203125 45.796875 21.1875 
Q 45.796875 27.640625 41.28125 31.265625 
Q 36.765625 34.90625 28.71875 34.90625 
L 20.21875 34.90625 
L 20.21875 43.015625 
L 29.109375 43.015625 
Q 36.375 43.015625 40.234375 45.921875 
Q 44.09375 48.828125 44.09375 54.296875 
Q 44.09375 59.90625 40.109375 62.90625 
Q 36.140625 65.921875 28.71875 65.921875 
Q 24.65625 65.921875 20.015625 65.03125 
Q 15.375 64.15625 9.8125 62.3125 
L 9.8125 71.09375 
Q 15.4375 72.65625 20.34375 73.4375 
Q 25.25 74.21875 29.59375 74.21875 
Q 40.828125 74.21875 47.359375 69.109375 
Q 53.90625 64.015625 53.90625 55.328125 
Q 53.90625 49.265625 50.4375 45.09375 
Q 46.96875 40.921875 40.578125 39.3125 
z
" id="DejaVuSans-51"/>
       </defs>
       <use xlink:href="#DejaVuSans-51"/>
       <use x="63.623047" xlink:href="#DejaVuSans-48"/>
      </g>
     </g>
    </g>
    <g id="ytick_5">
     <g id="line2d_33">
      <path clip-path="url(#p47ad19c6fa)" d="M 44.55 151.183871 
L 709.2 151.183871 
" style="fill:none;stroke:#b0b0b0;stroke-linecap:square;stroke-width:0.8;"/>
     </g>
     <g id="line2d_34">
      <g>
       <use style="stroke:#000000;stroke-width:0.8;" x="44.55" xlink:href="#m5f60a5a97e" y="151.183871"/>
      </g>
     </g>
     <g id="text_17">
      <!-- 40 -->
      <g transform="translate(24.825 154.983089)scale(0.1 -0.1)">
       <defs>
        <path d="M 37.796875 64.3125 
L 12.890625 25.390625 
L 37.796875 25.390625 
z
M 35.203125 72.90625 
L 47.609375 72.90625 
L 47.609375 25.390625 
L 58.015625 25.390625 
L 58.015625 17.1875 
L 47.609375 17.1875 
L 47.609375 0 
L 37.796875 0 
L 37.796875 17.1875 
L 4.890625 17.1875 
L 4.890625 26.703125 
z
" id="DejaVuSans-52"/>
       </defs>
       <use xlink:href="#DejaVuSans-52"/>
       <use x="63.623047" xlink:href="#DejaVuSans-48"/>
      </g>
     </g>
    </g>
    <g id="ytick_6">
     <g id="line2d_35">
      <path clip-path="url(#p47ad19c6fa)" d="M 44.55 120.542051 
L 709.2 120.542051 
" style="fill:none;stroke:#b0b0b0;stroke-linecap:square;stroke-width:0.8;"/>
     </g>
     <g id="line2d_36">
      <g>
       <use style="stroke:#000000;stroke-width:0.8;" x="44.55" xlink:href="#m5f60a5a97e" y="120.542051"/>
      </g>
     </g>
     <g id="text_18">
      <!-- 50 -->
      <g transform="translate(24.825 124.34127)scale(0.1 -0.1)">
       <defs>
        <path d="M 10.796875 72.90625 
L 49.515625 72.90625 
L 49.515625 64.59375 
L 19.828125 64.59375 
L 19.828125 46.734375 
Q 21.96875 47.46875 24.109375 47.828125 
Q 26.265625 48.1875 28.421875 48.1875 
Q 40.625 48.1875 47.75 41.5 
Q 54.890625 34.8125 54.890625 23.390625 
Q 54.890625 11.625 47.5625 5.09375 
Q 40.234375 -1.421875 26.90625 -1.421875 
Q 22.3125 -1.421875 17.546875 -0.640625 
Q 12.796875 0.140625 7.71875 1.703125 
L 7.71875 11.625 
Q 12.109375 9.234375 16.796875 8.0625 
Q 21.484375 6.890625 26.703125 6.890625 
Q 35.15625 6.890625 40.078125 11.328125 
Q 45.015625 15.765625 45.015625 23.390625 
Q 45.015625 31 40.078125 35.4375 
Q 35.15625 39.890625 26.703125 39.890625 
Q 22.75 39.890625 18.8125 39.015625 
Q 14.890625 38.140625 10.796875 36.28125 
z
" id="DejaVuSans-53"/>
       </defs>
       <use xlink:href="#DejaVuSans-53"/>
       <use x="63.623047" xlink:href="#DejaVuSans-48"/>
      </g>
     </g>
    </g>
    <g id="ytick_7">
     <g id="line2d_37">
      <path clip-path="url(#p47ad19c6fa)" d="M 44.55 89.900231 
L 709.2 89.900231 
" style="fill:none;stroke:#b0b0b0;stroke-linecap:square;stroke-width:0.8;"/>
     </g>
     <g id="line2d_38">
      <g>
       <use style="stroke:#000000;stroke-width:0.8;" x="44.55" xlink:href="#m5f60a5a97e" y="89.900231"/>
      </g>
     </g>
     <g id="text_19">
      <!-- 60 -->
      <g transform="translate(24.825 93.69945)scale(0.1 -0.1)">
       <defs>
        <path d="M 33.015625 40.375 
Q 26.375 40.375 22.484375 35.828125 
Q 18.609375 31.296875 18.609375 23.390625 
Q 18.609375 15.53125 22.484375 10.953125 
Q 26.375 6.390625 33.015625 6.390625 
Q 39.65625 6.390625 43.53125 10.953125 
Q 47.40625 15.53125 47.40625 23.390625 
Q 47.40625 31.296875 43.53125 35.828125 
Q 39.65625 40.375 33.015625 40.375 
z
M 52.59375 71.296875 
L 52.59375 62.3125 
Q 48.875 64.0625 45.09375 64.984375 
Q 41.3125 65.921875 37.59375 65.921875 
Q 27.828125 65.921875 22.671875 59.328125 
Q 17.53125 52.734375 16.796875 39.40625 
Q 19.671875 43.65625 24.015625 45.921875 
Q 28.375 48.1875 33.59375 48.1875 
Q 44.578125 48.1875 50.953125 41.515625 
Q 57.328125 34.859375 57.328125 23.390625 
Q 57.328125 12.15625 50.6875 5.359375 
Q 44.046875 -1.421875 33.015625 -1.421875 
Q 20.359375 -1.421875 13.671875 8.265625 
Q 6.984375 17.96875 6.984375 36.375 
Q 6.984375 53.65625 15.1875 63.9375 
Q 23.390625 74.21875 37.203125 74.21875 
Q 40.921875 74.21875 44.703125 73.484375 
Q 48.484375 72.75 52.59375 71.296875 
z
" id="DejaVuSans-54"/>
       </defs>
       <use xlink:href="#DejaVuSans-54"/>
       <use x="63.623047" xlink:href="#DejaVuSans-48"/>
      </g>
     </g>
    </g>
    <g id="ytick_8">
     <g id="line2d_39">
      <path clip-path="url(#p47ad19c6fa)" d="M 44.55 59.258411 
L 709.2 59.258411 
" style="fill:none;stroke:#b0b0b0;stroke-linecap:square;stroke-width:0.8;"/>
     </g>
     <g id="line2d_40">
      <g>
       <use style="stroke:#000000;stroke-width:0.8;" x="44.55" xlink:href="#m5f60a5a97e" y="59.258411"/>
      </g>
     </g>
     <g id="text_20">
      <!-- 70 -->
      <g transform="translate(24.825 63.05763)scale(0.1 -0.1)">
       <defs>
        <path d="M 8.203125 72.90625 
L 55.078125 72.90625 
L 55.078125 68.703125 
L 28.609375 0 
L 18.3125 0 
L 43.21875 64.59375 
L 8.203125 64.59375 
z
" id="DejaVuSans-55"/>
       </defs>
       <use xlink:href="#DejaVuSans-55"/>
       <use x="63.623047" xlink:href="#DejaVuSans-48"/>
      </g>
     </g>
    </g>
    <g id="ytick_9">
     <g id="line2d_41">
      <path clip-path="url(#p47ad19c6fa)" d="M 44.55 28.616592 
L 709.2 28.616592 
" style="fill:none;stroke:#b0b0b0;stroke-linecap:square;stroke-width:0.8;"/>
     </g>
     <g id="line2d_42">
      <g>
       <use style="stroke:#000000;stroke-width:0.8;" x="44.55" xlink:href="#m5f60a5a97e" y="28.616592"/>
      </g>
     </g>
     <g id="text_21">
      <!-- 80 -->
      <g transform="translate(24.825 32.415811)scale(0.1 -0.1)">
       <defs>
        <path d="M 31.78125 34.625 
Q 24.75 34.625 20.71875 30.859375 
Q 16.703125 27.09375 16.703125 20.515625 
Q 16.703125 13.921875 20.71875 10.15625 
Q 24.75 6.390625 31.78125 6.390625 
Q 38.8125 6.390625 42.859375 10.171875 
Q 46.921875 13.96875 46.921875 20.515625 
Q 46.921875 27.09375 42.890625 30.859375 
Q 38.875 34.625 31.78125 34.625 
z
M 21.921875 38.8125 
Q 15.578125 40.375 12.03125 44.71875 
Q 8.5 49.078125 8.5 55.328125 
Q 8.5 64.0625 14.71875 69.140625 
Q 20.953125 74.21875 31.78125 74.21875 
Q 42.671875 74.21875 48.875 69.140625 
Q 55.078125 64.0625 55.078125 55.328125 
Q 55.078125 49.078125 51.53125 44.71875 
Q 48 40.375 41.703125 38.8125 
Q 48.828125 37.15625 52.796875 32.3125 
Q 56.78125 27.484375 56.78125 20.515625 
Q 56.78125 9.90625 50.3125 4.234375 
Q 43.84375 -1.421875 31.78125 -1.421875 
Q 19.734375 -1.421875 13.25 4.234375 
Q 6.78125 9.90625 6.78125 20.515625 
Q 6.78125 27.484375 10.78125 32.3125 
Q 14.796875 37.15625 21.921875 38.8125 
z
M 18.3125 54.390625 
Q 18.3125 48.734375 21.84375 45.5625 
Q 25.390625 42.390625 31.78125 42.390625 
Q 38.140625 42.390625 41.71875 45.5625 
Q 45.3125 48.734375 45.3125 54.390625 
Q 45.3125 60.0625 41.71875 63.234375 
Q 38.140625 66.40625 31.78125 66.40625 
Q 25.390625 66.40625 21.84375 63.234375 
Q 18.3125 60.0625 18.3125 54.390625 
z
" id="DejaVuSans-56"/>
       </defs>
       <use xlink:href="#DejaVuSans-56"/>
       <use x="63.623047" xlink:href="#DejaVuSans-48"/>
      </g>
     </g>
    </g>
    <g id="text_22">
     <!-- Nivel -->
     <g transform="translate(18.745312 170.687381)rotate(-90)scale(0.1 -0.1)">
      <use xlink:href="#DejaVuSans-78"/>
      <use x="74.804688" xlink:href="#DejaVuSans-105"/>
      <use x="102.587891" xlink:href="#DejaVuSans-118"/>
      <use x="161.767578" xlink:href="#DejaVuSans-101"/>
      <use x="223.291016" xlink:href="#DejaVuSans-108"/>
     </g>
    </g>
   </g>
   <g id="line2d_43">
    <path clip-path="url(#p47ad19c6fa)" d="M 74.761364 219.766221 
L 129.691116 197.237796 
L 184.620868 195.346393 
L 239.55062 179.752084 
L 294.480372 171.709634 
L 349.410124 200.985633 
L 404.339876 204.828334 
L 459.269628 207.437145 
L 514.19938 203.301379 
L 569.129132 208.411725 
L 624.058884 212.062474 
L 678.988636 201.998222 
" style="fill:none;stroke:#1f77b4;stroke-linecap:square;stroke-width:1.5;"/>
    <defs>
     <path d="M 0 3 
C 0.795609 3 1.55874 2.683901 2.12132 2.12132 
C 2.683901 1.55874 3 0.795609 3 0 
C 3 -0.795609 2.683901 -1.55874 2.12132 -2.12132 
C 1.55874 -2.683901 0.795609 -3 0 -3 
C -0.795609 -3 -1.55874 -2.683901 -2.12132 -2.12132 
C -2.683901 -1.55874 -3 -0.795609 -3 0 
C -3 0.795609 -2.683901 1.55874 -2.12132 2.12132 
C -1.55874 2.683901 -0.795609 3 0 3 
z
" id="mc2b789c6d0" style="stroke:#1f77b4;"/>
    </defs>
    <g clip-path="url(#p47ad19c6fa)">
     <use style="fill:#1f77b4;stroke:#1f77b4;" x="74.761364" xlink:href="#mc2b789c6d0" y="219.766221"/>
     <use style="fill:#1f77b4;stroke:#1f77b4;" x="129.691116" xlink:href="#mc2b789c6d0" y="197.237796"/>
     <use style="fill:#1f77b4;stroke:#1f77b4;" x="184.620868" xlink:href="#mc2b789c6d0" y="195.346393"/>
     <use style="fill:#1f77b4;stroke:#1f77b4;" x="239.55062" xlink:href="#mc2b789c6d0" y="179.752084"/>
     <use style="fill:#1f77b4;stroke:#1f77b4;" x="294.480372" xlink:href="#mc2b789c6d0" y="171.709634"/>
     <use style="fill:#1f77b4;stroke:#1f77b4;" x="349.410124" xlink:href="#mc2b789c6d0" y="200.985633"/>
     <use style="fill:#1f77b4;stroke:#1f77b4;" x="404.339876" xlink:href="#mc2b789c6d0" y="204.828334"/>
     <use style="fill:#1f77b4;stroke:#1f77b4;" x="459.269628" xlink:href="#mc2b789c6d0" y="207.437145"/>
     <use style="fill:#1f77b4;stroke:#1f77b4;" x="514.19938" xlink:href="#mc2b789c6d0" y="203.301379"/>
     <use style="fill:#1f77b4;stroke:#1f77b4;" x="569.129132" xlink:href="#mc2b789c6d0" y="208.411725"/>
     <use style="fill:#1f77b4;stroke:#1f77b4;" x="624.058884" xlink:href="#mc2b789c6d0" y="212.062474"/>
     <use style="fill:#1f77b4;stroke:#1f77b4;" x="678.988636" xlink:href="#mc2b789c6d0" y="201.998222"/>
    </g>
   </g>
   <g id="line2d_44">
    <path clip-path="url(#p47ad19c6fa)" d="M 74.761364 218.566083 
L 129.691116 212.298798 
L 184.620868 234.938178 
L 239.55062 242.453348 
L 294.480372 241.041007 
L 349.410124 212.29581 
L 404.339876 246.079884 
L 459.269628 244.190305 
L 514.19938 231.306065 
L 569.129132 229.52479 
L 624.058884 240.106784 
L 678.988636 241.948655 
" style="fill:none;stroke:#ff7f0e;stroke-linecap:square;stroke-width:1.5;"/>
    <defs>
     <path d="M 0 3 
C 0.795609 3 1.55874 2.683901 2.12132 2.12132 
C 2.683901 1.55874 3 0.795609 3 0 
C 3 -0.795609 2.683901 -1.55874 2.12132 -2.12132 
C 1.55874 -2.683901 0.795609 -3 0 -3 
C -0.795609 -3 -1.55874 -2.683901 -2.12132 -2.12132 
C -2.683901 -1.55874 -3 -0.795609 -3 0 
C -3 0.795609 -2.683901 1.55874 -2.12132 2.12132 
C -1.55874 2.683901 -0.795609 3 0 3 
z
" id="m81dffcc92d" style="stroke:#ff7f0e;"/>
    </defs>
    <g clip-path="url(#p47ad19c6fa)">
     <use style="fill:#ff7f0e;stroke:#ff7f0e;" x="74.761364" xlink:href="#m81dffcc92d" y="218.566083"/>
     <use style="fill:#ff7f0e;stroke:#ff7f0e;" x="129.691116" xlink:href="#m81dffcc92d" y="212.298798"/>
     <use style="fill:#ff7f0e;stroke:#ff7f0e;" x="184.620868" xlink:href="#m81dffcc92d" y="234.938178"/>
     <use style="fill:#ff7f0e;stroke:#ff7f0e;" x="239.55062" xlink:href="#m81dffcc92d" y="242.453348"/>
     <use style="fill:#ff7f0e;stroke:#ff7f0e;" x="294.480372" xlink:href="#m81dffcc92d" y="241.041007"/>
     <use style="fill:#ff7f0e;stroke:#ff7f0e;" x="349.410124" xlink:href="#m81dffcc92d" y="212.29581"/>
     <use style="fill:#ff7f0e;stroke:#ff7f0e;" x="404.339876" xlink:href="#m81dffcc92d" y="246.079884"/>
     <use style="fill:#ff7f0e;stroke:#ff7f0e;" x="459.269628" xlink:href="#m81dffcc92d" y="244.190305"/>
     <use style="fill:#ff7f0e;stroke:#ff7f0e;" x="514.19938" xlink:href="#m81dffcc92d" y="231.306065"/>
     <use style="fill:#ff7f0e;stroke:#ff7f0e;" x="569.129132" xlink:href="#m81dffcc92d" y="229.52479"/>
     <use style="fill:#ff7f0e;stroke:#ff7f0e;" x="624.058884" xlink:href="#m81dffcc92d" y="240.106784"/>
     <use style="fill:#ff7f0e;stroke:#ff7f0e;" x="678.988636" xlink:href="#m81dffcc92d" y="241.948655"/>
    </g>
   </g>
   <g id="line2d_45">
    <path clip-path="url(#p47ad19c6fa)" d="M 74.761364 239.998334 
L 129.691116 236.169322 
L 184.620868 240.462217 
L 239.55062 246.301186 
L 294.480372 245.198932 
L 349.410124 247.661577 
L 404.339876 246.603348 
L 459.269628 243.90091 
L 514.19938 238.618718 
L 569.129132 234.648783 
L 624.058884 232.719287 
L 678.988636 243.770914 
" style="fill:none;stroke:#2ca02c;stroke-linecap:square;stroke-width:1.5;"/>
    <defs>
     <path d="M 0 3 
C 0.795609 3 1.55874 2.683901 2.12132 2.12132 
C 2.683901 1.55874 3 0.795609 3 0 
C 3 -0.795609 2.683901 -1.55874 2.12132 -2.12132 
C 1.55874 -2.683901 0.795609 -3 0 -3 
C -0.795609 -3 -1.55874 -2.683901 -2.12132 -2.12132 
C -2.683901 -1.55874 -3 -0.795609 -3 0 
C -3 0.795609 -2.683901 1.55874 -2.12132 2.12132 
C -1.55874 2.683901 -0.795609 3 0 3 
z
" id="m499b60d5e2" style="stroke:#2ca02c;"/>
    </defs>
    <g clip-path="url(#p47ad19c6fa)">
     <use style="fill:#2ca02c;stroke:#2ca02c;" x="74.761364" xlink:href="#m499b60d5e2" y="239.998334"/>
     <use style="fill:#2ca02c;stroke:#2ca02c;" x="129.691116" xlink:href="#m499b60d5e2" y="236.169322"/>
     <use style="fill:#2ca02c;stroke:#2ca02c;" x="184.620868" xlink:href="#m499b60d5e2" y="240.462217"/>
     <use style="fill:#2ca02c;stroke:#2ca02c;" x="239.55062" xlink:href="#m499b60d5e2" y="246.301186"/>
     <use style="fill:#2ca02c;stroke:#2ca02c;" x="294.480372" xlink:href="#m499b60d5e2" y="245.198932"/>
     <use style="fill:#2ca02c;stroke:#2ca02c;" x="349.410124" xlink:href="#m499b60d5e2" y="247.661577"/>
     <use style="fill:#2ca02c;stroke:#2ca02c;" x="404.339876" xlink:href="#m499b60d5e2" y="246.603348"/>
     <use style="fill:#2ca02c;stroke:#2ca02c;" x="459.269628" xlink:href="#m499b60d5e2" y="243.90091"/>
     <use style="fill:#2ca02c;stroke:#2ca02c;" x="514.19938" xlink:href="#m499b60d5e2" y="238.618718"/>
     <use style="fill:#2ca02c;stroke:#2ca02c;" x="569.129132" xlink:href="#m499b60d5e2" y="234.648783"/>
     <use style="fill:#2ca02c;stroke:#2ca02c;" x="624.058884" xlink:href="#m499b60d5e2" y="232.719287"/>
     <use style="fill:#2ca02c;stroke:#2ca02c;" x="678.988636" xlink:href="#m499b60d5e2" y="243.770914"/>
    </g>
   </g>
   <g id="line2d_46">
    <path clip-path="url(#p47ad19c6fa)" d="M 74.761364 273.006383 
L 129.691116 273.678193 
L 184.620868 272.848918 
L 239.55062 277.268795 
L 294.480372 276.696169 
L 349.410124 277.321626 
L 404.339876 277.526051 
L 459.269628 274.853404 
L 514.19938 271.769997 
L 569.129132 273.640498 
L 624.058884 271.003952 
L 678.988636 277.453703 
" style="fill:none;stroke:#d62728;stroke-linecap:square;stroke-width:1.5;"/>
    <defs>
     <path d="M 0 3 
C 0.795609 3 1.55874 2.683901 2.12132 2.12132 
C 2.683901 1.55874 3 0.795609 3 0 
C 3 -0.795609 2.683901 -1.55874 2.12132 -2.12132 
C 1.55874 -2.683901 0.795609 -3 0 -3 
C -0.795609 -3 -1.55874 -2.683901 -2.12132 -2.12132 
C -2.683901 -1.55874 -3 -0.795609 -3 0 
C -3 0.795609 -2.683901 1.55874 -2.12132 2.12132 
C -1.55874 2.683901 -0.795609 3 0 3 
z
" id="ma52a85b41d" style="stroke:#d62728;"/>
    </defs>
    <g clip-path="url(#p47ad19c6fa)">
     <use style="fill:#d62728;stroke:#d62728;" x="74.761364" xlink:href="#ma52a85b41d" y="273.006383"/>
     <use style="fill:#d62728;stroke:#d62728;" x="129.691116" xlink:href="#ma52a85b41d" y="273.678193"/>
     <use style="fill:#d62728;stroke:#d62728;" x="184.620868" xlink:href="#ma52a85b41d" y="272.848918"/>
     <use style="fill:#d62728;stroke:#d62728;" x="239.55062" xlink:href="#ma52a85b41d" y="277.268795"/>
     <use style="fill:#d62728;stroke:#d62728;" x="294.480372" xlink:href="#ma52a85b41d" y="276.696169"/>
     <use style="fill:#d62728;stroke:#d62728;" x="349.410124" xlink:href="#ma52a85b41d" y="277.321626"/>
     <use style="fill:#d62728;stroke:#d62728;" x="404.339876" xlink:href="#ma52a85b41d" y="277.526051"/>
     <use style="fill:#d62728;stroke:#d62728;" x="459.269628" xlink:href="#ma52a85b41d" y="274.853404"/>
     <use style="fill:#d62728;stroke:#d62728;" x="514.19938" xlink:href="#ma52a85b41d" y="271.769997"/>
     <use style="fill:#d62728;stroke:#d62728;" x="569.129132" xlink:href="#ma52a85b41d" y="273.640498"/>
     <use style="fill:#d62728;stroke:#d62728;" x="624.058884" xlink:href="#ma52a85b41d" y="271.003952"/>
     <use style="fill:#d62728;stroke:#d62728;" x="678.988636" xlink:href="#ma52a85b41d" y="277.453703"/>
    </g>
   </g>
   <g id="line2d_47">
    <path clip-path="url(#p47ad19c6fa)" d="M 74.761364 77.754154 
L 129.691116 38.739336 
L 184.620868 57.181577 
L 239.55062 69.595623 
L 294.480372 77.715852 
L 349.410124 119.463424 
L 404.339876 122.77635 
L 459.269628 135.969356 
L 514.19938 124.636432 
L 569.129132 97.309593 
L 624.058884 80.839762 
L 678.988636 100.114171 
" style="fill:none;stroke:#9467bd;stroke-linecap:square;stroke-width:1.5;"/>
    <defs>
     <path d="M 0 3 
C 0.795609 3 1.55874 2.683901 2.12132 2.12132 
C 2.683901 1.55874 3 0.795609 3 0 
C 3 -0.795609 2.683901 -1.55874 2.12132 -2.12132 
C 1.55874 -2.683901 0.795609 -3 0 -3 
C -0.795609 -3 -1.55874 -2.683901 -2.12132 -2.12132 
C -2.683901 -1.55874 -3 -0.795609 -3 0 
C -3 0.795609 -2.683901 1.55874 -2.12132 2.12132 
C -1.55874 2.683901 -0.795609 3 0 3 
z
" id="mb076060e71" style="stroke:#9467bd;"/>
    </defs>
    <g clip-path="url(#p47ad19c6fa)">
     <use style="fill:#9467bd;stroke:#9467bd;" x="74.761364" xlink:href="#mb076060e71" y="77.754154"/>
     <use style="fill:#9467bd;stroke:#9467bd;" x="129.691116" xlink:href="#mb076060e71" y="38.739336"/>
     <use style="fill:#9467bd;stroke:#9467bd;" x="184.620868" xlink:href="#mb076060e71" y="57.181577"/>
     <use style="fill:#9467bd;stroke:#9467bd;" x="239.55062" xlink:href="#mb076060e71" y="69.595623"/>
     <use style="fill:#9467bd;stroke:#9467bd;" x="294.480372" xlink:href="#mb076060e71" y="77.715852"/>
     <use style="fill:#9467bd;stroke:#9467bd;" x="349.410124" xlink:href="#mb076060e71" y="119.463424"/>
     <use style="fill:#9467bd;stroke:#9467bd;" x="404.339876" xlink:href="#mb076060e71" y="122.77635"/>
     <use style="fill:#9467bd;stroke:#9467bd;" x="459.269628" xlink:href="#mb076060e71" y="135.969356"/>
     <use style="fill:#9467bd;stroke:#9467bd;" x="514.19938" xlink:href="#mb076060e71" y="124.636432"/>
     <use style="fill:#9467bd;stroke:#9467bd;" x="569.129132" xlink:href="#mb076060e71" y="97.309593"/>
     <use style="fill:#9467bd;stroke:#9467bd;" x="624.058884" xlink:href="#mb076060e71" y="80.839762"/>
     <use style="fill:#9467bd;stroke:#9467bd;" x="678.988636" xlink:href="#mb076060e71" y="100.114171"/>
    </g>
   </g>
   <g id="line2d_48">
    <path clip-path="url(#p47ad19c6fa)" d="M 74.761364 77.324318 
L 129.691116 78.16332 
L 184.620868 104.633839 
L 239.55062 90.120359 
L 294.480372 68.199865 
L 349.410124 95.724818 
L 404.339876 87.244607 
L 459.269628 112.21769 
L 514.19938 87.029762 
L 569.129132 134.72666 
L 624.058884 89.459975 
L 678.988636 107.171075 
" style="fill:none;stroke:#8c564b;stroke-linecap:square;stroke-width:1.5;"/>
    <defs>
     <path d="M 0 3 
C 0.795609 3 1.55874 2.683901 2.12132 2.12132 
C 2.683901 1.55874 3 0.795609 3 0 
C 3 -0.795609 2.683901 -1.55874 2.12132 -2.12132 
C 1.55874 -2.683901 0.795609 -3 0 -3 
C -0.795609 -3 -1.55874 -2.683901 -2.12132 -2.12132 
C -2.683901 -1.55874 -3 -0.795609 -3 0 
C -3 0.795609 -2.683901 1.55874 -2.12132 2.12132 
C -1.55874 2.683901 -0.795609 3 0 3 
z
" id="m6145a4037f" style="stroke:#8c564b;"/>
    </defs>
    <g clip-path="url(#p47ad19c6fa)">
     <use style="fill:#8c564b;stroke:#8c564b;" x="74.761364" xlink:href="#m6145a4037f" y="77.324318"/>
     <use style="fill:#8c564b;stroke:#8c564b;" x="129.691116" xlink:href="#m6145a4037f" y="78.16332"/>
     <use style="fill:#8c564b;stroke:#8c564b;" x="184.620868" xlink:href="#m6145a4037f" y="104.633839"/>
     <use style="fill:#8c564b;stroke:#8c564b;" x="239.55062" xlink:href="#m6145a4037f" y="90.120359"/>
     <use style="fill:#8c564b;stroke:#8c564b;" x="294.480372" xlink:href="#m6145a4037f" y="68.199865"/>
     <use style="fill:#8c564b;stroke:#8c564b;" x="349.410124" xlink:href="#m6145a4037f" y="95.724818"/>
     <use style="fill:#8c564b;stroke:#8c564b;" x="404.339876" xlink:href="#m6145a4037f" y="87.244607"/>
     <use style="fill:#8c564b;stroke:#8c564b;" x="459.269628" xlink:href="#m6145a4037f" y="112.21769"/>
     <use style="fill:#8c564b;stroke:#8c564b;" x="514.19938" xlink:href="#m6145a4037f" y="87.029762"/>
     <use style="fill:#8c564b;stroke:#8c564b;" x="569.129132" xlink:href="#m6145a4037f" y="134.72666"/>
     <use style="fill:#8c564b;stroke:#8c564b;" x="624.058884" xlink:href="#m6145a4037f" y="89.459975"/>
     <use style="fill:#8c564b;stroke:#8c564b;" x="678.988636" xlink:href="#m6145a4037f" y="107.171075"/>
    </g>
   </g>
   <g id="patch_3">
    <path d="M 44.55 289.465387 
L 44.55 26.8 
" style="fill:none;stroke:#000000;stroke-linecap:square;stroke-linejoin:miter;stroke-width:0.8;"/>
   </g>
   <g id="patch_4">
    <path d="M 709.2 289.465387 
L 709.2 26.8 
" style="fill:none;stroke:#000000;stroke-linecap:square;stroke-linejoin:miter;stroke-width:0.8;"/>
   </g>
   <g id="patch_5">
    <path d="M 44.55 289.465387 
L 709.2 289.465387 
" style="fill:none;stroke:#000000;stroke-linecap:square;stroke-linejoin:miter;stroke-width:0.8;"/>
   </g>
   <g id="patch_6">
    <path d="M 44.55 26.8 
L 709.2 26.8 
" style="fill:none;stroke:#000000;stroke-linecap:square;stroke-linejoin:miter;stroke-width:0.8;"/>
   </g>
   <g id="text_23">
    <!-- Contaminantes presentes en el Noroeste -->
    <g transform="translate(254.0925 20.8)scale(0.12 -0.12)">
     <defs>
      <path d="M 64.40625 67.28125 
L 64.40625 56.890625 
Q 59.421875 61.53125 53.78125 63.8125 
Q 48.140625 66.109375 41.796875 66.109375 
Q 29.296875 66.109375 22.65625 58.46875 
Q 16.015625 50.828125 16.015625 36.375 
Q 16.015625 21.96875 22.65625 14.328125 
Q 29.296875 6.6875 41.796875 6.6875 
Q 48.140625 6.6875 53.78125 8.984375 
Q 59.421875 11.28125 64.40625 15.921875 
L 64.40625 5.609375 
Q 59.234375 2.09375 53.4375 0.328125 
Q 47.65625 -1.421875 41.21875 -1.421875 
Q 24.65625 -1.421875 15.125 8.703125 
Q 5.609375 18.84375 5.609375 36.375 
Q 5.609375 53.953125 15.125 64.078125 
Q 24.65625 74.21875 41.21875 74.21875 
Q 47.75 74.21875 53.53125 72.484375 
Q 59.328125 70.75 64.40625 67.28125 
z
" id="DejaVuSans-67"/>
      <path id="DejaVuSans-32"/>
     </defs>
     <use xlink:href="#DejaVuSans-67"/>
     <use x="69.824219" xlink:href="#DejaVuSans-111"/>
     <use x="131.005859" xlink:href="#DejaVuSans-110"/>
     <use x="194.384766" xlink:href="#DejaVuSans-116"/>
     <use x="233.59375" xlink:href="#DejaVuSans-97"/>
     <use x="294.873047" xlink:href="#DejaVuSans-109"/>
     <use x="392.285156" xlink:href="#DejaVuSans-105"/>
     <use x="420.068359" xlink:href="#DejaVuSans-110"/>
     <use x="483.447266" xlink:href="#DejaVuSans-97"/>
     <use x="544.726562" xlink:href="#DejaVuSans-110"/>
     <use x="608.105469" xlink:href="#DejaVuSans-116"/>
     <use x="647.314453" xlink:href="#DejaVuSans-101"/>
     <use x="708.837891" xlink:href="#DejaVuSans-115"/>
     <use x="760.9375" xlink:href="#DejaVuSans-32"/>
     <use x="792.724609" xlink:href="#DejaVuSans-112"/>
     <use x="856.201172" xlink:href="#DejaVuSans-114"/>
     <use x="895.064453" xlink:href="#DejaVuSans-101"/>
     <use x="956.587891" xlink:href="#DejaVuSans-115"/>
     <use x="1008.6875" xlink:href="#DejaVuSans-101"/>
     <use x="1070.210938" xlink:href="#DejaVuSans-110"/>
     <use x="1133.589844" xlink:href="#DejaVuSans-116"/>
     <use x="1172.798828" xlink:href="#DejaVuSans-101"/>
     <use x="1234.322266" xlink:href="#DejaVuSans-115"/>
     <use x="1286.421875" xlink:href="#DejaVuSans-32"/>
     <use x="1318.208984" xlink:href="#DejaVuSans-101"/>
     <use x="1379.732422" xlink:href="#DejaVuSans-110"/>
     <use x="1443.111328" xlink:href="#DejaVuSans-32"/>
     <use x="1474.898438" xlink:href="#DejaVuSans-101"/>
     <use x="1536.421875" xlink:href="#DejaVuSans-108"/>
     <use x="1564.205078" xlink:href="#DejaVuSans-32"/>
     <use x="1595.992188" xlink:href="#DejaVuSans-78"/>
     <use x="1670.796875" xlink:href="#DejaVuSans-111"/>
     <use x="1731.978516" xlink:href="#DejaVuSans-114"/>
     <use x="1770.841797" xlink:href="#DejaVuSans-111"/>
     <use x="1832.023438" xlink:href="#DejaVuSans-101"/>
     <use x="1893.546875" xlink:href="#DejaVuSans-115"/>
     <use x="1945.646484" xlink:href="#DejaVuSans-116"/>
     <use x="1984.855469" xlink:href="#DejaVuSans-101"/>
    </g>
   </g>
   <g id="legend_1">
    <g id="patch_7">
     <path d="M 558.335938 123.26875 
L 702.2 123.26875 
Q 704.2 123.26875 704.2 121.26875 
L 704.2 33.8 
Q 704.2 31.8 702.2 31.8 
L 558.335938 31.8 
Q 556.335938 31.8 556.335938 33.8 
L 556.335938 121.26875 
Q 556.335938 123.26875 558.335938 123.26875 
z
" style="fill:#ffffff;opacity:0.8;stroke:#cccccc;stroke-linejoin:miter;"/>
    </g>
    <g id="line2d_49">
     <path d="M 560.335938 39.898438 
L 580.335938 39.898438 
" style="fill:none;stroke:#1f77b4;stroke-linecap:square;stroke-width:1.5;"/>
    </g>
    <g id="line2d_50">
     <g>
      <use style="fill:#1f77b4;stroke:#1f77b4;" x="570.335938" xlink:href="#mc2b789c6d0" y="39.898438"/>
     </g>
    </g>
    <g id="text_24">
     <!--  ozono -->
     <g transform="translate(588.335938 43.398438)scale(0.1 -0.1)">
      <use xlink:href="#DejaVuSans-32"/>
      <use x="31.787109" xlink:href="#DejaVuSans-111"/>
      <use x="92.96875" xlink:href="#DejaVuSans-122"/>
      <use x="145.458984" xlink:href="#DejaVuSans-111"/>
      <use x="206.640625" xlink:href="#DejaVuSans-110"/>
      <use x="270.019531" xlink:href="#DejaVuSans-111"/>
     </g>
    </g>
    <g id="line2d_51">
     <path d="M 560.335938 54.576563 
L 580.335938 54.576563 
" style="fill:none;stroke:#ff7f0e;stroke-linecap:square;stroke-width:1.5;"/>
    </g>
    <g id="line2d_52">
     <g>
      <use style="fill:#ff7f0e;stroke:#ff7f0e;" x="570.335938" xlink:href="#m81dffcc92d" y="54.576563"/>
     </g>
    </g>
    <g id="text_25">
     <!--  dixido de azufre -->
     <g transform="translate(588.335938 58.076563)scale(0.1 -0.1)">
      <defs>
       <path d="M 45.40625 46.390625 
L 45.40625 75.984375 
L 54.390625 75.984375 
L 54.390625 0 
L 45.40625 0 
L 45.40625 8.203125 
Q 42.578125 3.328125 38.25 0.953125 
Q 33.9375 -1.421875 27.875 -1.421875 
Q 17.96875 -1.421875 11.734375 6.484375 
Q 5.515625 14.40625 5.515625 27.296875 
Q 5.515625 40.1875 11.734375 48.09375 
Q 17.96875 56 27.875 56 
Q 33.9375 56 38.25 53.625 
Q 42.578125 51.265625 45.40625 46.390625 
z
M 14.796875 27.296875 
Q 14.796875 17.390625 18.875 11.75 
Q 22.953125 6.109375 30.078125 6.109375 
Q 37.203125 6.109375 41.296875 11.75 
Q 45.40625 17.390625 45.40625 27.296875 
Q 45.40625 37.203125 41.296875 42.84375 
Q 37.203125 48.484375 30.078125 48.484375 
Q 22.953125 48.484375 18.875 42.84375 
Q 14.796875 37.203125 14.796875 27.296875 
z
" id="DejaVuSans-100"/>
       <path d="M 30.609375 48.390625 
Q 23.390625 48.390625 19.1875 42.75 
Q 14.984375 37.109375 14.984375 27.296875 
Q 14.984375 17.484375 19.15625 11.84375 
Q 23.34375 6.203125 30.609375 6.203125 
Q 37.796875 6.203125 41.984375 11.859375 
Q 46.1875 17.53125 46.1875 27.296875 
Q 46.1875 37.015625 41.984375 42.703125 
Q 37.796875 48.390625 30.609375 48.390625 
z
M 30.609375 56 
Q 42.328125 56 49.015625 48.375 
Q 55.71875 40.765625 55.71875 27.296875 
Q 55.71875 13.875 49.015625 6.21875 
Q 42.328125 -1.421875 30.609375 -1.421875 
Q 18.84375 -1.421875 12.171875 6.21875 
Q 5.515625 13.875 5.515625 27.296875 
Q 5.515625 40.765625 12.171875 48.375 
Q 18.84375 56 30.609375 56 
z
M 37.40625 79.984375 
L 47.125 79.984375 
L 31.203125 61.625 
L 23.734375 61.625 
z
" id="DejaVuSans-243"/>
       <path d="M 54.890625 54.6875 
L 35.109375 28.078125 
L 55.90625 0 
L 45.3125 0 
L 29.390625 21.484375 
L 13.484375 0 
L 2.875 0 
L 24.125 28.609375 
L 4.6875 54.6875 
L 15.28125 54.6875 
L 29.78125 35.203125 
L 44.28125 54.6875 
z
" id="DejaVuSans-120"/>
       <path d="M 37.109375 75.984375 
L 37.109375 68.5 
L 28.515625 68.5 
Q 23.6875 68.5 21.796875 66.546875 
Q 19.921875 64.59375 19.921875 59.515625 
L 19.921875 54.6875 
L 34.71875 54.6875 
L 34.71875 47.703125 
L 19.921875 47.703125 
L 19.921875 0 
L 10.890625 0 
L 10.890625 47.703125 
L 2.296875 47.703125 
L 2.296875 54.6875 
L 10.890625 54.6875 
L 10.890625 58.5 
Q 10.890625 67.625 15.140625 71.796875 
Q 19.390625 75.984375 28.609375 75.984375 
z
" id="DejaVuSans-102"/>
      </defs>
      <use xlink:href="#DejaVuSans-32"/>
      <use x="31.787109" xlink:href="#DejaVuSans-100"/>
      <use x="95.263672" xlink:href="#DejaVuSans-105"/>
      <use x="123.046875" xlink:href="#DejaVuSans-243"/>
      <use x="181.103516" xlink:href="#DejaVuSans-120"/>
      <use x="240.283203" xlink:href="#DejaVuSans-105"/>
      <use x="268.066406" xlink:href="#DejaVuSans-100"/>
      <use x="331.542969" xlink:href="#DejaVuSans-111"/>
      <use x="392.724609" xlink:href="#DejaVuSans-32"/>
      <use x="424.511719" xlink:href="#DejaVuSans-100"/>
      <use x="487.988281" xlink:href="#DejaVuSans-101"/>
      <use x="549.511719" xlink:href="#DejaVuSans-32"/>
      <use x="581.298828" xlink:href="#DejaVuSans-97"/>
      <use x="642.578125" xlink:href="#DejaVuSans-122"/>
      <use x="695.068359" xlink:href="#DejaVuSans-117"/>
      <use x="758.447266" xlink:href="#DejaVuSans-102"/>
      <use x="793.652344" xlink:href="#DejaVuSans-114"/>
      <use x="832.515625" xlink:href="#DejaVuSans-101"/>
     </g>
    </g>
    <g id="line2d_53">
     <path d="M 560.335938 69.654688 
L 580.335938 69.654688 
" style="fill:none;stroke:#2ca02c;stroke-linecap:square;stroke-width:1.5;"/>
    </g>
    <g id="line2d_54">
     <g>
      <use style="fill:#2ca02c;stroke:#2ca02c;" x="570.335938" xlink:href="#m499b60d5e2" y="69.654688"/>
     </g>
    </g>
    <g id="text_26">
     <!--  dixido de nitrgeno -->
     <g transform="translate(588.335938 73.154688)scale(0.1 -0.1)">
      <use xlink:href="#DejaVuSans-32"/>
      <use x="31.787109" xlink:href="#DejaVuSans-100"/>
      <use x="95.263672" xlink:href="#DejaVuSans-105"/>
      <use x="123.046875" xlink:href="#DejaVuSans-243"/>
      <use x="181.103516" xlink:href="#DejaVuSans-120"/>
      <use x="240.283203" xlink:href="#DejaVuSans-105"/>
      <use x="268.066406" xlink:href="#DejaVuSans-100"/>
      <use x="331.542969" xlink:href="#DejaVuSans-111"/>
      <use x="392.724609" xlink:href="#DejaVuSans-32"/>
      <use x="424.511719" xlink:href="#DejaVuSans-100"/>
      <use x="487.988281" xlink:href="#DejaVuSans-101"/>
      <use x="549.511719" xlink:href="#DejaVuSans-32"/>
      <use x="581.298828" xlink:href="#DejaVuSans-110"/>
      <use x="644.677734" xlink:href="#DejaVuSans-105"/>
      <use x="672.460938" xlink:href="#DejaVuSans-116"/>
      <use x="711.669922" xlink:href="#DejaVuSans-114"/>
      <use x="750.533203" xlink:href="#DejaVuSans-243"/>
      <use x="811.714844" xlink:href="#DejaVuSans-103"/>
      <use x="875.191406" xlink:href="#DejaVuSans-101"/>
      <use x="936.714844" xlink:href="#DejaVuSans-110"/>
      <use x="1000.09375" xlink:href="#DejaVuSans-111"/>
     </g>
    </g>
    <g id="line2d_55">
     <path d="M 560.335938 84.332812 
L 580.335938 84.332812 
" style="fill:none;stroke:#d62728;stroke-linecap:square;stroke-width:1.5;"/>
    </g>
    <g id="line2d_56">
     <g>
      <use style="fill:#d62728;stroke:#d62728;" x="570.335938" xlink:href="#ma52a85b41d" y="84.332812"/>
     </g>
    </g>
    <g id="text_27">
     <!--  monxido de carbono -->
     <g transform="translate(588.335938 87.832812)scale(0.1 -0.1)">
      <use xlink:href="#DejaVuSans-32"/>
      <use x="31.787109" xlink:href="#DejaVuSans-109"/>
      <use x="129.199219" xlink:href="#DejaVuSans-111"/>
      <use x="190.380859" xlink:href="#DejaVuSans-110"/>
      <use x="253.759766" xlink:href="#DejaVuSans-243"/>
      <use x="311.816406" xlink:href="#DejaVuSans-120"/>
      <use x="370.996094" xlink:href="#DejaVuSans-105"/>
      <use x="398.779297" xlink:href="#DejaVuSans-100"/>
      <use x="462.255859" xlink:href="#DejaVuSans-111"/>
      <use x="523.4375" xlink:href="#DejaVuSans-32"/>
      <use x="555.224609" xlink:href="#DejaVuSans-100"/>
      <use x="618.701172" xlink:href="#DejaVuSans-101"/>
      <use x="680.224609" xlink:href="#DejaVuSans-32"/>
      <use x="712.011719" xlink:href="#DejaVuSans-99"/>
      <use x="766.992188" xlink:href="#DejaVuSans-97"/>
      <use x="828.271484" xlink:href="#DejaVuSans-114"/>
      <use x="869.384766" xlink:href="#DejaVuSans-98"/>
      <use x="932.861328" xlink:href="#DejaVuSans-111"/>
      <use x="994.042969" xlink:href="#DejaVuSans-110"/>
      <use x="1057.421875" xlink:href="#DejaVuSans-111"/>
     </g>
    </g>
    <g id="line2d_57">
     <path d="M 560.335938 99.010938 
L 580.335938 99.010938 
" style="fill:none;stroke:#9467bd;stroke-linecap:square;stroke-width:1.5;"/>
    </g>
    <g id="line2d_58">
     <g>
      <use style="fill:#9467bd;stroke:#9467bd;" x="570.335938" xlink:href="#mb076060e71" y="99.010938"/>
     </g>
    </g>
    <g id="text_28">
     <!--  PM10 -->
     <g transform="translate(588.335938 102.510938)scale(0.1 -0.1)">
      <defs>
       <path d="M 19.671875 64.796875 
L 19.671875 37.40625 
L 32.078125 37.40625 
Q 38.96875 37.40625 42.71875 40.96875 
Q 46.484375 44.53125 46.484375 51.125 
Q 46.484375 57.671875 42.71875 61.234375 
Q 38.96875 64.796875 32.078125 64.796875 
z
M 9.8125 72.90625 
L 32.078125 72.90625 
Q 44.34375 72.90625 50.609375 67.359375 
Q 56.890625 61.8125 56.890625 51.125 
Q 56.890625 40.328125 50.609375 34.8125 
Q 44.34375 29.296875 32.078125 29.296875 
L 19.671875 29.296875 
L 19.671875 0 
L 9.8125 0 
z
" id="DejaVuSans-80"/>
      </defs>
      <use xlink:href="#DejaVuSans-32"/>
      <use x="31.787109" xlink:href="#DejaVuSans-80"/>
      <use x="92.089844" xlink:href="#DejaVuSans-77"/>
      <use x="178.369141" xlink:href="#DejaVuSans-49"/>
      <use x="241.992188" xlink:href="#DejaVuSans-48"/>
     </g>
    </g>
    <g id="line2d_59">
     <path d="M 560.335938 113.689063 
L 580.335938 113.689063 
" style="fill:none;stroke:#8c564b;stroke-linecap:square;stroke-width:1.5;"/>
    </g>
    <g id="line2d_60">
     <g>
      <use style="fill:#8c564b;stroke:#8c564b;" x="570.335938" xlink:href="#m6145a4037f" y="113.689063"/>
     </g>
    </g>
    <g id="text_29">
     <!--  PM25 -->
     <g transform="translate(588.335938 117.189063)scale(0.1 -0.1)">
      <use xlink:href="#DejaVuSans-32"/>
      <use x="31.787109" xlink:href="#DejaVuSans-80"/>
      <use x="92.089844" xlink:href="#DejaVuSans-77"/>
      <use x="178.369141" xlink:href="#DejaVuSans-50"/>
      <use x="241.992188" xlink:href="#DejaVuSans-53"/>
     </g>
    </g>
   </g>
  </g>
 </g>
 <defs>
  <clipPath id="p47ad19c6fa">
   <rect height="262.665387" width="664.65" x="44.55" y="26.8"/>
  </clipPath>
 </defs>
</svg>
