<?xml version="1.0" encoding="utf-8" standalone="no"?>
<!DOCTYPE svg PUBLIC "-//W3C//DTD SVG 1.1//EN"
  "http://www.w3.org/Graphics/SVG/1.1/DTD/svg11.dtd">
<!-- Created with matplotlib (https://matplotlib.org/) -->
<svg height="576pt" version="1.1" viewBox="0 0 864 576" width="864pt" xmlns="http://www.w3.org/2000/svg" xmlns:xlink="http://www.w3.org/1999/xlink">
 <metadata>
  <rdf:RDF xmlns:cc="http://creativecommons.org/ns#" xmlns:dc="http://purl.org/dc/elements/1.1/" xmlns:rdf="http://www.w3.org/1999/02/22-rdf-syntax-ns#">
   <cc:Work>
    <dc:type rdf:resource="http://purl.org/dc/dcmitype/StillImage"/>
    <dc:date>2021-01-17T20:13:10.569289</dc:date>
    <dc:format>image/svg+xml</dc:format>
    <dc:creator>
     <cc:Agent>
      <dc:title>Matplotlib v3.3.3, https://matplotlib.org/</dc:title>
     </cc:Agent>
    </dc:creator>
   </cc:Work>
  </rdf:RDF>
 </metadata>
 <defs>
  <style type="text/css">*{stroke-linecap:butt;stroke-linejoin:round;}</style>
 </defs>
 <g id="figure_1">
  <g id="patch_1">
   <path d="M 0 576 
L 864 576 
L 864 0 
L 0 0 
z
" style="fill:none;"/>
  </g>
  <g id="axes_1">
   <g id="patch_2">
    <path d="M 30.425 349.95 
L 853.2 349.95 
L 853.2 39.8 
L 30.425 39.8 
z
" style="fill:#ffffff;"/>
   </g>
   <g id="matplotlib.axis_1">
    <g id="xtick_1">
     <g id="line2d_1">
      <path clip-path="url(#pa998363a60)" d="M 67.823864 349.95 
L 67.823864 39.8 
" style="fill:none;stroke:#b0b0b0;stroke-linecap:square;stroke-width:0.8;"/>
     </g>
     <g id="line2d_2">
      <defs>
       <path d="M 0 0 
L 0 3.5 
" id="md53ff2ca6f" style="stroke:#000000;stroke-width:0.8;"/>
      </defs>
      <g>
       <use style="stroke:#000000;stroke-width:0.8;" x="67.823864" xlink:href="#md53ff2ca6f" y="349.95"/>
      </g>
     </g>
     <g id="text_1">
      <!-- Cuajimalpa -->
      <g transform="translate(73.342614 469.20625)rotate(-90)scale(0.2 -0.2)">
       <defs>
        <path d="M 64.40625 67.28125 
L 64.40625 56.890625 
Q 59.421875 61.53125 53.78125 63.8125 
Q 48.140625 66.109375 41.796875 66.109375 
Q 29.296875 66.109375 22.65625 58.46875 
Q 16.015625 50.828125 16.015625 36.375 
Q 16.015625 21.96875 22.65625 14.328125 
Q 29.296875 6.6875 41.796875 6.6875 
Q 48.140625 6.6875 53.78125 8.984375 
Q 59.421875 11.28125 64.40625 15.921875 
L 64.40625 5.609375 
Q 59.234375 2.09375 53.4375 0.328125 
Q 47.65625 -1.421875 41.21875 -1.421875 
Q 24.65625 -1.421875 15.125 8.703125 
Q 5.609375 18.84375 5.609375 36.375 
Q 5.609375 53.953125 15.125 64.078125 
Q 24.65625 74.21875 41.21875 74.21875 
Q 47.75 74.21875 53.53125 72.484375 
Q 59.328125 70.75 64.40625 67.28125 
z
" id="DejaVuSans-67"/>
        <path d="M 8.5 21.578125 
L 8.5 54.6875 
L 17.484375 54.6875 
L 17.484375 21.921875 
Q 17.484375 14.15625 20.5 10.265625 
Q 23.53125 6.390625 29.59375 6.390625 
Q 36.859375 6.390625 41.078125 11.03125 
Q 45.3125 15.671875 45.3125 23.6875 
L 45.3125 54.6875 
L 54.296875 54.6875 
L 54.296875 0 
L 45.3125 0 
L 45.3125 8.40625 
Q 42.046875 3.421875 37.71875 1 
Q 33.40625 -1.421875 27.6875 -1.421875 
Q 18.265625 -1.421875 13.375 4.4375 
Q 8.5 10.296875 8.5 21.578125 
z
M 31.109375 56 
z
" id="DejaVuSans-117"/>
        <path d="M 34.28125 27.484375 
Q 23.390625 27.484375 19.1875 25 
Q 14.984375 22.515625 14.984375 16.5 
Q 14.984375 11.71875 18.140625 8.90625 
Q 21.296875 6.109375 26.703125 6.109375 
Q 34.1875 6.109375 38.703125 11.40625 
Q 43.21875 16.703125 43.21875 25.484375 
L 43.21875 27.484375 
z
M 52.203125 31.203125 
L 52.203125 0 
L 43.21875 0 
L 43.21875 8.296875 
Q 40.140625 3.328125 35.546875 0.953125 
Q 30.953125 -1.421875 24.3125 -1.421875 
Q 15.921875 -1.421875 10.953125 3.296875 
Q 6 8.015625 6 15.921875 
Q 6 25.140625 12.171875 29.828125 
Q 18.359375 34.515625 30.609375 34.515625 
L 43.21875 34.515625 
L 43.21875 35.40625 
Q 43.21875 41.609375 39.140625 45 
Q 35.0625 48.390625 27.6875 48.390625 
Q 23 48.390625 18.546875 47.265625 
Q 14.109375 46.140625 10.015625 43.890625 
L 10.015625 52.203125 
Q 14.9375 54.109375 19.578125 55.046875 
Q 24.21875 56 28.609375 56 
Q 40.484375 56 46.34375 49.84375 
Q 52.203125 43.703125 52.203125 31.203125 
z
" id="DejaVuSans-97"/>
        <path d="M 9.421875 54.6875 
L 18.40625 54.6875 
L 18.40625 -0.984375 
Q 18.40625 -11.421875 14.421875 -16.109375 
Q 10.453125 -20.796875 1.609375 -20.796875 
L -1.8125 -20.796875 
L -1.8125 -13.1875 
L 0.59375 -13.1875 
Q 5.71875 -13.1875 7.5625 -10.8125 
Q 9.421875 -8.453125 9.421875 -0.984375 
z
M 9.421875 75.984375 
L 18.40625 75.984375 
L 18.40625 64.59375 
L 9.421875 64.59375 
z
" id="DejaVuSans-106"/>
        <path d="M 9.421875 54.6875 
L 18.40625 54.6875 
L 18.40625 0 
L 9.421875 0 
z
M 9.421875 75.984375 
L 18.40625 75.984375 
L 18.40625 64.59375 
L 9.421875 64.59375 
z
" id="DejaVuSans-105"/>
        <path d="M 52 44.1875 
Q 55.375 50.25 60.0625 53.125 
Q 64.75 56 71.09375 56 
Q 79.640625 56 84.28125 50.015625 
Q 88.921875 44.046875 88.921875 33.015625 
L 88.921875 0 
L 79.890625 0 
L 79.890625 32.71875 
Q 79.890625 40.578125 77.09375 44.375 
Q 74.3125 48.1875 68.609375 48.1875 
Q 61.625 48.1875 57.5625 43.546875 
Q 53.515625 38.921875 53.515625 30.90625 
L 53.515625 0 
L 44.484375 0 
L 44.484375 32.71875 
Q 44.484375 40.625 41.703125 44.40625 
Q 38.921875 48.1875 33.109375 48.1875 
Q 26.21875 48.1875 22.15625 43.53125 
Q 18.109375 38.875 18.109375 30.90625 
L 18.109375 0 
L 9.078125 0 
L 9.078125 54.6875 
L 18.109375 54.6875 
L 18.109375 46.1875 
Q 21.1875 51.21875 25.484375 53.609375 
Q 29.78125 56 35.6875 56 
Q 41.65625 56 45.828125 52.96875 
Q 50 49.953125 52 44.1875 
z
" id="DejaVuSans-109"/>
        <path d="M 9.421875 75.984375 
L 18.40625 75.984375 
L 18.40625 0 
L 9.421875 0 
z
" id="DejaVuSans-108"/>
        <path d="M 18.109375 8.203125 
L 18.109375 -20.796875 
L 9.078125 -20.796875 
L 9.078125 54.6875 
L 18.109375 54.6875 
L 18.109375 46.390625 
Q 20.953125 51.265625 25.265625 53.625 
Q 29.59375 56 35.59375 56 
Q 45.5625 56 51.78125 48.09375 
Q 58.015625 40.1875 58.015625 27.296875 
Q 58.015625 14.40625 51.78125 6.484375 
Q 45.5625 -1.421875 35.59375 -1.421875 
Q 29.59375 -1.421875 25.265625 0.953125 
Q 20.953125 3.328125 18.109375 8.203125 
z
M 48.6875 27.296875 
Q 48.6875 37.203125 44.609375 42.84375 
Q 40.53125 48.484375 33.40625 48.484375 
Q 26.265625 48.484375 22.1875 42.84375 
Q 18.109375 37.203125 18.109375 27.296875 
Q 18.109375 17.390625 22.1875 11.75 
Q 26.265625 6.109375 33.40625 6.109375 
Q 40.53125 6.109375 44.609375 11.75 
Q 48.6875 17.390625 48.6875 27.296875 
z
" id="DejaVuSans-112"/>
       </defs>
       <use xlink:href="#DejaVuSans-67"/>
       <use x="69.824219" xlink:href="#DejaVuSans-117"/>
       <use x="133.203125" xlink:href="#DejaVuSans-97"/>
       <use x="194.482422" xlink:href="#DejaVuSans-106"/>
       <use x="222.265625" xlink:href="#DejaVuSans-105"/>
       <use x="250.048828" xlink:href="#DejaVuSans-109"/>
       <use x="347.460938" xlink:href="#DejaVuSans-97"/>
       <use x="408.740234" xlink:href="#DejaVuSans-108"/>
       <use x="436.523438" xlink:href="#DejaVuSans-112"/>
       <use x="500" xlink:href="#DejaVuSans-97"/>
      </g>
     </g>
    </g>
    <g id="xtick_2">
     <g id="line2d_3">
      <path clip-path="url(#pa998363a60)" d="M 121.250812 349.95 
L 121.250812 39.8 
" style="fill:none;stroke:#b0b0b0;stroke-linecap:square;stroke-width:0.8;"/>
     </g>
     <g id="line2d_4">
      <g>
       <use style="stroke:#000000;stroke-width:0.8;" x="121.250812" xlink:href="#md53ff2ca6f" y="349.95"/>
      </g>
     </g>
     <g id="text_2">
      <!-- Milpa Alta -->
      <g transform="translate(126.769562 455.9625)rotate(-90)scale(0.2 -0.2)">
       <defs>
        <path d="M 9.8125 72.90625 
L 24.515625 72.90625 
L 43.109375 23.296875 
L 61.8125 72.90625 
L 76.515625 72.90625 
L 76.515625 0 
L 66.890625 0 
L 66.890625 64.015625 
L 48.09375 14.015625 
L 38.1875 14.015625 
L 19.390625 64.015625 
L 19.390625 0 
L 9.8125 0 
z
" id="DejaVuSans-77"/>
        <path id="DejaVuSans-32"/>
        <path d="M 34.1875 63.1875 
L 20.796875 26.90625 
L 47.609375 26.90625 
z
M 28.609375 72.90625 
L 39.796875 72.90625 
L 67.578125 0 
L 57.328125 0 
L 50.6875 18.703125 
L 17.828125 18.703125 
L 11.1875 0 
L 0.78125 0 
z
" id="DejaVuSans-65"/>
        <path d="M 18.3125 70.21875 
L 18.3125 54.6875 
L 36.8125 54.6875 
L 36.8125 47.703125 
L 18.3125 47.703125 
L 18.3125 18.015625 
Q 18.3125 11.328125 20.140625 9.421875 
Q 21.96875 7.515625 27.59375 7.515625 
L 36.8125 7.515625 
L 36.8125 0 
L 27.59375 0 
Q 17.1875 0 13.234375 3.875 
Q 9.28125 7.765625 9.28125 18.015625 
L 9.28125 47.703125 
L 2.6875 47.703125 
L 2.6875 54.6875 
L 9.28125 54.6875 
L 9.28125 70.21875 
z
" id="DejaVuSans-116"/>
       </defs>
       <use xlink:href="#DejaVuSans-77"/>
       <use x="86.279297" xlink:href="#DejaVuSans-105"/>
       <use x="114.0625" xlink:href="#DejaVuSans-108"/>
       <use x="141.845703" xlink:href="#DejaVuSans-112"/>
       <use x="205.322266" xlink:href="#DejaVuSans-97"/>
       <use x="266.601562" xlink:href="#DejaVuSans-32"/>
       <use x="298.388672" xlink:href="#DejaVuSans-65"/>
       <use x="366.796875" xlink:href="#DejaVuSans-108"/>
       <use x="394.580078" xlink:href="#DejaVuSans-116"/>
       <use x="433.789062" xlink:href="#DejaVuSans-97"/>
      </g>
     </g>
    </g>
    <g id="xtick_3">
     <g id="line2d_5">
      <path clip-path="url(#pa998363a60)" d="M 174.67776 349.95 
L 174.67776 39.8 
" style="fill:none;stroke:#b0b0b0;stroke-linecap:square;stroke-width:0.8;"/>
     </g>
     <g id="line2d_6">
      <g>
       <use style="stroke:#000000;stroke-width:0.8;" x="174.67776" xlink:href="#md53ff2ca6f" y="349.95"/>
      </g>
     </g>
     <g id="text_3">
      <!-- Miguel Hidalgo -->
      <g transform="translate(180.19651 505.39375)rotate(-90)scale(0.2 -0.2)">
       <defs>
        <path d="M 45.40625 27.984375 
Q 45.40625 37.75 41.375 43.109375 
Q 37.359375 48.484375 30.078125 48.484375 
Q 22.859375 48.484375 18.828125 43.109375 
Q 14.796875 37.75 14.796875 27.984375 
Q 14.796875 18.265625 18.828125 12.890625 
Q 22.859375 7.515625 30.078125 7.515625 
Q 37.359375 7.515625 41.375 12.890625 
Q 45.40625 18.265625 45.40625 27.984375 
z
M 54.390625 6.78125 
Q 54.390625 -7.171875 48.1875 -13.984375 
Q 42 -20.796875 29.203125 -20.796875 
Q 24.46875 -20.796875 20.265625 -20.09375 
Q 16.0625 -19.390625 12.109375 -17.921875 
L 12.109375 -9.1875 
Q 16.0625 -11.328125 19.921875 -12.34375 
Q 23.78125 -13.375 27.78125 -13.375 
Q 36.625 -13.375 41.015625 -8.765625 
Q 45.40625 -4.15625 45.40625 5.171875 
L 45.40625 9.625 
Q 42.625 4.78125 38.28125 2.390625 
Q 33.9375 0 27.875 0 
Q 17.828125 0 11.671875 7.65625 
Q 5.515625 15.328125 5.515625 27.984375 
Q 5.515625 40.671875 11.671875 48.328125 
Q 17.828125 56 27.875 56 
Q 33.9375 56 38.28125 53.609375 
Q 42.625 51.21875 45.40625 46.390625 
L 45.40625 54.6875 
L 54.390625 54.6875 
z
" id="DejaVuSans-103"/>
        <path d="M 56.203125 29.59375 
L 56.203125 25.203125 
L 14.890625 25.203125 
Q 15.484375 15.921875 20.484375 11.0625 
Q 25.484375 6.203125 34.421875 6.203125 
Q 39.59375 6.203125 44.453125 7.46875 
Q 49.3125 8.734375 54.109375 11.28125 
L 54.109375 2.78125 
Q 49.265625 0.734375 44.1875 -0.34375 
Q 39.109375 -1.421875 33.890625 -1.421875 
Q 20.796875 -1.421875 13.15625 6.1875 
Q 5.515625 13.8125 5.515625 26.8125 
Q 5.515625 40.234375 12.765625 48.109375 
Q 20.015625 56 32.328125 56 
Q 43.359375 56 49.78125 48.890625 
Q 56.203125 41.796875 56.203125 29.59375 
z
M 47.21875 32.234375 
Q 47.125 39.59375 43.09375 43.984375 
Q 39.0625 48.390625 32.421875 48.390625 
Q 24.90625 48.390625 20.390625 44.140625 
Q 15.875 39.890625 15.1875 32.171875 
z
" id="DejaVuSans-101"/>
        <path d="M 9.8125 72.90625 
L 19.671875 72.90625 
L 19.671875 43.015625 
L 55.515625 43.015625 
L 55.515625 72.90625 
L 65.375 72.90625 
L 65.375 0 
L 55.515625 0 
L 55.515625 34.71875 
L 19.671875 34.71875 
L 19.671875 0 
L 9.8125 0 
z
" id="DejaVuSans-72"/>
        <path d="M 45.40625 46.390625 
L 45.40625 75.984375 
L 54.390625 75.984375 
L 54.390625 0 
L 45.40625 0 
L 45.40625 8.203125 
Q 42.578125 3.328125 38.25 0.953125 
Q 33.9375 -1.421875 27.875 -1.421875 
Q 17.96875 -1.421875 11.734375 6.484375 
Q 5.515625 14.40625 5.515625 27.296875 
Q 5.515625 40.1875 11.734375 48.09375 
Q 17.96875 56 27.875 56 
Q 33.9375 56 38.25 53.625 
Q 42.578125 51.265625 45.40625 46.390625 
z
M 14.796875 27.296875 
Q 14.796875 17.390625 18.875 11.75 
Q 22.953125 6.109375 30.078125 6.109375 
Q 37.203125 6.109375 41.296875 11.75 
Q 45.40625 17.390625 45.40625 27.296875 
Q 45.40625 37.203125 41.296875 42.84375 
Q 37.203125 48.484375 30.078125 48.484375 
Q 22.953125 48.484375 18.875 42.84375 
Q 14.796875 37.203125 14.796875 27.296875 
z
" id="DejaVuSans-100"/>
        <path d="M 30.609375 48.390625 
Q 23.390625 48.390625 19.1875 42.75 
Q 14.984375 37.109375 14.984375 27.296875 
Q 14.984375 17.484375 19.15625 11.84375 
Q 23.34375 6.203125 30.609375 6.203125 
Q 37.796875 6.203125 41.984375 11.859375 
Q 46.1875 17.53125 46.1875 27.296875 
Q 46.1875 37.015625 41.984375 42.703125 
Q 37.796875 48.390625 30.609375 48.390625 
z
M 30.609375 56 
Q 42.328125 56 49.015625 48.375 
Q 55.71875 40.765625 55.71875 27.296875 
Q 55.71875 13.875 49.015625 6.21875 
Q 42.328125 -1.421875 30.609375 -1.421875 
Q 18.84375 -1.421875 12.171875 6.21875 
Q 5.515625 13.875 5.515625 27.296875 
Q 5.515625 40.765625 12.171875 48.375 
Q 18.84375 56 30.609375 56 
z
" id="DejaVuSans-111"/>
       </defs>
       <use xlink:href="#DejaVuSans-77"/>
       <use x="86.279297" xlink:href="#DejaVuSans-105"/>
       <use x="114.0625" xlink:href="#DejaVuSans-103"/>
       <use x="177.539062" xlink:href="#DejaVuSans-117"/>
       <use x="240.917969" xlink:href="#DejaVuSans-101"/>
       <use x="302.441406" xlink:href="#DejaVuSans-108"/>
       <use x="330.224609" xlink:href="#DejaVuSans-32"/>
       <use x="362.011719" xlink:href="#DejaVuSans-72"/>
       <use x="437.207031" xlink:href="#DejaVuSans-105"/>
       <use x="464.990234" xlink:href="#DejaVuSans-100"/>
       <use x="528.466797" xlink:href="#DejaVuSans-97"/>
       <use x="589.746094" xlink:href="#DejaVuSans-108"/>
       <use x="617.529297" xlink:href="#DejaVuSans-103"/>
       <use x="681.005859" xlink:href="#DejaVuSans-111"/>
      </g>
     </g>
    </g>
    <g id="xtick_4">
     <g id="line2d_7">
      <path clip-path="url(#pa998363a60)" d="M 228.104708 349.95 
L 228.104708 39.8 
" style="fill:none;stroke:#b0b0b0;stroke-linecap:square;stroke-width:0.8;"/>
     </g>
     <g id="line2d_8">
      <g>
       <use style="stroke:#000000;stroke-width:0.8;" x="228.104708" xlink:href="#md53ff2ca6f" y="349.95"/>
      </g>
     </g>
     <g id="text_4">
      <!-- Alvaro Obregon -->
      <g transform="translate(233.623458 512.775)rotate(-90)scale(0.2 -0.2)">
       <defs>
        <path d="M 2.984375 54.6875 
L 12.5 54.6875 
L 29.59375 8.796875 
L 46.6875 54.6875 
L 56.203125 54.6875 
L 35.6875 0 
L 23.484375 0 
z
" id="DejaVuSans-118"/>
        <path d="M 41.109375 46.296875 
Q 39.59375 47.171875 37.8125 47.578125 
Q 36.03125 48 33.890625 48 
Q 26.265625 48 22.1875 43.046875 
Q 18.109375 38.09375 18.109375 28.8125 
L 18.109375 0 
L 9.078125 0 
L 9.078125 54.6875 
L 18.109375 54.6875 
L 18.109375 46.1875 
Q 20.953125 51.171875 25.484375 53.578125 
Q 30.03125 56 36.53125 56 
Q 37.453125 56 38.578125 55.875 
Q 39.703125 55.765625 41.0625 55.515625 
z
" id="DejaVuSans-114"/>
        <path d="M 39.40625 66.21875 
Q 28.65625 66.21875 22.328125 58.203125 
Q 16.015625 50.203125 16.015625 36.375 
Q 16.015625 22.609375 22.328125 14.59375 
Q 28.65625 6.59375 39.40625 6.59375 
Q 50.140625 6.59375 56.421875 14.59375 
Q 62.703125 22.609375 62.703125 36.375 
Q 62.703125 50.203125 56.421875 58.203125 
Q 50.140625 66.21875 39.40625 66.21875 
z
M 39.40625 74.21875 
Q 54.734375 74.21875 63.90625 63.9375 
Q 73.09375 53.65625 73.09375 36.375 
Q 73.09375 19.140625 63.90625 8.859375 
Q 54.734375 -1.421875 39.40625 -1.421875 
Q 24.03125 -1.421875 14.8125 8.828125 
Q 5.609375 19.09375 5.609375 36.375 
Q 5.609375 53.65625 14.8125 63.9375 
Q 24.03125 74.21875 39.40625 74.21875 
z
" id="DejaVuSans-79"/>
        <path d="M 48.6875 27.296875 
Q 48.6875 37.203125 44.609375 42.84375 
Q 40.53125 48.484375 33.40625 48.484375 
Q 26.265625 48.484375 22.1875 42.84375 
Q 18.109375 37.203125 18.109375 27.296875 
Q 18.109375 17.390625 22.1875 11.75 
Q 26.265625 6.109375 33.40625 6.109375 
Q 40.53125 6.109375 44.609375 11.75 
Q 48.6875 17.390625 48.6875 27.296875 
z
M 18.109375 46.390625 
Q 20.953125 51.265625 25.265625 53.625 
Q 29.59375 56 35.59375 56 
Q 45.5625 56 51.78125 48.09375 
Q 58.015625 40.1875 58.015625 27.296875 
Q 58.015625 14.40625 51.78125 6.484375 
Q 45.5625 -1.421875 35.59375 -1.421875 
Q 29.59375 -1.421875 25.265625 0.953125 
Q 20.953125 3.328125 18.109375 8.203125 
L 18.109375 0 
L 9.078125 0 
L 9.078125 75.984375 
L 18.109375 75.984375 
z
" id="DejaVuSans-98"/>
        <path d="M 54.890625 33.015625 
L 54.890625 0 
L 45.90625 0 
L 45.90625 32.71875 
Q 45.90625 40.484375 42.875 44.328125 
Q 39.84375 48.1875 33.796875 48.1875 
Q 26.515625 48.1875 22.3125 43.546875 
Q 18.109375 38.921875 18.109375 30.90625 
L 18.109375 0 
L 9.078125 0 
L 9.078125 54.6875 
L 18.109375 54.6875 
L 18.109375 46.1875 
Q 21.34375 51.125 25.703125 53.5625 
Q 30.078125 56 35.796875 56 
Q 45.21875 56 50.046875 50.171875 
Q 54.890625 44.34375 54.890625 33.015625 
z
" id="DejaVuSans-110"/>
       </defs>
       <use xlink:href="#DejaVuSans-65"/>
       <use x="68.408203" xlink:href="#DejaVuSans-108"/>
       <use x="96.191406" xlink:href="#DejaVuSans-118"/>
       <use x="155.371094" xlink:href="#DejaVuSans-97"/>
       <use x="216.650391" xlink:href="#DejaVuSans-114"/>
       <use x="255.513672" xlink:href="#DejaVuSans-111"/>
       <use x="316.695312" xlink:href="#DejaVuSans-32"/>
       <use x="348.482422" xlink:href="#DejaVuSans-79"/>
       <use x="427.193359" xlink:href="#DejaVuSans-98"/>
       <use x="490.669922" xlink:href="#DejaVuSans-114"/>
       <use x="529.533203" xlink:href="#DejaVuSans-101"/>
       <use x="591.056641" xlink:href="#DejaVuSans-103"/>
       <use x="654.533203" xlink:href="#DejaVuSans-111"/>
       <use x="715.714844" xlink:href="#DejaVuSans-110"/>
      </g>
     </g>
    </g>
    <g id="xtick_5">
     <g id="line2d_9">
      <path clip-path="url(#pa998363a60)" d="M 281.531656 349.95 
L 281.531656 39.8 
" style="fill:none;stroke:#b0b0b0;stroke-linecap:square;stroke-width:0.8;"/>
     </g>
     <g id="line2d_10">
      <g>
       <use style="stroke:#000000;stroke-width:0.8;" x="281.531656" xlink:href="#md53ff2ca6f" y="349.95"/>
      </g>
     </g>
     <g id="text_5">
      <!-- Coyoacan -->
      <g transform="translate(287.050406 455.4125)rotate(-90)scale(0.2 -0.2)">
       <defs>
        <path d="M 32.171875 -5.078125 
Q 28.375 -14.84375 24.75 -17.8125 
Q 21.140625 -20.796875 15.09375 -20.796875 
L 7.90625 -20.796875 
L 7.90625 -13.28125 
L 13.1875 -13.28125 
Q 16.890625 -13.28125 18.9375 -11.515625 
Q 21 -9.765625 23.484375 -3.21875 
L 25.09375 0.875 
L 2.984375 54.6875 
L 12.5 54.6875 
L 29.59375 11.921875 
L 46.6875 54.6875 
L 56.203125 54.6875 
z
" id="DejaVuSans-121"/>
        <path d="M 48.78125 52.59375 
L 48.78125 44.1875 
Q 44.96875 46.296875 41.140625 47.34375 
Q 37.3125 48.390625 33.40625 48.390625 
Q 24.65625 48.390625 19.8125 42.84375 
Q 14.984375 37.3125 14.984375 27.296875 
Q 14.984375 17.28125 19.8125 11.734375 
Q 24.65625 6.203125 33.40625 6.203125 
Q 37.3125 6.203125 41.140625 7.25 
Q 44.96875 8.296875 48.78125 10.40625 
L 48.78125 2.09375 
Q 45.015625 0.34375 40.984375 -0.53125 
Q 36.96875 -1.421875 32.421875 -1.421875 
Q 20.0625 -1.421875 12.78125 6.34375 
Q 5.515625 14.109375 5.515625 27.296875 
Q 5.515625 40.671875 12.859375 48.328125 
Q 20.21875 56 33.015625 56 
Q 37.15625 56 41.109375 55.140625 
Q 45.0625 54.296875 48.78125 52.59375 
z
" id="DejaVuSans-99"/>
       </defs>
       <use xlink:href="#DejaVuSans-67"/>
       <use x="69.824219" xlink:href="#DejaVuSans-111"/>
       <use x="131.005859" xlink:href="#DejaVuSans-121"/>
       <use x="190.185547" xlink:href="#DejaVuSans-111"/>
       <use x="251.367188" xlink:href="#DejaVuSans-97"/>
       <use x="312.646484" xlink:href="#DejaVuSans-99"/>
       <use x="367.626953" xlink:href="#DejaVuSans-97"/>
       <use x="428.90625" xlink:href="#DejaVuSans-110"/>
      </g>
     </g>
    </g>
    <g id="xtick_6">
     <g id="line2d_11">
      <path clip-path="url(#pa998363a60)" d="M 334.958604 349.95 
L 334.958604 39.8 
" style="fill:none;stroke:#b0b0b0;stroke-linecap:square;stroke-width:0.8;"/>
     </g>
     <g id="line2d_12">
      <g>
       <use style="stroke:#000000;stroke-width:0.8;" x="334.958604" xlink:href="#md53ff2ca6f" y="349.95"/>
      </g>
     </g>
     <g id="text_6">
      <!-- Tlahuac -->
      <g transform="translate(340.477354 435.58125)rotate(-90)scale(0.2 -0.2)">
       <defs>
        <path d="M -0.296875 72.90625 
L 61.375 72.90625 
L 61.375 64.59375 
L 35.5 64.59375 
L 35.5 0 
L 25.59375 0 
L 25.59375 64.59375 
L -0.296875 64.59375 
z
" id="DejaVuSans-84"/>
        <path d="M 54.890625 33.015625 
L 54.890625 0 
L 45.90625 0 
L 45.90625 32.71875 
Q 45.90625 40.484375 42.875 44.328125 
Q 39.84375 48.1875 33.796875 48.1875 
Q 26.515625 48.1875 22.3125 43.546875 
Q 18.109375 38.921875 18.109375 30.90625 
L 18.109375 0 
L 9.078125 0 
L 9.078125 75.984375 
L 18.109375 75.984375 
L 18.109375 46.1875 
Q 21.34375 51.125 25.703125 53.5625 
Q 30.078125 56 35.796875 56 
Q 45.21875 56 50.046875 50.171875 
Q 54.890625 44.34375 54.890625 33.015625 
z
" id="DejaVuSans-104"/>
       </defs>
       <use xlink:href="#DejaVuSans-84"/>
       <use x="61.083984" xlink:href="#DejaVuSans-108"/>
       <use x="88.867188" xlink:href="#DejaVuSans-97"/>
       <use x="150.146484" xlink:href="#DejaVuSans-104"/>
       <use x="213.525391" xlink:href="#DejaVuSans-117"/>
       <use x="276.904297" xlink:href="#DejaVuSans-97"/>
       <use x="338.183594" xlink:href="#DejaVuSans-99"/>
      </g>
     </g>
    </g>
    <g id="xtick_7">
     <g id="line2d_13">
      <path clip-path="url(#pa998363a60)" d="M 388.385552 349.95 
L 388.385552 39.8 
" style="fill:none;stroke:#b0b0b0;stroke-linecap:square;stroke-width:0.8;"/>
     </g>
     <g id="line2d_14">
      <g>
       <use style="stroke:#000000;stroke-width:0.8;" x="388.385552" xlink:href="#md53ff2ca6f" y="349.95"/>
      </g>
     </g>
     <g id="text_7">
      <!-- Xochimilco -->
      <g transform="translate(393.904302 465.94375)rotate(-90)scale(0.2 -0.2)">
       <defs>
        <path d="M 6.296875 72.90625 
L 16.890625 72.90625 
L 35.015625 45.796875 
L 53.21875 72.90625 
L 63.8125 72.90625 
L 40.375 37.890625 
L 65.375 0 
L 54.78125 0 
L 34.28125 31 
L 13.625 0 
L 2.984375 0 
L 29 38.921875 
z
" id="DejaVuSans-88"/>
       </defs>
       <use xlink:href="#DejaVuSans-88"/>
       <use x="68.505859" xlink:href="#DejaVuSans-111"/>
       <use x="129.6875" xlink:href="#DejaVuSans-99"/>
       <use x="184.667969" xlink:href="#DejaVuSans-104"/>
       <use x="248.046875" xlink:href="#DejaVuSans-105"/>
       <use x="275.830078" xlink:href="#DejaVuSans-109"/>
       <use x="373.242188" xlink:href="#DejaVuSans-105"/>
       <use x="401.025391" xlink:href="#DejaVuSans-108"/>
       <use x="428.808594" xlink:href="#DejaVuSans-99"/>
       <use x="483.789062" xlink:href="#DejaVuSans-111"/>
      </g>
     </g>
    </g>
    <g id="xtick_8">
     <g id="line2d_15">
      <path clip-path="url(#pa998363a60)" d="M 441.8125 349.95 
L 441.8125 39.8 
" style="fill:none;stroke:#b0b0b0;stroke-linecap:square;stroke-width:0.8;"/>
     </g>
     <g id="line2d_16">
      <g>
       <use style="stroke:#000000;stroke-width:0.8;" x="441.8125" xlink:href="#md53ff2ca6f" y="349.95"/>
      </g>
     </g>
     <g id="text_8">
      <!-- Iztapalapa -->
      <g transform="translate(447.33125 461.1625)rotate(-90)scale(0.2 -0.2)">
       <defs>
        <path d="M 9.8125 72.90625 
L 19.671875 72.90625 
L 19.671875 0 
L 9.8125 0 
z
" id="DejaVuSans-73"/>
        <path d="M 5.515625 54.6875 
L 48.1875 54.6875 
L 48.1875 46.484375 
L 14.40625 7.171875 
L 48.1875 7.171875 
L 48.1875 0 
L 4.296875 0 
L 4.296875 8.203125 
L 38.09375 47.515625 
L 5.515625 47.515625 
z
" id="DejaVuSans-122"/>
       </defs>
       <use xlink:href="#DejaVuSans-73"/>
       <use x="29.492188" xlink:href="#DejaVuSans-122"/>
       <use x="81.982422" xlink:href="#DejaVuSans-116"/>
       <use x="121.191406" xlink:href="#DejaVuSans-97"/>
       <use x="182.470703" xlink:href="#DejaVuSans-112"/>
       <use x="245.947266" xlink:href="#DejaVuSans-97"/>
       <use x="307.226562" xlink:href="#DejaVuSans-108"/>
       <use x="335.009766" xlink:href="#DejaVuSans-97"/>
       <use x="396.289062" xlink:href="#DejaVuSans-112"/>
       <use x="459.765625" xlink:href="#DejaVuSans-97"/>
      </g>
     </g>
    </g>
    <g id="xtick_9">
     <g id="line2d_17">
      <path clip-path="url(#pa998363a60)" d="M 495.239448 349.95 
L 495.239448 39.8 
" style="fill:none;stroke:#b0b0b0;stroke-linecap:square;stroke-width:0.8;"/>
     </g>
     <g id="line2d_18">
      <g>
       <use style="stroke:#000000;stroke-width:0.8;" x="495.239448" xlink:href="#md53ff2ca6f" y="349.95"/>
      </g>
     </g>
     <g id="text_9">
      <!-- Benito Juarez -->
      <g transform="translate(500.758198 489.05)rotate(-90)scale(0.2 -0.2)">
       <defs>
        <path d="M 19.671875 34.8125 
L 19.671875 8.109375 
L 35.5 8.109375 
Q 43.453125 8.109375 47.28125 11.40625 
Q 51.125 14.703125 51.125 21.484375 
Q 51.125 28.328125 47.28125 31.5625 
Q 43.453125 34.8125 35.5 34.8125 
z
M 19.671875 64.796875 
L 19.671875 42.828125 
L 34.28125 42.828125 
Q 41.5 42.828125 45.03125 45.53125 
Q 48.578125 48.25 48.578125 53.8125 
Q 48.578125 59.328125 45.03125 62.0625 
Q 41.5 64.796875 34.28125 64.796875 
z
M 9.8125 72.90625 
L 35.015625 72.90625 
Q 46.296875 72.90625 52.390625 68.21875 
Q 58.5 63.53125 58.5 54.890625 
Q 58.5 48.1875 55.375 44.234375 
Q 52.25 40.28125 46.1875 39.3125 
Q 53.46875 37.75 57.5 32.78125 
Q 61.53125 27.828125 61.53125 20.40625 
Q 61.53125 10.640625 54.890625 5.3125 
Q 48.25 0 35.984375 0 
L 9.8125 0 
z
" id="DejaVuSans-66"/>
        <path d="M 9.8125 72.90625 
L 19.671875 72.90625 
L 19.671875 5.078125 
Q 19.671875 -8.109375 14.671875 -14.0625 
Q 9.671875 -20.015625 -1.421875 -20.015625 
L -5.171875 -20.015625 
L -5.171875 -11.71875 
L -2.09375 -11.71875 
Q 4.4375 -11.71875 7.125 -8.046875 
Q 9.8125 -4.390625 9.8125 5.078125 
z
" id="DejaVuSans-74"/>
       </defs>
       <use xlink:href="#DejaVuSans-66"/>
       <use x="68.603516" xlink:href="#DejaVuSans-101"/>
       <use x="130.126953" xlink:href="#DejaVuSans-110"/>
       <use x="193.505859" xlink:href="#DejaVuSans-105"/>
       <use x="221.289062" xlink:href="#DejaVuSans-116"/>
       <use x="260.498047" xlink:href="#DejaVuSans-111"/>
       <use x="321.679688" xlink:href="#DejaVuSans-32"/>
       <use x="353.466797" xlink:href="#DejaVuSans-74"/>
       <use x="382.958984" xlink:href="#DejaVuSans-117"/>
       <use x="446.337891" xlink:href="#DejaVuSans-97"/>
       <use x="507.617188" xlink:href="#DejaVuSans-114"/>
       <use x="546.480469" xlink:href="#DejaVuSans-101"/>
       <use x="608.003906" xlink:href="#DejaVuSans-122"/>
      </g>
     </g>
    </g>
    <g id="xtick_10">
     <g id="line2d_19">
      <path clip-path="url(#pa998363a60)" d="M 548.666396 349.95 
L 548.666396 39.8 
" style="fill:none;stroke:#b0b0b0;stroke-linecap:square;stroke-width:0.8;"/>
     </g>
     <g id="line2d_20">
      <g>
       <use style="stroke:#000000;stroke-width:0.8;" x="548.666396" xlink:href="#md53ff2ca6f" y="349.95"/>
      </g>
     </g>
     <g id="text_10">
      <!-- Gustavo A. Madero -->
      <g transform="translate(554.185146 546.6375)rotate(-90)scale(0.2 -0.2)">
       <defs>
        <path d="M 59.515625 10.40625 
L 59.515625 29.984375 
L 43.40625 29.984375 
L 43.40625 38.09375 
L 69.28125 38.09375 
L 69.28125 6.78125 
Q 63.578125 2.734375 56.6875 0.65625 
Q 49.8125 -1.421875 42 -1.421875 
Q 24.90625 -1.421875 15.25 8.5625 
Q 5.609375 18.5625 5.609375 36.375 
Q 5.609375 54.25 15.25 64.234375 
Q 24.90625 74.21875 42 74.21875 
Q 49.125 74.21875 55.546875 72.453125 
Q 61.96875 70.703125 67.390625 67.28125 
L 67.390625 56.78125 
Q 61.921875 61.421875 55.765625 63.765625 
Q 49.609375 66.109375 42.828125 66.109375 
Q 29.4375 66.109375 22.71875 58.640625 
Q 16.015625 51.171875 16.015625 36.375 
Q 16.015625 21.625 22.71875 14.15625 
Q 29.4375 6.6875 42.828125 6.6875 
Q 48.046875 6.6875 52.140625 7.59375 
Q 56.25 8.5 59.515625 10.40625 
z
" id="DejaVuSans-71"/>
        <path d="M 44.28125 53.078125 
L 44.28125 44.578125 
Q 40.484375 46.53125 36.375 47.5 
Q 32.28125 48.484375 27.875 48.484375 
Q 21.1875 48.484375 17.84375 46.4375 
Q 14.5 44.390625 14.5 40.28125 
Q 14.5 37.15625 16.890625 35.375 
Q 19.28125 33.59375 26.515625 31.984375 
L 29.59375 31.296875 
Q 39.15625 29.25 43.1875 25.515625 
Q 47.21875 21.78125 47.21875 15.09375 
Q 47.21875 7.46875 41.1875 3.015625 
Q 35.15625 -1.421875 24.609375 -1.421875 
Q 20.21875 -1.421875 15.453125 -0.5625 
Q 10.6875 0.296875 5.421875 2 
L 5.421875 11.28125 
Q 10.40625 8.6875 15.234375 7.390625 
Q 20.0625 6.109375 24.8125 6.109375 
Q 31.15625 6.109375 34.5625 8.28125 
Q 37.984375 10.453125 37.984375 14.40625 
Q 37.984375 18.0625 35.515625 20.015625 
Q 33.0625 21.96875 24.703125 23.78125 
L 21.578125 24.515625 
Q 13.234375 26.265625 9.515625 29.90625 
Q 5.8125 33.546875 5.8125 39.890625 
Q 5.8125 47.609375 11.28125 51.796875 
Q 16.75 56 26.8125 56 
Q 31.78125 56 36.171875 55.265625 
Q 40.578125 54.546875 44.28125 53.078125 
z
" id="DejaVuSans-115"/>
        <path d="M 10.6875 12.40625 
L 21 12.40625 
L 21 0 
L 10.6875 0 
z
" id="DejaVuSans-46"/>
       </defs>
       <use xlink:href="#DejaVuSans-71"/>
       <use x="77.490234" xlink:href="#DejaVuSans-117"/>
       <use x="140.869141" xlink:href="#DejaVuSans-115"/>
       <use x="192.96875" xlink:href="#DejaVuSans-116"/>
       <use x="232.177734" xlink:href="#DejaVuSans-97"/>
       <use x="293.457031" xlink:href="#DejaVuSans-118"/>
       <use x="352.636719" xlink:href="#DejaVuSans-111"/>
       <use x="413.818359" xlink:href="#DejaVuSans-32"/>
       <use x="445.605469" xlink:href="#DejaVuSans-65"/>
       <use x="512.263672" xlink:href="#DejaVuSans-46"/>
       <use x="544.050781" xlink:href="#DejaVuSans-32"/>
       <use x="575.837891" xlink:href="#DejaVuSans-77"/>
       <use x="662.117188" xlink:href="#DejaVuSans-97"/>
       <use x="723.396484" xlink:href="#DejaVuSans-100"/>
       <use x="786.873047" xlink:href="#DejaVuSans-101"/>
       <use x="848.396484" xlink:href="#DejaVuSans-114"/>
       <use x="887.259766" xlink:href="#DejaVuSans-111"/>
      </g>
     </g>
    </g>
    <g id="xtick_11">
     <g id="line2d_21">
      <path clip-path="url(#pa998363a60)" d="M 602.093344 349.95 
L 602.093344 39.8 
" style="fill:none;stroke:#b0b0b0;stroke-linecap:square;stroke-width:0.8;"/>
     </g>
     <g id="line2d_22">
      <g>
       <use style="stroke:#000000;stroke-width:0.8;" x="602.093344" xlink:href="#md53ff2ca6f" y="349.95"/>
      </g>
     </g>
     <g id="text_11">
      <!-- Azcapotzalco -->
      <g transform="translate(607.612094 488.7)rotate(-90)scale(0.2 -0.2)">
       <use xlink:href="#DejaVuSans-65"/>
       <use x="68.408203" xlink:href="#DejaVuSans-122"/>
       <use x="120.898438" xlink:href="#DejaVuSans-99"/>
       <use x="175.878906" xlink:href="#DejaVuSans-97"/>
       <use x="237.158203" xlink:href="#DejaVuSans-112"/>
       <use x="300.634766" xlink:href="#DejaVuSans-111"/>
       <use x="361.816406" xlink:href="#DejaVuSans-116"/>
       <use x="401.025391" xlink:href="#DejaVuSans-122"/>
       <use x="453.515625" xlink:href="#DejaVuSans-97"/>
       <use x="514.794922" xlink:href="#DejaVuSans-108"/>
       <use x="542.578125" xlink:href="#DejaVuSans-99"/>
       <use x="597.558594" xlink:href="#DejaVuSans-111"/>
      </g>
     </g>
    </g>
    <g id="xtick_12">
     <g id="line2d_23">
      <path clip-path="url(#pa998363a60)" d="M 655.520292 349.95 
L 655.520292 39.8 
" style="fill:none;stroke:#b0b0b0;stroke-linecap:square;stroke-width:0.8;"/>
     </g>
     <g id="line2d_24">
      <g>
       <use style="stroke:#000000;stroke-width:0.8;" x="655.520292" xlink:href="#md53ff2ca6f" y="349.95"/>
      </g>
     </g>
     <g id="text_12">
      <!-- Cuauhtemoc -->
      <g transform="translate(661.039042 484.059375)rotate(-90)scale(0.2 -0.2)">
       <use xlink:href="#DejaVuSans-67"/>
       <use x="69.824219" xlink:href="#DejaVuSans-117"/>
       <use x="133.203125" xlink:href="#DejaVuSans-97"/>
       <use x="194.482422" xlink:href="#DejaVuSans-117"/>
       <use x="257.861328" xlink:href="#DejaVuSans-104"/>
       <use x="321.240234" xlink:href="#DejaVuSans-116"/>
       <use x="360.449219" xlink:href="#DejaVuSans-101"/>
       <use x="421.972656" xlink:href="#DejaVuSans-109"/>
       <use x="519.384766" xlink:href="#DejaVuSans-111"/>
       <use x="580.566406" xlink:href="#DejaVuSans-99"/>
      </g>
     </g>
    </g>
    <g id="xtick_13">
     <g id="line2d_25">
      <path clip-path="url(#pa998363a60)" d="M 708.94724 349.95 
L 708.94724 39.8 
" style="fill:none;stroke:#b0b0b0;stroke-linecap:square;stroke-width:0.8;"/>
     </g>
     <g id="line2d_26">
      <g>
       <use style="stroke:#000000;stroke-width:0.8;" x="708.94724" xlink:href="#md53ff2ca6f" y="349.95"/>
      </g>
     </g>
     <g id="text_13">
      <!-- Iztacalco -->
      <g transform="translate(714.46599 445.4875)rotate(-90)scale(0.2 -0.2)">
       <use xlink:href="#DejaVuSans-73"/>
       <use x="29.492188" xlink:href="#DejaVuSans-122"/>
       <use x="81.982422" xlink:href="#DejaVuSans-116"/>
       <use x="121.191406" xlink:href="#DejaVuSans-97"/>
       <use x="182.470703" xlink:href="#DejaVuSans-99"/>
       <use x="237.451172" xlink:href="#DejaVuSans-97"/>
       <use x="298.730469" xlink:href="#DejaVuSans-108"/>
       <use x="326.513672" xlink:href="#DejaVuSans-99"/>
       <use x="381.494141" xlink:href="#DejaVuSans-111"/>
      </g>
     </g>
    </g>
    <g id="xtick_14">
     <g id="line2d_27">
      <path clip-path="url(#pa998363a60)" d="M 762.374188 349.95 
L 762.374188 39.8 
" style="fill:none;stroke:#b0b0b0;stroke-linecap:square;stroke-width:0.8;"/>
     </g>
     <g id="line2d_28">
      <g>
       <use style="stroke:#000000;stroke-width:0.8;" x="762.374188" xlink:href="#md53ff2ca6f" y="349.95"/>
      </g>
     </g>
     <g id="text_14">
      <!-- Venustiano Carranza -->
      <g transform="translate(767.892938 564.078125)rotate(-90)scale(0.2 -0.2)">
       <defs>
        <path d="M 28.609375 0 
L 0.78125 72.90625 
L 11.078125 72.90625 
L 34.1875 11.53125 
L 57.328125 72.90625 
L 67.578125 72.90625 
L 39.796875 0 
z
" id="DejaVuSans-86"/>
       </defs>
       <use xlink:href="#DejaVuSans-86"/>
       <use x="60.658203" xlink:href="#DejaVuSans-101"/>
       <use x="122.181641" xlink:href="#DejaVuSans-110"/>
       <use x="185.560547" xlink:href="#DejaVuSans-117"/>
       <use x="248.939453" xlink:href="#DejaVuSans-115"/>
       <use x="301.039062" xlink:href="#DejaVuSans-116"/>
       <use x="340.248047" xlink:href="#DejaVuSans-105"/>
       <use x="368.03125" xlink:href="#DejaVuSans-97"/>
       <use x="429.310547" xlink:href="#DejaVuSans-110"/>
       <use x="492.689453" xlink:href="#DejaVuSans-111"/>
       <use x="553.871094" xlink:href="#DejaVuSans-32"/>
       <use x="585.658203" xlink:href="#DejaVuSans-67"/>
       <use x="655.482422" xlink:href="#DejaVuSans-97"/>
       <use x="716.761719" xlink:href="#DejaVuSans-114"/>
       <use x="756.125" xlink:href="#DejaVuSans-114"/>
       <use x="797.238281" xlink:href="#DejaVuSans-97"/>
       <use x="858.517578" xlink:href="#DejaVuSans-110"/>
       <use x="921.896484" xlink:href="#DejaVuSans-122"/>
       <use x="974.386719" xlink:href="#DejaVuSans-97"/>
      </g>
     </g>
    </g>
    <g id="xtick_15">
     <g id="line2d_29">
      <path clip-path="url(#pa998363a60)" d="M 815.801136 349.95 
L 815.801136 39.8 
" style="fill:none;stroke:#b0b0b0;stroke-linecap:square;stroke-width:0.8;"/>
     </g>
     <g id="line2d_30">
      <g>
       <use style="stroke:#000000;stroke-width:0.8;" x="815.801136" xlink:href="#md53ff2ca6f" y="349.95"/>
      </g>
     </g>
     <g id="text_15">
      <!-- Tlalpan -->
      <g transform="translate(821.319886 430.1625)rotate(-90)scale(0.2 -0.2)">
       <use xlink:href="#DejaVuSans-84"/>
       <use x="61.083984" xlink:href="#DejaVuSans-108"/>
       <use x="88.867188" xlink:href="#DejaVuSans-97"/>
       <use x="150.146484" xlink:href="#DejaVuSans-108"/>
       <use x="177.929688" xlink:href="#DejaVuSans-112"/>
       <use x="241.40625" xlink:href="#DejaVuSans-97"/>
       <use x="302.685547" xlink:href="#DejaVuSans-110"/>
      </g>
     </g>
    </g>
   </g>
   <g id="matplotlib.axis_2">
    <g id="ytick_1">
     <g id="line2d_31">
      <path clip-path="url(#pa998363a60)" d="M 30.425 335.852273 
L 853.2 335.852273 
" style="fill:none;stroke:#b0b0b0;stroke-linecap:square;stroke-width:0.8;"/>
     </g>
     <g id="line2d_32">
      <defs>
       <path d="M 0 0 
L -3.5 0 
" id="m18eba88a00" style="stroke:#000000;stroke-width:0.8;"/>
      </defs>
      <g>
       <use style="stroke:#000000;stroke-width:0.8;" x="30.425" xlink:href="#m18eba88a00" y="335.852273"/>
      </g>
     </g>
     <g id="text_16">
      <!-- 0 -->
      <g transform="translate(17.0625 339.651491)scale(0.1 -0.1)">
       <defs>
        <path d="M 31.78125 66.40625 
Q 24.171875 66.40625 20.328125 58.90625 
Q 16.5 51.421875 16.5 36.375 
Q 16.5 21.390625 20.328125 13.890625 
Q 24.171875 6.390625 31.78125 6.390625 
Q 39.453125 6.390625 43.28125 13.890625 
Q 47.125 21.390625 47.125 36.375 
Q 47.125 51.421875 43.28125 58.90625 
Q 39.453125 66.40625 31.78125 66.40625 
z
M 31.78125 74.21875 
Q 44.046875 74.21875 50.515625 64.515625 
Q 56.984375 54.828125 56.984375 36.375 
Q 56.984375 17.96875 50.515625 8.265625 
Q 44.046875 -1.421875 31.78125 -1.421875 
Q 19.53125 -1.421875 13.0625 8.265625 
Q 6.59375 17.96875 6.59375 36.375 
Q 6.59375 54.828125 13.0625 64.515625 
Q 19.53125 74.21875 31.78125 74.21875 
z
" id="DejaVuSans-48"/>
       </defs>
       <use xlink:href="#DejaVuSans-48"/>
      </g>
     </g>
    </g>
    <g id="ytick_2">
     <g id="line2d_33">
      <path clip-path="url(#pa998363a60)" d="M 30.425 279.37788 
L 853.2 279.37788 
" style="fill:none;stroke:#b0b0b0;stroke-linecap:square;stroke-width:0.8;"/>
     </g>
     <g id="line2d_34">
      <g>
       <use style="stroke:#000000;stroke-width:0.8;" x="30.425" xlink:href="#m18eba88a00" y="279.37788"/>
      </g>
     </g>
     <g id="text_17">
      <!-- 10 -->
      <g transform="translate(10.7 283.177099)scale(0.1 -0.1)">
       <defs>
        <path d="M 12.40625 8.296875 
L 28.515625 8.296875 
L 28.515625 63.921875 
L 10.984375 60.40625 
L 10.984375 69.390625 
L 28.421875 72.90625 
L 38.28125 72.90625 
L 38.28125 8.296875 
L 54.390625 8.296875 
L 54.390625 0 
L 12.40625 0 
z
" id="DejaVuSans-49"/>
       </defs>
       <use xlink:href="#DejaVuSans-49"/>
       <use x="63.623047" xlink:href="#DejaVuSans-48"/>
      </g>
     </g>
    </g>
    <g id="ytick_3">
     <g id="line2d_35">
      <path clip-path="url(#pa998363a60)" d="M 30.425 222.903487 
L 853.2 222.903487 
" style="fill:none;stroke:#b0b0b0;stroke-linecap:square;stroke-width:0.8;"/>
     </g>
     <g id="line2d_36">
      <g>
       <use style="stroke:#000000;stroke-width:0.8;" x="30.425" xlink:href="#m18eba88a00" y="222.903487"/>
      </g>
     </g>
     <g id="text_18">
      <!-- 20 -->
      <g transform="translate(10.7 226.702706)scale(0.1 -0.1)">
       <defs>
        <path d="M 19.1875 8.296875 
L 53.609375 8.296875 
L 53.609375 0 
L 7.328125 0 
L 7.328125 8.296875 
Q 12.9375 14.109375 22.625 23.890625 
Q 32.328125 33.6875 34.8125 36.53125 
Q 39.546875 41.84375 41.421875 45.53125 
Q 43.3125 49.21875 43.3125 52.78125 
Q 43.3125 58.59375 39.234375 62.25 
Q 35.15625 65.921875 28.609375 65.921875 
Q 23.96875 65.921875 18.8125 64.3125 
Q 13.671875 62.703125 7.8125 59.421875 
L 7.8125 69.390625 
Q 13.765625 71.78125 18.9375 73 
Q 24.125 74.21875 28.421875 74.21875 
Q 39.75 74.21875 46.484375 68.546875 
Q 53.21875 62.890625 53.21875 53.421875 
Q 53.21875 48.921875 51.53125 44.890625 
Q 49.859375 40.875 45.40625 35.40625 
Q 44.1875 33.984375 37.640625 27.21875 
Q 31.109375 20.453125 19.1875 8.296875 
z
" id="DejaVuSans-50"/>
       </defs>
       <use xlink:href="#DejaVuSans-50"/>
       <use x="63.623047" xlink:href="#DejaVuSans-48"/>
      </g>
     </g>
    </g>
    <g id="ytick_4">
     <g id="line2d_37">
      <path clip-path="url(#pa998363a60)" d="M 30.425 166.429094 
L 853.2 166.429094 
" style="fill:none;stroke:#b0b0b0;stroke-linecap:square;stroke-width:0.8;"/>
     </g>
     <g id="line2d_38">
      <g>
       <use style="stroke:#000000;stroke-width:0.8;" x="30.425" xlink:href="#m18eba88a00" y="166.429094"/>
      </g>
     </g>
     <g id="text_19">
      <!-- 30 -->
      <g transform="translate(10.7 170.228313)scale(0.1 -0.1)">
       <defs>
        <path d="M 40.578125 39.3125 
Q 47.65625 37.796875 51.625 33 
Q 55.609375 28.21875 55.609375 21.1875 
Q 55.609375 10.40625 48.1875 4.484375 
Q 40.765625 -1.421875 27.09375 -1.421875 
Q 22.515625 -1.421875 17.65625 -0.515625 
Q 12.796875 0.390625 7.625 2.203125 
L 7.625 11.71875 
Q 11.71875 9.328125 16.59375 8.109375 
Q 21.484375 6.890625 26.8125 6.890625 
Q 36.078125 6.890625 40.9375 10.546875 
Q 45.796875 14.203125 45.796875 21.1875 
Q 45.796875 27.640625 41.28125 31.265625 
Q 36.765625 34.90625 28.71875 34.90625 
L 20.21875 34.90625 
L 20.21875 43.015625 
L 29.109375 43.015625 
Q 36.375 43.015625 40.234375 45.921875 
Q 44.09375 48.828125 44.09375 54.296875 
Q 44.09375 59.90625 40.109375 62.90625 
Q 36.140625 65.921875 28.71875 65.921875 
Q 24.65625 65.921875 20.015625 65.03125 
Q 15.375 64.15625 9.8125 62.3125 
L 9.8125 71.09375 
Q 15.4375 72.65625 20.34375 73.4375 
Q 25.25 74.21875 29.59375 74.21875 
Q 40.828125 74.21875 47.359375 69.109375 
Q 53.90625 64.015625 53.90625 55.328125 
Q 53.90625 49.265625 50.4375 45.09375 
Q 46.96875 40.921875 40.578125 39.3125 
z
" id="DejaVuSans-51"/>
       </defs>
       <use xlink:href="#DejaVuSans-51"/>
       <use x="63.623047" xlink:href="#DejaVuSans-48"/>
      </g>
     </g>
    </g>
    <g id="ytick_5">
     <g id="line2d_39">
      <path clip-path="url(#pa998363a60)" d="M 30.425 109.954701 
L 853.2 109.954701 
" style="fill:none;stroke:#b0b0b0;stroke-linecap:square;stroke-width:0.8;"/>
     </g>
     <g id="line2d_40">
      <g>
       <use style="stroke:#000000;stroke-width:0.8;" x="30.425" xlink:href="#m18eba88a00" y="109.954701"/>
      </g>
     </g>
     <g id="text_20">
      <!-- 40 -->
      <g transform="translate(10.7 113.75392)scale(0.1 -0.1)">
       <defs>
        <path d="M 37.796875 64.3125 
L 12.890625 25.390625 
L 37.796875 25.390625 
z
M 35.203125 72.90625 
L 47.609375 72.90625 
L 47.609375 25.390625 
L 58.015625 25.390625 
L 58.015625 17.1875 
L 47.609375 17.1875 
L 47.609375 0 
L 37.796875 0 
L 37.796875 17.1875 
L 4.890625 17.1875 
L 4.890625 26.703125 
z
" id="DejaVuSans-52"/>
       </defs>
       <use xlink:href="#DejaVuSans-52"/>
       <use x="63.623047" xlink:href="#DejaVuSans-48"/>
      </g>
     </g>
    </g>
    <g id="ytick_6">
     <g id="line2d_41">
      <path clip-path="url(#pa998363a60)" d="M 30.425 53.480308 
L 853.2 53.480308 
" style="fill:none;stroke:#b0b0b0;stroke-linecap:square;stroke-width:0.8;"/>
     </g>
     <g id="line2d_42">
      <g>
       <use style="stroke:#000000;stroke-width:0.8;" x="30.425" xlink:href="#m18eba88a00" y="53.480308"/>
      </g>
     </g>
     <g id="text_21">
      <!-- 50 -->
      <g transform="translate(10.7 57.279527)scale(0.1 -0.1)">
       <defs>
        <path d="M 10.796875 72.90625 
L 49.515625 72.90625 
L 49.515625 64.59375 
L 19.828125 64.59375 
L 19.828125 46.734375 
Q 21.96875 47.46875 24.109375 47.828125 
Q 26.265625 48.1875 28.421875 48.1875 
Q 40.625 48.1875 47.75 41.5 
Q 54.890625 34.8125 54.890625 23.390625 
Q 54.890625 11.625 47.5625 5.09375 
Q 40.234375 -1.421875 26.90625 -1.421875 
Q 22.3125 -1.421875 17.546875 -0.640625 
Q 12.796875 0.140625 7.71875 1.703125 
L 7.71875 11.625 
Q 12.109375 9.234375 16.796875 8.0625 
Q 21.484375 6.890625 26.703125 6.890625 
Q 35.15625 6.890625 40.078125 11.328125 
Q 45.015625 15.765625 45.015625 23.390625 
Q 45.015625 31 40.078125 35.4375 
Q 35.15625 39.890625 26.703125 39.890625 
Q 22.75 39.890625 18.8125 39.015625 
Q 14.890625 38.140625 10.796875 36.28125 
z
" id="DejaVuSans-53"/>
       </defs>
       <use xlink:href="#DejaVuSans-53"/>
       <use x="63.623047" xlink:href="#DejaVuSans-48"/>
      </g>
     </g>
    </g>
   </g>
   <g id="line2d_43">
    <path clip-path="url(#pa998363a60)" d="M 67.823864 229.339989 
L 121.250812 300.429513 
L 174.67776 204.852155 
L 228.104708 220.77129 
L 281.531656 225.772206 
L 334.958604 249.024308 
L 388.385552 226.794268 
L 441.8125 194.407382 
L 495.239448 199.656533 
L 548.666396 192.012674 
L 602.093344 176.733983 
L 655.520292 182.656694 
L 708.94724 175.74557 
L 762.374188 169.050316 
L 815.801136 335.852273 
" style="fill:none;stroke:#1f77b4;stroke-linecap:square;stroke-width:1.5;"/>
    <defs>
     <path d="M 0 3 
C 0.795609 3 1.55874 2.683901 2.12132 2.12132 
C 2.683901 1.55874 3 0.795609 3 0 
C 3 -0.795609 2.683901 -1.55874 2.12132 -2.12132 
C 1.55874 -2.683901 0.795609 -3 0 -3 
C -0.795609 -3 -1.55874 -2.683901 -2.12132 -2.12132 
C -2.683901 -1.55874 -3 -0.795609 -3 0 
C -3 0.795609 -2.683901 1.55874 -2.12132 2.12132 
C -1.55874 2.683901 -0.795609 3 0 3 
z
" id="md6d87e23cf" style="stroke:#1f77b4;"/>
    </defs>
    <g clip-path="url(#pa998363a60)">
     <use style="fill:#1f77b4;stroke:#1f77b4;" x="67.823864" xlink:href="#md6d87e23cf" y="229.339989"/>
     <use style="fill:#1f77b4;stroke:#1f77b4;" x="121.250812" xlink:href="#md6d87e23cf" y="300.429513"/>
     <use style="fill:#1f77b4;stroke:#1f77b4;" x="174.67776" xlink:href="#md6d87e23cf" y="204.852155"/>
     <use style="fill:#1f77b4;stroke:#1f77b4;" x="228.104708" xlink:href="#md6d87e23cf" y="220.77129"/>
     <use style="fill:#1f77b4;stroke:#1f77b4;" x="281.531656" xlink:href="#md6d87e23cf" y="225.772206"/>
     <use style="fill:#1f77b4;stroke:#1f77b4;" x="334.958604" xlink:href="#md6d87e23cf" y="249.024308"/>
     <use style="fill:#1f77b4;stroke:#1f77b4;" x="388.385552" xlink:href="#md6d87e23cf" y="226.794268"/>
     <use style="fill:#1f77b4;stroke:#1f77b4;" x="441.8125" xlink:href="#md6d87e23cf" y="194.407382"/>
     <use style="fill:#1f77b4;stroke:#1f77b4;" x="495.239448" xlink:href="#md6d87e23cf" y="199.656533"/>
     <use style="fill:#1f77b4;stroke:#1f77b4;" x="548.666396" xlink:href="#md6d87e23cf" y="192.012674"/>
     <use style="fill:#1f77b4;stroke:#1f77b4;" x="602.093344" xlink:href="#md6d87e23cf" y="176.733983"/>
     <use style="fill:#1f77b4;stroke:#1f77b4;" x="655.520292" xlink:href="#md6d87e23cf" y="182.656694"/>
     <use style="fill:#1f77b4;stroke:#1f77b4;" x="708.94724" xlink:href="#md6d87e23cf" y="175.74557"/>
     <use style="fill:#1f77b4;stroke:#1f77b4;" x="762.374188" xlink:href="#md6d87e23cf" y="169.050316"/>
     <use style="fill:#1f77b4;stroke:#1f77b4;" x="815.801136" xlink:href="#md6d87e23cf" y="335.852273"/>
    </g>
   </g>
   <g id="line2d_44">
    <path clip-path="url(#pa998363a60)" d="M 67.823864 196.653141 
L 121.250812 125.820225 
L 174.67776 198.052411 
L 228.104708 190.085718 
L 281.531656 216.89819 
L 334.958604 184.672926 
L 388.385552 196.775709 
L 441.8125 227.377747 
L 495.239448 213.073219 
L 548.666396 209.522004 
L 602.093344 220.901008 
L 655.520292 210.038573 
L 708.94724 231.602946 
L 762.374188 223.589729 
L 815.801136 196.370259 
" style="fill:none;stroke:#ff7f0e;stroke-linecap:square;stroke-width:1.5;"/>
    <defs>
     <path d="M 0 3 
C 0.795609 3 1.55874 2.683901 2.12132 2.12132 
C 2.683901 1.55874 3 0.795609 3 0 
C 3 -0.795609 2.683901 -1.55874 2.12132 -2.12132 
C 1.55874 -2.683901 0.795609 -3 0 -3 
C -0.795609 -3 -1.55874 -2.683901 -2.12132 -2.12132 
C -2.683901 -1.55874 -3 -0.795609 -3 0 
C -3 0.795609 -2.683901 1.55874 -2.12132 2.12132 
C -1.55874 2.683901 -0.795609 3 0 3 
z
" id="m790d3d868b" style="stroke:#ff7f0e;"/>
    </defs>
    <g clip-path="url(#pa998363a60)">
     <use style="fill:#ff7f0e;stroke:#ff7f0e;" x="67.823864" xlink:href="#m790d3d868b" y="196.653141"/>
     <use style="fill:#ff7f0e;stroke:#ff7f0e;" x="121.250812" xlink:href="#m790d3d868b" y="125.820225"/>
     <use style="fill:#ff7f0e;stroke:#ff7f0e;" x="174.67776" xlink:href="#m790d3d868b" y="198.052411"/>
     <use style="fill:#ff7f0e;stroke:#ff7f0e;" x="228.104708" xlink:href="#m790d3d868b" y="190.085718"/>
     <use style="fill:#ff7f0e;stroke:#ff7f0e;" x="281.531656" xlink:href="#m790d3d868b" y="216.89819"/>
     <use style="fill:#ff7f0e;stroke:#ff7f0e;" x="334.958604" xlink:href="#m790d3d868b" y="184.672926"/>
     <use style="fill:#ff7f0e;stroke:#ff7f0e;" x="388.385552" xlink:href="#m790d3d868b" y="196.775709"/>
     <use style="fill:#ff7f0e;stroke:#ff7f0e;" x="441.8125" xlink:href="#m790d3d868b" y="227.377747"/>
     <use style="fill:#ff7f0e;stroke:#ff7f0e;" x="495.239448" xlink:href="#m790d3d868b" y="213.073219"/>
     <use style="fill:#ff7f0e;stroke:#ff7f0e;" x="548.666396" xlink:href="#m790d3d868b" y="209.522004"/>
     <use style="fill:#ff7f0e;stroke:#ff7f0e;" x="602.093344" xlink:href="#m790d3d868b" y="220.901008"/>
     <use style="fill:#ff7f0e;stroke:#ff7f0e;" x="655.520292" xlink:href="#m790d3d868b" y="210.038573"/>
     <use style="fill:#ff7f0e;stroke:#ff7f0e;" x="708.94724" xlink:href="#m790d3d868b" y="231.602946"/>
     <use style="fill:#ff7f0e;stroke:#ff7f0e;" x="762.374188" xlink:href="#m790d3d868b" y="223.589729"/>
     <use style="fill:#ff7f0e;stroke:#ff7f0e;" x="815.801136" xlink:href="#m790d3d868b" y="196.370259"/>
    </g>
   </g>
   <g id="line2d_45">
    <path clip-path="url(#pa998363a60)" d="M 67.823864 321.840096 
L 121.250812 325.489049 
L 174.67776 311.131973 
L 228.104708 317.549959 
L 281.531656 316.662162 
L 334.958604 324.274456 
L 388.385552 320.27159 
L 441.8125 313.791454 
L 495.239448 312.884537 
L 548.666396 335.852273 
L 602.093344 301.495142 
L 655.520292 324.422931 
L 708.94724 304.592673 
L 762.374188 295.251459 
L 815.801136 335.852273 
" style="fill:none;stroke:#2ca02c;stroke-linecap:square;stroke-width:1.5;"/>
    <defs>
     <path d="M 0 3 
C 0.795609 3 1.55874 2.683901 2.12132 2.12132 
C 2.683901 1.55874 3 0.795609 3 0 
C 3 -0.795609 2.683901 -1.55874 2.12132 -2.12132 
C 1.55874 -2.683901 0.795609 -3 0 -3 
C -0.795609 -3 -1.55874 -2.683901 -2.12132 -2.12132 
C -2.683901 -1.55874 -3 -0.795609 -3 0 
C -3 0.795609 -2.683901 1.55874 -2.12132 2.12132 
C -1.55874 2.683901 -0.795609 3 0 3 
z
" id="mc71e5cb36b" style="stroke:#2ca02c;"/>
    </defs>
    <g clip-path="url(#pa998363a60)">
     <use style="fill:#2ca02c;stroke:#2ca02c;" x="67.823864" xlink:href="#mc71e5cb36b" y="321.840096"/>
     <use style="fill:#2ca02c;stroke:#2ca02c;" x="121.250812" xlink:href="#mc71e5cb36b" y="325.489049"/>
     <use style="fill:#2ca02c;stroke:#2ca02c;" x="174.67776" xlink:href="#mc71e5cb36b" y="311.131973"/>
     <use style="fill:#2ca02c;stroke:#2ca02c;" x="228.104708" xlink:href="#mc71e5cb36b" y="317.549959"/>
     <use style="fill:#2ca02c;stroke:#2ca02c;" x="281.531656" xlink:href="#mc71e5cb36b" y="316.662162"/>
     <use style="fill:#2ca02c;stroke:#2ca02c;" x="334.958604" xlink:href="#mc71e5cb36b" y="324.274456"/>
     <use style="fill:#2ca02c;stroke:#2ca02c;" x="388.385552" xlink:href="#mc71e5cb36b" y="320.27159"/>
     <use style="fill:#2ca02c;stroke:#2ca02c;" x="441.8125" xlink:href="#mc71e5cb36b" y="313.791454"/>
     <use style="fill:#2ca02c;stroke:#2ca02c;" x="495.239448" xlink:href="#mc71e5cb36b" y="312.884537"/>
     <use style="fill:#2ca02c;stroke:#2ca02c;" x="548.666396" xlink:href="#mc71e5cb36b" y="335.852273"/>
     <use style="fill:#2ca02c;stroke:#2ca02c;" x="602.093344" xlink:href="#mc71e5cb36b" y="301.495142"/>
     <use style="fill:#2ca02c;stroke:#2ca02c;" x="655.520292" xlink:href="#mc71e5cb36b" y="324.422931"/>
     <use style="fill:#2ca02c;stroke:#2ca02c;" x="708.94724" xlink:href="#mc71e5cb36b" y="304.592673"/>
     <use style="fill:#2ca02c;stroke:#2ca02c;" x="762.374188" xlink:href="#mc71e5cb36b" y="295.251459"/>
     <use style="fill:#2ca02c;stroke:#2ca02c;" x="815.801136" xlink:href="#mc71e5cb36b" y="335.852273"/>
    </g>
   </g>
   <g id="line2d_46">
    <path clip-path="url(#pa998363a60)" d="M 67.823864 174.410656 
M 174.67776 204.557109 
L 228.104708 175.768647 
L 281.531656 335.852273 
L 334.958604 53.897727 
L 388.385552 335.852273 
L 441.8125 96.29002 
L 495.239448 106.88134 
L 548.666396 79.640554 
L 602.093344 76.407946 
L 655.520292 124.558314 
L 708.94724 143.429789 
L 762.374188 55.168334 
L 815.801136 335.852273 
" style="fill:none;stroke:#d62728;stroke-linecap:square;stroke-width:1.5;"/>
    <defs>
     <path d="M 0 3 
C 0.795609 3 1.55874 2.683901 2.12132 2.12132 
C 2.683901 1.55874 3 0.795609 3 0 
C 3 -0.795609 2.683901 -1.55874 2.12132 -2.12132 
C 1.55874 -2.683901 0.795609 -3 0 -3 
C -0.795609 -3 -1.55874 -2.683901 -2.12132 -2.12132 
C -2.683901 -1.55874 -3 -0.795609 -3 0 
C -3 0.795609 -2.683901 1.55874 -2.12132 2.12132 
C -1.55874 2.683901 -0.795609 3 0 3 
z
" id="md6329ca00d" style="stroke:#d62728;"/>
    </defs>
    <g clip-path="url(#pa998363a60)">
     <use style="fill:#d62728;stroke:#d62728;" x="67.823864" xlink:href="#md6329ca00d" y="174.410656"/>
     <use style="fill:#d62728;stroke:#d62728;" x="174.67776" xlink:href="#md6329ca00d" y="204.557109"/>
     <use style="fill:#d62728;stroke:#d62728;" x="228.104708" xlink:href="#md6329ca00d" y="175.768647"/>
     <use style="fill:#d62728;stroke:#d62728;" x="281.531656" xlink:href="#md6329ca00d" y="335.852273"/>
     <use style="fill:#d62728;stroke:#d62728;" x="334.958604" xlink:href="#md6329ca00d" y="53.897727"/>
     <use style="fill:#d62728;stroke:#d62728;" x="388.385552" xlink:href="#md6329ca00d" y="335.852273"/>
     <use style="fill:#d62728;stroke:#d62728;" x="441.8125" xlink:href="#md6329ca00d" y="96.29002"/>
     <use style="fill:#d62728;stroke:#d62728;" x="495.239448" xlink:href="#md6329ca00d" y="106.88134"/>
     <use style="fill:#d62728;stroke:#d62728;" x="548.666396" xlink:href="#md6329ca00d" y="79.640554"/>
     <use style="fill:#d62728;stroke:#d62728;" x="602.093344" xlink:href="#md6329ca00d" y="76.407946"/>
     <use style="fill:#d62728;stroke:#d62728;" x="655.520292" xlink:href="#md6329ca00d" y="124.558314"/>
     <use style="fill:#d62728;stroke:#d62728;" x="708.94724" xlink:href="#md6329ca00d" y="143.429789"/>
     <use style="fill:#d62728;stroke:#d62728;" x="762.374188" xlink:href="#md6329ca00d" y="55.168334"/>
     <use style="fill:#d62728;stroke:#d62728;" x="815.801136" xlink:href="#md6329ca00d" y="335.852273"/>
    </g>
   </g>
   <g id="line2d_47">
    <path clip-path="url(#pa998363a60)" d="M 67.823864 257.832669 
M 174.67776 267.739787 
L 228.104708 252.417396 
L 281.531656 254.093008 
L 334.958604 335.852273 
L 388.385552 244.379351 
L 441.8125 223.194415 
L 495.239448 239.690472 
L 548.666396 217.151033 
L 602.093344 239.990611 
L 655.520292 223.71406 
L 708.94724 335.852273 
L 762.374188 222.084298 
L 815.801136 262.337223 
" style="fill:none;stroke:#9467bd;stroke-linecap:square;stroke-width:1.5;"/>
    <defs>
     <path d="M 0 3 
C 0.795609 3 1.55874 2.683901 2.12132 2.12132 
C 2.683901 1.55874 3 0.795609 3 0 
C 3 -0.795609 2.683901 -1.55874 2.12132 -2.12132 
C 1.55874 -2.683901 0.795609 -3 0 -3 
C -0.795609 -3 -1.55874 -2.683901 -2.12132 -2.12132 
C -2.683901 -1.55874 -3 -0.795609 -3 0 
C -3 0.795609 -2.683901 1.55874 -2.12132 2.12132 
C -1.55874 2.683901 -0.795609 3 0 3 
z
" id="m01360b0a94" style="stroke:#9467bd;"/>
    </defs>
    <g clip-path="url(#pa998363a60)">
     <use style="fill:#9467bd;stroke:#9467bd;" x="67.823864" xlink:href="#m01360b0a94" y="257.832669"/>
     <use style="fill:#9467bd;stroke:#9467bd;" x="174.67776" xlink:href="#m01360b0a94" y="267.739787"/>
     <use style="fill:#9467bd;stroke:#9467bd;" x="228.104708" xlink:href="#m01360b0a94" y="252.417396"/>
     <use style="fill:#9467bd;stroke:#9467bd;" x="281.531656" xlink:href="#m01360b0a94" y="254.093008"/>
     <use style="fill:#9467bd;stroke:#9467bd;" x="334.958604" xlink:href="#m01360b0a94" y="335.852273"/>
     <use style="fill:#9467bd;stroke:#9467bd;" x="388.385552" xlink:href="#m01360b0a94" y="244.379351"/>
     <use style="fill:#9467bd;stroke:#9467bd;" x="441.8125" xlink:href="#m01360b0a94" y="223.194415"/>
     <use style="fill:#9467bd;stroke:#9467bd;" x="495.239448" xlink:href="#m01360b0a94" y="239.690472"/>
     <use style="fill:#9467bd;stroke:#9467bd;" x="548.666396" xlink:href="#m01360b0a94" y="217.151033"/>
     <use style="fill:#9467bd;stroke:#9467bd;" x="602.093344" xlink:href="#m01360b0a94" y="239.990611"/>
     <use style="fill:#9467bd;stroke:#9467bd;" x="655.520292" xlink:href="#m01360b0a94" y="223.71406"/>
     <use style="fill:#9467bd;stroke:#9467bd;" x="708.94724" xlink:href="#m01360b0a94" y="335.852273"/>
     <use style="fill:#9467bd;stroke:#9467bd;" x="762.374188" xlink:href="#m01360b0a94" y="222.084298"/>
     <use style="fill:#9467bd;stroke:#9467bd;" x="815.801136" xlink:href="#m01360b0a94" y="262.337223"/>
    </g>
   </g>
   <g id="line2d_48">
    <path clip-path="url(#pa998363a60)" d="M 67.823864 334.362617 
L 121.250812 335.286362 
L 174.67776 334.03314 
L 228.104708 334.173024 
L 281.531656 333.727285 
L 334.958604 333.664327 
L 388.385552 333.504552 
L 441.8125 333.457462 
L 495.239448 333.51925 
L 548.666396 335.852273 
L 602.093344 332.91516 
L 655.520292 333.880317 
L 708.94724 332.68708 
L 762.374188 332.86743 
L 815.801136 335.852273 
" style="fill:none;stroke:#8c564b;stroke-linecap:square;stroke-width:1.5;"/>
    <defs>
     <path d="M 0 3 
C 0.795609 3 1.55874 2.683901 2.12132 2.12132 
C 2.683901 1.55874 3 0.795609 3 0 
C 3 -0.795609 2.683901 -1.55874 2.12132 -2.12132 
C 1.55874 -2.683901 0.795609 -3 0 -3 
C -0.795609 -3 -1.55874 -2.683901 -2.12132 -2.12132 
C -2.683901 -1.55874 -3 -0.795609 -3 0 
C -3 0.795609 -2.683901 1.55874 -2.12132 2.12132 
C -1.55874 2.683901 -0.795609 3 0 3 
z
" id="m3d11e3f30e" style="stroke:#8c564b;"/>
    </defs>
    <g clip-path="url(#pa998363a60)">
     <use style="fill:#8c564b;stroke:#8c564b;" x="67.823864" xlink:href="#m3d11e3f30e" y="334.362617"/>
     <use style="fill:#8c564b;stroke:#8c564b;" x="121.250812" xlink:href="#m3d11e3f30e" y="335.286362"/>
     <use style="fill:#8c564b;stroke:#8c564b;" x="174.67776" xlink:href="#m3d11e3f30e" y="334.03314"/>
     <use style="fill:#8c564b;stroke:#8c564b;" x="228.104708" xlink:href="#m3d11e3f30e" y="334.173024"/>
     <use style="fill:#8c564b;stroke:#8c564b;" x="281.531656" xlink:href="#m3d11e3f30e" y="333.727285"/>
     <use style="fill:#8c564b;stroke:#8c564b;" x="334.958604" xlink:href="#m3d11e3f30e" y="333.664327"/>
     <use style="fill:#8c564b;stroke:#8c564b;" x="388.385552" xlink:href="#m3d11e3f30e" y="333.504552"/>
     <use style="fill:#8c564b;stroke:#8c564b;" x="441.8125" xlink:href="#m3d11e3f30e" y="333.457462"/>
     <use style="fill:#8c564b;stroke:#8c564b;" x="495.239448" xlink:href="#m3d11e3f30e" y="333.51925"/>
     <use style="fill:#8c564b;stroke:#8c564b;" x="548.666396" xlink:href="#m3d11e3f30e" y="335.852273"/>
     <use style="fill:#8c564b;stroke:#8c564b;" x="602.093344" xlink:href="#m3d11e3f30e" y="332.91516"/>
     <use style="fill:#8c564b;stroke:#8c564b;" x="655.520292" xlink:href="#m3d11e3f30e" y="333.880317"/>
     <use style="fill:#8c564b;stroke:#8c564b;" x="708.94724" xlink:href="#m3d11e3f30e" y="332.68708"/>
     <use style="fill:#8c564b;stroke:#8c564b;" x="762.374188" xlink:href="#m3d11e3f30e" y="332.86743"/>
     <use style="fill:#8c564b;stroke:#8c564b;" x="815.801136" xlink:href="#m3d11e3f30e" y="335.852273"/>
    </g>
   </g>
   <g id="line2d_49">
    <path clip-path="url(#pa998363a60)" d="M 67.823864 280.493841 
L 121.250812 335.852273 
L 174.67776 224.763218 
L 228.104708 293.000886 
L 281.531656 265.034284 
L 334.958604 292.245893 
L 388.385552 282.107233 
L 441.8125 239.975259 
L 495.239448 335.852273 
L 548.666396 335.852273 
L 602.093344 184.361401 
L 655.520292 243.876342 
L 708.94724 228.622868 
L 762.374188 182.201424 
L 815.801136 335.852273 
" style="fill:none;stroke:#e377c2;stroke-linecap:square;stroke-width:1.5;"/>
    <defs>
     <path d="M 0 3 
C 0.795609 3 1.55874 2.683901 2.12132 2.12132 
C 2.683901 1.55874 3 0.795609 3 0 
C 3 -0.795609 2.683901 -1.55874 2.12132 -2.12132 
C 1.55874 -2.683901 0.795609 -3 0 -3 
C -0.795609 -3 -1.55874 -2.683901 -2.12132 -2.12132 
C -2.683901 -1.55874 -3 -0.795609 -3 0 
C -3 0.795609 -2.683901 1.55874 -2.12132 2.12132 
C -1.55874 2.683901 -0.795609 3 0 3 
z
" id="m2f573d83e0" style="stroke:#e377c2;"/>
    </defs>
    <g clip-path="url(#pa998363a60)">
     <use style="fill:#e377c2;stroke:#e377c2;" x="67.823864" xlink:href="#m2f573d83e0" y="280.493841"/>
     <use style="fill:#e377c2;stroke:#e377c2;" x="121.250812" xlink:href="#m2f573d83e0" y="335.852273"/>
     <use style="fill:#e377c2;stroke:#e377c2;" x="174.67776" xlink:href="#m2f573d83e0" y="224.763218"/>
     <use style="fill:#e377c2;stroke:#e377c2;" x="228.104708" xlink:href="#m2f573d83e0" y="293.000886"/>
     <use style="fill:#e377c2;stroke:#e377c2;" x="281.531656" xlink:href="#m2f573d83e0" y="265.034284"/>
     <use style="fill:#e377c2;stroke:#e377c2;" x="334.958604" xlink:href="#m2f573d83e0" y="292.245893"/>
     <use style="fill:#e377c2;stroke:#e377c2;" x="388.385552" xlink:href="#m2f573d83e0" y="282.107233"/>
     <use style="fill:#e377c2;stroke:#e377c2;" x="441.8125" xlink:href="#m2f573d83e0" y="239.975259"/>
     <use style="fill:#e377c2;stroke:#e377c2;" x="495.239448" xlink:href="#m2f573d83e0" y="335.852273"/>
     <use style="fill:#e377c2;stroke:#e377c2;" x="548.666396" xlink:href="#m2f573d83e0" y="335.852273"/>
     <use style="fill:#e377c2;stroke:#e377c2;" x="602.093344" xlink:href="#m2f573d83e0" y="184.361401"/>
     <use style="fill:#e377c2;stroke:#e377c2;" x="655.520292" xlink:href="#m2f573d83e0" y="243.876342"/>
     <use style="fill:#e377c2;stroke:#e377c2;" x="708.94724" xlink:href="#m2f573d83e0" y="228.622868"/>
     <use style="fill:#e377c2;stroke:#e377c2;" x="762.374188" xlink:href="#m2f573d83e0" y="182.201424"/>
     <use style="fill:#e377c2;stroke:#e377c2;" x="815.801136" xlink:href="#m2f573d83e0" y="335.852273"/>
    </g>
   </g>
   <g id="patch_3">
    <path d="M 30.425 349.95 
L 30.425 39.8 
" style="fill:none;stroke:#000000;stroke-linecap:square;stroke-linejoin:miter;stroke-width:0.8;"/>
   </g>
   <g id="patch_4">
    <path d="M 853.2 349.95 
L 853.2 39.8 
" style="fill:none;stroke:#000000;stroke-linecap:square;stroke-linejoin:miter;stroke-width:0.8;"/>
   </g>
   <g id="patch_5">
    <path d="M 30.425 349.95 
L 853.2 349.95 
" style="fill:none;stroke:#000000;stroke-linecap:square;stroke-linejoin:miter;stroke-width:0.8;"/>
   </g>
   <g id="patch_6">
    <path d="M 30.425 39.8 
L 853.2 39.8 
" style="fill:none;stroke:#000000;stroke-linecap:square;stroke-linejoin:miter;stroke-width:0.8;"/>
   </g>
   <g id="text_22">
    <!-- Contaminantes Enero2020 -->
    <g transform="translate(241.510937 33.560937)scale(0.3 -0.3)">
     <defs>
      <path d="M 9.8125 72.90625 
L 55.90625 72.90625 
L 55.90625 64.59375 
L 19.671875 64.59375 
L 19.671875 43.015625 
L 54.390625 43.015625 
L 54.390625 34.71875 
L 19.671875 34.71875 
L 19.671875 8.296875 
L 56.78125 8.296875 
L 56.78125 0 
L 9.8125 0 
z
" id="DejaVuSans-69"/>
     </defs>
     <use xlink:href="#DejaVuSans-67"/>
     <use x="69.824219" xlink:href="#DejaVuSans-111"/>
     <use x="131.005859" xlink:href="#DejaVuSans-110"/>
     <use x="194.384766" xlink:href="#DejaVuSans-116"/>
     <use x="233.59375" xlink:href="#DejaVuSans-97"/>
     <use x="294.873047" xlink:href="#DejaVuSans-109"/>
     <use x="392.285156" xlink:href="#DejaVuSans-105"/>
     <use x="420.068359" xlink:href="#DejaVuSans-110"/>
     <use x="483.447266" xlink:href="#DejaVuSans-97"/>
     <use x="544.726562" xlink:href="#DejaVuSans-110"/>
     <use x="608.105469" xlink:href="#DejaVuSans-116"/>
     <use x="647.314453" xlink:href="#DejaVuSans-101"/>
     <use x="708.837891" xlink:href="#DejaVuSans-115"/>
     <use x="760.9375" xlink:href="#DejaVuSans-32"/>
     <use x="792.724609" xlink:href="#DejaVuSans-69"/>
     <use x="855.908203" xlink:href="#DejaVuSans-110"/>
     <use x="919.287109" xlink:href="#DejaVuSans-101"/>
     <use x="980.810547" xlink:href="#DejaVuSans-114"/>
     <use x="1019.673828" xlink:href="#DejaVuSans-111"/>
     <use x="1080.855469" xlink:href="#DejaVuSans-50"/>
     <use x="1144.478516" xlink:href="#DejaVuSans-48"/>
     <use x="1208.101562" xlink:href="#DejaVuSans-50"/>
     <use x="1271.724609" xlink:href="#DejaVuSans-48"/>
    </g>
   </g>
   <g id="legend_1">
    <g id="patch_7">
     <path d="M 776.682969 161.621563 
L 845.5 161.621563 
Q 847.7 161.621563 847.7 159.421563 
L 847.7 47.5 
Q 847.7 45.3 845.5 45.3 
L 776.682969 45.3 
Q 774.482969 45.3 774.482969 47.5 
L 774.482969 159.421563 
Q 774.482969 161.621563 776.682969 161.621563 
z
" style="fill:#ffffff;opacity:0.8;stroke:#cccccc;stroke-linejoin:miter;"/>
    </g>
    <g id="line2d_50">
     <path d="M 778.882969 54.208281 
L 800.882969 54.208281 
" style="fill:none;stroke:#1f77b4;stroke-linecap:square;stroke-width:1.5;"/>
    </g>
    <g id="line2d_51">
     <g>
      <use style="fill:#1f77b4;stroke:#1f77b4;" x="789.882969" xlink:href="#md6d87e23cf" y="54.208281"/>
     </g>
    </g>
    <g id="text_23">
     <!-- NO2 -->
     <g transform="translate(809.682969 58.058281)scale(0.11 -0.11)">
      <defs>
       <path d="M 9.8125 72.90625 
L 23.09375 72.90625 
L 55.421875 11.921875 
L 55.421875 72.90625 
L 64.984375 72.90625 
L 64.984375 0 
L 51.703125 0 
L 19.390625 60.984375 
L 19.390625 0 
L 9.8125 0 
z
" id="DejaVuSans-78"/>
      </defs>
      <use xlink:href="#DejaVuSans-78"/>
      <use x="74.804688" xlink:href="#DejaVuSans-79"/>
      <use x="153.515625" xlink:href="#DejaVuSans-50"/>
     </g>
    </g>
    <g id="line2d_52">
     <path d="M 778.882969 70.354219 
L 800.882969 70.354219 
" style="fill:none;stroke:#ff7f0e;stroke-linecap:square;stroke-width:1.5;"/>
    </g>
    <g id="line2d_53">
     <g>
      <use style="fill:#ff7f0e;stroke:#ff7f0e;" x="789.882969" xlink:href="#m790d3d868b" y="70.354219"/>
     </g>
    </g>
    <g id="text_24">
     <!-- O3 -->
     <g transform="translate(809.682969 74.204219)scale(0.11 -0.11)">
      <use xlink:href="#DejaVuSans-79"/>
      <use x="78.710938" xlink:href="#DejaVuSans-51"/>
     </g>
    </g>
    <g id="line2d_54">
     <path d="M 778.882969 86.500156 
L 800.882969 86.500156 
" style="fill:none;stroke:#2ca02c;stroke-linecap:square;stroke-width:1.5;"/>
    </g>
    <g id="line2d_55">
     <g>
      <use style="fill:#2ca02c;stroke:#2ca02c;" x="789.882969" xlink:href="#mc71e5cb36b" y="86.500156"/>
     </g>
    </g>
    <g id="text_25">
     <!-- SO2 -->
     <g transform="translate(809.682969 90.350156)scale(0.11 -0.11)">
      <defs>
       <path d="M 53.515625 70.515625 
L 53.515625 60.890625 
Q 47.90625 63.578125 42.921875 64.890625 
Q 37.9375 66.21875 33.296875 66.21875 
Q 25.25 66.21875 20.875 63.09375 
Q 16.5 59.96875 16.5 54.203125 
Q 16.5 49.359375 19.40625 46.890625 
Q 22.3125 44.4375 30.421875 42.921875 
L 36.375 41.703125 
Q 47.40625 39.59375 52.65625 34.296875 
Q 57.90625 29 57.90625 20.125 
Q 57.90625 9.515625 50.796875 4.046875 
Q 43.703125 -1.421875 29.984375 -1.421875 
Q 24.8125 -1.421875 18.96875 -0.25 
Q 13.140625 0.921875 6.890625 3.21875 
L 6.890625 13.375 
Q 12.890625 10.015625 18.65625 8.296875 
Q 24.421875 6.59375 29.984375 6.59375 
Q 38.421875 6.59375 43.015625 9.90625 
Q 47.609375 13.234375 47.609375 19.390625 
Q 47.609375 24.75 44.3125 27.78125 
Q 41.015625 30.8125 33.5 32.328125 
L 27.484375 33.5 
Q 16.453125 35.6875 11.515625 40.375 
Q 6.59375 45.0625 6.59375 53.421875 
Q 6.59375 63.09375 13.40625 68.65625 
Q 20.21875 74.21875 32.171875 74.21875 
Q 37.3125 74.21875 42.625 73.28125 
Q 47.953125 72.359375 53.515625 70.515625 
z
" id="DejaVuSans-83"/>
      </defs>
      <use xlink:href="#DejaVuSans-83"/>
      <use x="63.476562" xlink:href="#DejaVuSans-79"/>
      <use x="142.1875" xlink:href="#DejaVuSans-50"/>
     </g>
    </g>
    <g id="line2d_56">
     <path d="M 778.882969 102.646094 
L 800.882969 102.646094 
" style="fill:none;stroke:#d62728;stroke-linecap:square;stroke-width:1.5;"/>
    </g>
    <g id="line2d_57">
     <g>
      <use style="fill:#d62728;stroke:#d62728;" x="789.882969" xlink:href="#md6329ca00d" y="102.646094"/>
     </g>
    </g>
    <g id="text_26">
     <!-- PM10 -->
     <g transform="translate(809.682969 106.496094)scale(0.11 -0.11)">
      <defs>
       <path d="M 19.671875 64.796875 
L 19.671875 37.40625 
L 32.078125 37.40625 
Q 38.96875 37.40625 42.71875 40.96875 
Q 46.484375 44.53125 46.484375 51.125 
Q 46.484375 57.671875 42.71875 61.234375 
Q 38.96875 64.796875 32.078125 64.796875 
z
M 9.8125 72.90625 
L 32.078125 72.90625 
Q 44.34375 72.90625 50.609375 67.359375 
Q 56.890625 61.8125 56.890625 51.125 
Q 56.890625 40.328125 50.609375 34.8125 
Q 44.34375 29.296875 32.078125 29.296875 
L 19.671875 29.296875 
L 19.671875 0 
L 9.8125 0 
z
" id="DejaVuSans-80"/>
      </defs>
      <use xlink:href="#DejaVuSans-80"/>
      <use x="60.302734" xlink:href="#DejaVuSans-77"/>
      <use x="146.582031" xlink:href="#DejaVuSans-49"/>
      <use x="210.205078" xlink:href="#DejaVuSans-48"/>
     </g>
    </g>
    <g id="line2d_58">
     <path d="M 778.882969 118.792031 
L 800.882969 118.792031 
" style="fill:none;stroke:#9467bd;stroke-linecap:square;stroke-width:1.5;"/>
    </g>
    <g id="line2d_59">
     <g>
      <use style="fill:#9467bd;stroke:#9467bd;" x="789.882969" xlink:href="#m01360b0a94" y="118.792031"/>
     </g>
    </g>
    <g id="text_27">
     <!-- PM2.5 -->
     <g transform="translate(809.682969 122.642031)scale(0.11 -0.11)">
      <use xlink:href="#DejaVuSans-80"/>
      <use x="60.302734" xlink:href="#DejaVuSans-77"/>
      <use x="146.582031" xlink:href="#DejaVuSans-50"/>
      <use x="210.205078" xlink:href="#DejaVuSans-46"/>
      <use x="241.992188" xlink:href="#DejaVuSans-53"/>
     </g>
    </g>
    <g id="line2d_60">
     <path d="M 778.882969 134.937969 
L 800.882969 134.937969 
" style="fill:none;stroke:#8c564b;stroke-linecap:square;stroke-width:1.5;"/>
    </g>
    <g id="line2d_61">
     <g>
      <use style="fill:#8c564b;stroke:#8c564b;" x="789.882969" xlink:href="#m3d11e3f30e" y="134.937969"/>
     </g>
    </g>
    <g id="text_28">
     <!-- CO -->
     <g transform="translate(809.682969 138.787969)scale(0.11 -0.11)">
      <use xlink:href="#DejaVuSans-67"/>
      <use x="69.824219" xlink:href="#DejaVuSans-79"/>
     </g>
    </g>
    <g id="line2d_62">
     <path d="M 778.882969 151.083906 
L 800.882969 151.083906 
" style="fill:none;stroke:#e377c2;stroke-linecap:square;stroke-width:1.5;"/>
    </g>
    <g id="line2d_63">
     <g>
      <use style="fill:#e377c2;stroke:#e377c2;" x="789.882969" xlink:href="#m2f573d83e0" y="151.083906"/>
     </g>
    </g>
    <g id="text_29">
     <!-- NO -->
     <g transform="translate(809.682969 154.933906)scale(0.11 -0.11)">
      <use xlink:href="#DejaVuSans-78"/>
      <use x="74.804688" xlink:href="#DejaVuSans-79"/>
     </g>
    </g>
   </g>
  </g>
 </g>
 <defs>
  <clipPath id="pa998363a60">
   <rect height="310.15" width="822.775" x="30.425" y="39.8"/>
  </clipPath>
 </defs>
</svg>
