<?xml version="1.0" encoding="utf-8" standalone="no"?>
<!DOCTYPE svg PUBLIC "-//W3C//DTD SVG 1.1//EN"
  "http://www.w3.org/Graphics/SVG/1.1/DTD/svg11.dtd">
<!-- Created with matplotlib (https://matplotlib.org/) -->
<svg height="432pt" version="1.1" viewBox="0 0 720 432" width="720pt" xmlns="http://www.w3.org/2000/svg" xmlns:xlink="http://www.w3.org/1999/xlink">
 <metadata>
  <rdf:RDF xmlns:cc="http://creativecommons.org/ns#" xmlns:dc="http://purl.org/dc/elements/1.1/" xmlns:rdf="http://www.w3.org/1999/02/22-rdf-syntax-ns#">
   <cc:Work>
    <dc:type rdf:resource="http://purl.org/dc/dcmitype/StillImage"/>
    <dc:date>2021-01-15T21:04:37.537869</dc:date>
    <dc:format>image/svg+xml</dc:format>
    <dc:creator>
     <cc:Agent>
      <dc:title>Matplotlib v3.3.3, https://matplotlib.org/</dc:title>
     </cc:Agent>
    </dc:creator>
   </cc:Work>
  </rdf:RDF>
 </metadata>
 <defs>
  <style type="text/css">*{stroke-linecap:butt;stroke-linejoin:round;}</style>
 </defs>
 <g id="figure_1">
  <g id="patch_1">
   <path d="M 0 432 
L 720 432 
L 720 0 
L 0 0 
z
" style="fill:none;"/>
  </g>
  <g id="axes_1">
   <g id="patch_2">
    <path d="M 50.8 310.35015 
L 709.2 310.35015 
L 709.2 26.8 
L 50.8 26.8 
z
" style="fill:#ffffff;"/>
   </g>
   <g id="patch_3">
    <path clip-path="url(#p2b6c6fc415)" d="M 55.189333 310.35015 
L 90.304 310.35015 
L 90.304 40.302388 
L 55.189333 40.302388 
z
" style="fill:#df2c20;"/>
   </g>
   <g id="patch_4">
    <path clip-path="url(#p2b6c6fc415)" d="M 99.082667 310.35015 
L 134.197333 310.35015 
L 134.197333 94.509056 
L 99.082667 94.509056 
z
" style="fill:#df3820;"/>
   </g>
   <g id="patch_5">
    <path clip-path="url(#p2b6c6fc415)" d="M 142.976 310.35015 
L 178.090667 310.35015 
L 178.090667 165.470511 
L 142.976 165.470511 
z
" style="fill:#df4420;"/>
   </g>
   <g id="patch_6">
    <path clip-path="url(#p2b6c6fc415)" d="M 186.869333 310.35015 
L 221.984 310.35015 
L 221.984 202.922391 
L 186.869333 202.922391 
z
" style="fill:#df5020;"/>
   </g>
   <g id="patch_7">
    <path clip-path="url(#p2b6c6fc415)" d="M 230.762667 310.35015 
L 265.877333 310.35015 
L 265.877333 234.460815 
L 230.762667 234.460815 
z
" style="fill:#df5c20;"/>
   </g>
   <g id="patch_8">
    <path clip-path="url(#p2b6c6fc415)" d="M 274.656 310.35015 
L 309.770667 310.35015 
L 309.770667 242.345421 
L 274.656 242.345421 
z
" style="fill:#df6820;"/>
   </g>
   <g id="patch_9">
    <path clip-path="url(#p2b6c6fc415)" d="M 318.549333 310.35015 
L 353.664 310.35015 
L 353.664 243.330997 
L 318.549333 243.330997 
z
" style="fill:#df7420;"/>
   </g>
   <g id="patch_10">
    <path clip-path="url(#p2b6c6fc415)" d="M 362.442667 310.35015 
L 397.557333 310.35015 
L 397.557333 264.028088 
L 362.442667 264.028088 
z
" style="fill:#df8020;"/>
   </g>
   <g id="patch_11">
    <path clip-path="url(#p2b6c6fc415)" d="M 406.336 310.35015 
L 441.450667 310.35015 
L 441.450667 264.028088 
L 406.336 264.028088 
z
" style="fill:#df8c20;"/>
   </g>
   <g id="patch_12">
    <path clip-path="url(#p2b6c6fc415)" d="M 450.229333 310.35015 
L 485.344 310.35015 
L 485.344 275.854998 
L 450.229333 275.854998 
z
" style="fill:#df9820;"/>
   </g>
   <g id="patch_13">
    <path clip-path="url(#p2b6c6fc415)" d="M 494.122667 310.35015 
L 529.237333 310.35015 
L 529.237333 297.537665 
L 494.122667 297.537665 
z
" style="fill:#dfa420;"/>
   </g>
   <g id="patch_14">
    <path clip-path="url(#p2b6c6fc415)" d="M 538.016 310.35015 
L 573.130667 310.35015 
L 573.130667 298.52324 
L 538.016 298.52324 
z
" style="fill:#dfb020;"/>
   </g>
   <g id="patch_15">
    <path clip-path="url(#p2b6c6fc415)" d="M 581.909333 310.35015 
L 617.024 310.35015 
L 617.024 305.422271 
L 581.909333 305.422271 
z
" style="fill:#dfbc20;"/>
   </g>
   <g id="patch_16">
    <path clip-path="url(#p2b6c6fc415)" d="M 625.802667 310.35015 
L 660.917333 310.35015 
L 660.917333 305.422271 
L 625.802667 305.422271 
z
" style="fill:#dfc820;"/>
   </g>
   <g id="patch_17">
    <path clip-path="url(#p2b6c6fc415)" d="M 669.696 310.35015 
L 704.810667 310.35015 
L 704.810667 308.378998 
L 669.696 308.378998 
z
" style="fill:#dfd420;"/>
   </g>
   <g id="matplotlib.axis_1">
    <g id="xtick_1">
     <g id="line2d_1">
      <defs>
       <path d="M 0 0 
L 0 3.5 
" id="m603398648c" style="stroke:#000000;stroke-width:0.8;"/>
      </defs>
      <g>
       <use style="stroke:#000000;stroke-width:0.8;" x="72.746667" xlink:href="#m603398648c" y="310.35015"/>
      </g>
     </g>
     <g id="text_1">
      <!-- Cuauhtemoc -->
      <g transform="translate(64.471139 379.670839)rotate(-70)scale(0.1 -0.1)">
       <defs>
        <path d="M 64.40625 67.28125 
L 64.40625 56.890625 
Q 59.421875 61.53125 53.78125 63.8125 
Q 48.140625 66.109375 41.796875 66.109375 
Q 29.296875 66.109375 22.65625 58.46875 
Q 16.015625 50.828125 16.015625 36.375 
Q 16.015625 21.96875 22.65625 14.328125 
Q 29.296875 6.6875 41.796875 6.6875 
Q 48.140625 6.6875 53.78125 8.984375 
Q 59.421875 11.28125 64.40625 15.921875 
L 64.40625 5.609375 
Q 59.234375 2.09375 53.4375 0.328125 
Q 47.65625 -1.421875 41.21875 -1.421875 
Q 24.65625 -1.421875 15.125 8.703125 
Q 5.609375 18.84375 5.609375 36.375 
Q 5.609375 53.953125 15.125 64.078125 
Q 24.65625 74.21875 41.21875 74.21875 
Q 47.75 74.21875 53.53125 72.484375 
Q 59.328125 70.75 64.40625 67.28125 
z
" id="DejaVuSans-67"/>
        <path d="M 8.5 21.578125 
L 8.5 54.6875 
L 17.484375 54.6875 
L 17.484375 21.921875 
Q 17.484375 14.15625 20.5 10.265625 
Q 23.53125 6.390625 29.59375 6.390625 
Q 36.859375 6.390625 41.078125 11.03125 
Q 45.3125 15.671875 45.3125 23.6875 
L 45.3125 54.6875 
L 54.296875 54.6875 
L 54.296875 0 
L 45.3125 0 
L 45.3125 8.40625 
Q 42.046875 3.421875 37.71875 1 
Q 33.40625 -1.421875 27.6875 -1.421875 
Q 18.265625 -1.421875 13.375 4.4375 
Q 8.5 10.296875 8.5 21.578125 
z
M 31.109375 56 
z
" id="DejaVuSans-117"/>
        <path d="M 34.28125 27.484375 
Q 23.390625 27.484375 19.1875 25 
Q 14.984375 22.515625 14.984375 16.5 
Q 14.984375 11.71875 18.140625 8.90625 
Q 21.296875 6.109375 26.703125 6.109375 
Q 34.1875 6.109375 38.703125 11.40625 
Q 43.21875 16.703125 43.21875 25.484375 
L 43.21875 27.484375 
z
M 52.203125 31.203125 
L 52.203125 0 
L 43.21875 0 
L 43.21875 8.296875 
Q 40.140625 3.328125 35.546875 0.953125 
Q 30.953125 -1.421875 24.3125 -1.421875 
Q 15.921875 -1.421875 10.953125 3.296875 
Q 6 8.015625 6 15.921875 
Q 6 25.140625 12.171875 29.828125 
Q 18.359375 34.515625 30.609375 34.515625 
L 43.21875 34.515625 
L 43.21875 35.40625 
Q 43.21875 41.609375 39.140625 45 
Q 35.0625 48.390625 27.6875 48.390625 
Q 23 48.390625 18.546875 47.265625 
Q 14.109375 46.140625 10.015625 43.890625 
L 10.015625 52.203125 
Q 14.9375 54.109375 19.578125 55.046875 
Q 24.21875 56 28.609375 56 
Q 40.484375 56 46.34375 49.84375 
Q 52.203125 43.703125 52.203125 31.203125 
z
" id="DejaVuSans-97"/>
        <path d="M 54.890625 33.015625 
L 54.890625 0 
L 45.90625 0 
L 45.90625 32.71875 
Q 45.90625 40.484375 42.875 44.328125 
Q 39.84375 48.1875 33.796875 48.1875 
Q 26.515625 48.1875 22.3125 43.546875 
Q 18.109375 38.921875 18.109375 30.90625 
L 18.109375 0 
L 9.078125 0 
L 9.078125 75.984375 
L 18.109375 75.984375 
L 18.109375 46.1875 
Q 21.34375 51.125 25.703125 53.5625 
Q 30.078125 56 35.796875 56 
Q 45.21875 56 50.046875 50.171875 
Q 54.890625 44.34375 54.890625 33.015625 
z
" id="DejaVuSans-104"/>
        <path d="M 18.3125 70.21875 
L 18.3125 54.6875 
L 36.8125 54.6875 
L 36.8125 47.703125 
L 18.3125 47.703125 
L 18.3125 18.015625 
Q 18.3125 11.328125 20.140625 9.421875 
Q 21.96875 7.515625 27.59375 7.515625 
L 36.8125 7.515625 
L 36.8125 0 
L 27.59375 0 
Q 17.1875 0 13.234375 3.875 
Q 9.28125 7.765625 9.28125 18.015625 
L 9.28125 47.703125 
L 2.6875 47.703125 
L 2.6875 54.6875 
L 9.28125 54.6875 
L 9.28125 70.21875 
z
" id="DejaVuSans-116"/>
        <path d="M 56.203125 29.59375 
L 56.203125 25.203125 
L 14.890625 25.203125 
Q 15.484375 15.921875 20.484375 11.0625 
Q 25.484375 6.203125 34.421875 6.203125 
Q 39.59375 6.203125 44.453125 7.46875 
Q 49.3125 8.734375 54.109375 11.28125 
L 54.109375 2.78125 
Q 49.265625 0.734375 44.1875 -0.34375 
Q 39.109375 -1.421875 33.890625 -1.421875 
Q 20.796875 -1.421875 13.15625 6.1875 
Q 5.515625 13.8125 5.515625 26.8125 
Q 5.515625 40.234375 12.765625 48.109375 
Q 20.015625 56 32.328125 56 
Q 43.359375 56 49.78125 48.890625 
Q 56.203125 41.796875 56.203125 29.59375 
z
M 47.21875 32.234375 
Q 47.125 39.59375 43.09375 43.984375 
Q 39.0625 48.390625 32.421875 48.390625 
Q 24.90625 48.390625 20.390625 44.140625 
Q 15.875 39.890625 15.1875 32.171875 
z
" id="DejaVuSans-101"/>
        <path d="M 52 44.1875 
Q 55.375 50.25 60.0625 53.125 
Q 64.75 56 71.09375 56 
Q 79.640625 56 84.28125 50.015625 
Q 88.921875 44.046875 88.921875 33.015625 
L 88.921875 0 
L 79.890625 0 
L 79.890625 32.71875 
Q 79.890625 40.578125 77.09375 44.375 
Q 74.3125 48.1875 68.609375 48.1875 
Q 61.625 48.1875 57.5625 43.546875 
Q 53.515625 38.921875 53.515625 30.90625 
L 53.515625 0 
L 44.484375 0 
L 44.484375 32.71875 
Q 44.484375 40.625 41.703125 44.40625 
Q 38.921875 48.1875 33.109375 48.1875 
Q 26.21875 48.1875 22.15625 43.53125 
Q 18.109375 38.875 18.109375 30.90625 
L 18.109375 0 
L 9.078125 0 
L 9.078125 54.6875 
L 18.109375 54.6875 
L 18.109375 46.1875 
Q 21.1875 51.21875 25.484375 53.609375 
Q 29.78125 56 35.6875 56 
Q 41.65625 56 45.828125 52.96875 
Q 50 49.953125 52 44.1875 
z
" id="DejaVuSans-109"/>
        <path d="M 30.609375 48.390625 
Q 23.390625 48.390625 19.1875 42.75 
Q 14.984375 37.109375 14.984375 27.296875 
Q 14.984375 17.484375 19.15625 11.84375 
Q 23.34375 6.203125 30.609375 6.203125 
Q 37.796875 6.203125 41.984375 11.859375 
Q 46.1875 17.53125 46.1875 27.296875 
Q 46.1875 37.015625 41.984375 42.703125 
Q 37.796875 48.390625 30.609375 48.390625 
z
M 30.609375 56 
Q 42.328125 56 49.015625 48.375 
Q 55.71875 40.765625 55.71875 27.296875 
Q 55.71875 13.875 49.015625 6.21875 
Q 42.328125 -1.421875 30.609375 -1.421875 
Q 18.84375 -1.421875 12.171875 6.21875 
Q 5.515625 13.875 5.515625 27.296875 
Q 5.515625 40.765625 12.171875 48.375 
Q 18.84375 56 30.609375 56 
z
" id="DejaVuSans-111"/>
        <path d="M 48.78125 52.59375 
L 48.78125 44.1875 
Q 44.96875 46.296875 41.140625 47.34375 
Q 37.3125 48.390625 33.40625 48.390625 
Q 24.65625 48.390625 19.8125 42.84375 
Q 14.984375 37.3125 14.984375 27.296875 
Q 14.984375 17.28125 19.8125 11.734375 
Q 24.65625 6.203125 33.40625 6.203125 
Q 37.3125 6.203125 41.140625 7.25 
Q 44.96875 8.296875 48.78125 10.40625 
L 48.78125 2.09375 
Q 45.015625 0.34375 40.984375 -0.53125 
Q 36.96875 -1.421875 32.421875 -1.421875 
Q 20.0625 -1.421875 12.78125 6.34375 
Q 5.515625 14.109375 5.515625 27.296875 
Q 5.515625 40.671875 12.859375 48.328125 
Q 20.21875 56 33.015625 56 
Q 37.15625 56 41.109375 55.140625 
Q 45.0625 54.296875 48.78125 52.59375 
z
" id="DejaVuSans-99"/>
       </defs>
       <use xlink:href="#DejaVuSans-67"/>
       <use x="69.824219" xlink:href="#DejaVuSans-117"/>
       <use x="133.203125" xlink:href="#DejaVuSans-97"/>
       <use x="194.482422" xlink:href="#DejaVuSans-117"/>
       <use x="257.861328" xlink:href="#DejaVuSans-104"/>
       <use x="321.240234" xlink:href="#DejaVuSans-116"/>
       <use x="360.449219" xlink:href="#DejaVuSans-101"/>
       <use x="421.972656" xlink:href="#DejaVuSans-109"/>
       <use x="519.384766" xlink:href="#DejaVuSans-111"/>
       <use x="580.566406" xlink:href="#DejaVuSans-99"/>
      </g>
     </g>
    </g>
    <g id="xtick_2">
     <g id="line2d_2">
      <g>
       <use style="stroke:#000000;stroke-width:0.8;" x="116.64" xlink:href="#m603398648c" y="310.35015"/>
      </g>
     </g>
     <g id="text_2">
      <!-- Iztapalapa -->
      <g transform="translate(110.322271 368.912827)rotate(-70)scale(0.1 -0.1)">
       <defs>
        <path d="M 9.8125 72.90625 
L 19.671875 72.90625 
L 19.671875 0 
L 9.8125 0 
z
" id="DejaVuSans-73"/>
        <path d="M 5.515625 54.6875 
L 48.1875 54.6875 
L 48.1875 46.484375 
L 14.40625 7.171875 
L 48.1875 7.171875 
L 48.1875 0 
L 4.296875 0 
L 4.296875 8.203125 
L 38.09375 47.515625 
L 5.515625 47.515625 
z
" id="DejaVuSans-122"/>
        <path d="M 18.109375 8.203125 
L 18.109375 -20.796875 
L 9.078125 -20.796875 
L 9.078125 54.6875 
L 18.109375 54.6875 
L 18.109375 46.390625 
Q 20.953125 51.265625 25.265625 53.625 
Q 29.59375 56 35.59375 56 
Q 45.5625 56 51.78125 48.09375 
Q 58.015625 40.1875 58.015625 27.296875 
Q 58.015625 14.40625 51.78125 6.484375 
Q 45.5625 -1.421875 35.59375 -1.421875 
Q 29.59375 -1.421875 25.265625 0.953125 
Q 20.953125 3.328125 18.109375 8.203125 
z
M 48.6875 27.296875 
Q 48.6875 37.203125 44.609375 42.84375 
Q 40.53125 48.484375 33.40625 48.484375 
Q 26.265625 48.484375 22.1875 42.84375 
Q 18.109375 37.203125 18.109375 27.296875 
Q 18.109375 17.390625 22.1875 11.75 
Q 26.265625 6.109375 33.40625 6.109375 
Q 40.53125 6.109375 44.609375 11.75 
Q 48.6875 17.390625 48.6875 27.296875 
z
" id="DejaVuSans-112"/>
        <path d="M 9.421875 75.984375 
L 18.40625 75.984375 
L 18.40625 0 
L 9.421875 0 
z
" id="DejaVuSans-108"/>
       </defs>
       <use xlink:href="#DejaVuSans-73"/>
       <use x="29.492188" xlink:href="#DejaVuSans-122"/>
       <use x="81.982422" xlink:href="#DejaVuSans-116"/>
       <use x="121.191406" xlink:href="#DejaVuSans-97"/>
       <use x="182.470703" xlink:href="#DejaVuSans-112"/>
       <use x="245.947266" xlink:href="#DejaVuSans-97"/>
       <use x="307.226562" xlink:href="#DejaVuSans-108"/>
       <use x="335.009766" xlink:href="#DejaVuSans-97"/>
       <use x="396.289062" xlink:href="#DejaVuSans-112"/>
       <use x="459.765625" xlink:href="#DejaVuSans-97"/>
      </g>
     </g>
    </g>
    <g id="xtick_3">
     <g id="line2d_3">
      <g>
       <use style="stroke:#000000;stroke-width:0.8;" x="160.533333" xlink:href="#m603398648c" y="310.35015"/>
      </g>
     </g>
     <g id="text_3">
      <!-- Benito Juarez -->
      <g transform="translate(151.831082 382.015666)rotate(-70)scale(0.1 -0.1)">
       <defs>
        <path d="M 19.671875 34.8125 
L 19.671875 8.109375 
L 35.5 8.109375 
Q 43.453125 8.109375 47.28125 11.40625 
Q 51.125 14.703125 51.125 21.484375 
Q 51.125 28.328125 47.28125 31.5625 
Q 43.453125 34.8125 35.5 34.8125 
z
M 19.671875 64.796875 
L 19.671875 42.828125 
L 34.28125 42.828125 
Q 41.5 42.828125 45.03125 45.53125 
Q 48.578125 48.25 48.578125 53.8125 
Q 48.578125 59.328125 45.03125 62.0625 
Q 41.5 64.796875 34.28125 64.796875 
z
M 9.8125 72.90625 
L 35.015625 72.90625 
Q 46.296875 72.90625 52.390625 68.21875 
Q 58.5 63.53125 58.5 54.890625 
Q 58.5 48.1875 55.375 44.234375 
Q 52.25 40.28125 46.1875 39.3125 
Q 53.46875 37.75 57.5 32.78125 
Q 61.53125 27.828125 61.53125 20.40625 
Q 61.53125 10.640625 54.890625 5.3125 
Q 48.25 0 35.984375 0 
L 9.8125 0 
z
" id="DejaVuSans-66"/>
        <path d="M 54.890625 33.015625 
L 54.890625 0 
L 45.90625 0 
L 45.90625 32.71875 
Q 45.90625 40.484375 42.875 44.328125 
Q 39.84375 48.1875 33.796875 48.1875 
Q 26.515625 48.1875 22.3125 43.546875 
Q 18.109375 38.921875 18.109375 30.90625 
L 18.109375 0 
L 9.078125 0 
L 9.078125 54.6875 
L 18.109375 54.6875 
L 18.109375 46.1875 
Q 21.34375 51.125 25.703125 53.5625 
Q 30.078125 56 35.796875 56 
Q 45.21875 56 50.046875 50.171875 
Q 54.890625 44.34375 54.890625 33.015625 
z
" id="DejaVuSans-110"/>
        <path d="M 9.421875 54.6875 
L 18.40625 54.6875 
L 18.40625 0 
L 9.421875 0 
z
M 9.421875 75.984375 
L 18.40625 75.984375 
L 18.40625 64.59375 
L 9.421875 64.59375 
z
" id="DejaVuSans-105"/>
        <path id="DejaVuSans-32"/>
        <path d="M 9.8125 72.90625 
L 19.671875 72.90625 
L 19.671875 5.078125 
Q 19.671875 -8.109375 14.671875 -14.0625 
Q 9.671875 -20.015625 -1.421875 -20.015625 
L -5.171875 -20.015625 
L -5.171875 -11.71875 
L -2.09375 -11.71875 
Q 4.4375 -11.71875 7.125 -8.046875 
Q 9.8125 -4.390625 9.8125 5.078125 
z
" id="DejaVuSans-74"/>
        <path d="M 41.109375 46.296875 
Q 39.59375 47.171875 37.8125 47.578125 
Q 36.03125 48 33.890625 48 
Q 26.265625 48 22.1875 43.046875 
Q 18.109375 38.09375 18.109375 28.8125 
L 18.109375 0 
L 9.078125 0 
L 9.078125 54.6875 
L 18.109375 54.6875 
L 18.109375 46.1875 
Q 20.953125 51.171875 25.484375 53.578125 
Q 30.03125 56 36.53125 56 
Q 37.453125 56 38.578125 55.875 
Q 39.703125 55.765625 41.0625 55.515625 
z
" id="DejaVuSans-114"/>
       </defs>
       <use xlink:href="#DejaVuSans-66"/>
       <use x="68.603516" xlink:href="#DejaVuSans-101"/>
       <use x="130.126953" xlink:href="#DejaVuSans-110"/>
       <use x="193.505859" xlink:href="#DejaVuSans-105"/>
       <use x="221.289062" xlink:href="#DejaVuSans-116"/>
       <use x="260.498047" xlink:href="#DejaVuSans-111"/>
       <use x="321.679688" xlink:href="#DejaVuSans-32"/>
       <use x="353.466797" xlink:href="#DejaVuSans-74"/>
       <use x="382.958984" xlink:href="#DejaVuSans-117"/>
       <use x="446.337891" xlink:href="#DejaVuSans-97"/>
       <use x="507.617188" xlink:href="#DejaVuSans-114"/>
       <use x="546.480469" xlink:href="#DejaVuSans-101"/>
       <use x="608.003906" xlink:href="#DejaVuSans-122"/>
      </g>
     </g>
    </g>
    <g id="xtick_4">
     <g id="line2d_4">
      <g>
       <use style="stroke:#000000;stroke-width:0.8;" x="204.426667" xlink:href="#m603398648c" y="310.35015"/>
      </g>
     </g>
     <g id="text_4">
      <!-- Venustiano Carranza -->
      <g transform="translate(189.309133 417.267354)rotate(-70)scale(0.1 -0.1)">
       <defs>
        <path d="M 28.609375 0 
L 0.78125 72.90625 
L 11.078125 72.90625 
L 34.1875 11.53125 
L 57.328125 72.90625 
L 67.578125 72.90625 
L 39.796875 0 
z
" id="DejaVuSans-86"/>
        <path d="M 44.28125 53.078125 
L 44.28125 44.578125 
Q 40.484375 46.53125 36.375 47.5 
Q 32.28125 48.484375 27.875 48.484375 
Q 21.1875 48.484375 17.84375 46.4375 
Q 14.5 44.390625 14.5 40.28125 
Q 14.5 37.15625 16.890625 35.375 
Q 19.28125 33.59375 26.515625 31.984375 
L 29.59375 31.296875 
Q 39.15625 29.25 43.1875 25.515625 
Q 47.21875 21.78125 47.21875 15.09375 
Q 47.21875 7.46875 41.1875 3.015625 
Q 35.15625 -1.421875 24.609375 -1.421875 
Q 20.21875 -1.421875 15.453125 -0.5625 
Q 10.6875 0.296875 5.421875 2 
L 5.421875 11.28125 
Q 10.40625 8.6875 15.234375 7.390625 
Q 20.0625 6.109375 24.8125 6.109375 
Q 31.15625 6.109375 34.5625 8.28125 
Q 37.984375 10.453125 37.984375 14.40625 
Q 37.984375 18.0625 35.515625 20.015625 
Q 33.0625 21.96875 24.703125 23.78125 
L 21.578125 24.515625 
Q 13.234375 26.265625 9.515625 29.90625 
Q 5.8125 33.546875 5.8125 39.890625 
Q 5.8125 47.609375 11.28125 51.796875 
Q 16.75 56 26.8125 56 
Q 31.78125 56 36.171875 55.265625 
Q 40.578125 54.546875 44.28125 53.078125 
z
" id="DejaVuSans-115"/>
       </defs>
       <use xlink:href="#DejaVuSans-86"/>
       <use x="60.658203" xlink:href="#DejaVuSans-101"/>
       <use x="122.181641" xlink:href="#DejaVuSans-110"/>
       <use x="185.560547" xlink:href="#DejaVuSans-117"/>
       <use x="248.939453" xlink:href="#DejaVuSans-115"/>
       <use x="301.039062" xlink:href="#DejaVuSans-116"/>
       <use x="340.248047" xlink:href="#DejaVuSans-105"/>
       <use x="368.03125" xlink:href="#DejaVuSans-97"/>
       <use x="429.310547" xlink:href="#DejaVuSans-110"/>
       <use x="492.689453" xlink:href="#DejaVuSans-111"/>
       <use x="553.871094" xlink:href="#DejaVuSans-32"/>
       <use x="585.658203" xlink:href="#DejaVuSans-67"/>
       <use x="655.482422" xlink:href="#DejaVuSans-97"/>
       <use x="716.761719" xlink:href="#DejaVuSans-114"/>
       <use x="756.125" xlink:href="#DejaVuSans-114"/>
       <use x="797.238281" xlink:href="#DejaVuSans-97"/>
       <use x="858.517578" xlink:href="#DejaVuSans-110"/>
       <use x="921.896484" xlink:href="#DejaVuSans-122"/>
       <use x="974.386719" xlink:href="#DejaVuSans-97"/>
      </g>
     </g>
    </g>
    <g id="xtick_5">
     <g id="line2d_5">
      <g>
       <use style="stroke:#000000;stroke-width:0.8;" x="248.32" xlink:href="#m603398648c" y="310.35015"/>
      </g>
     </g>
     <g id="text_5">
      <!-- Alvaro Obregon -->
      <g transform="translate(237.589142 393.16277)rotate(-70)scale(0.1 -0.1)">
       <defs>
        <path d="M 34.1875 63.1875 
L 20.796875 26.90625 
L 47.609375 26.90625 
z
M 28.609375 72.90625 
L 39.796875 72.90625 
L 67.578125 0 
L 57.328125 0 
L 50.6875 18.703125 
L 17.828125 18.703125 
L 11.1875 0 
L 0.78125 0 
z
" id="DejaVuSans-65"/>
        <path d="M 2.984375 54.6875 
L 12.5 54.6875 
L 29.59375 8.796875 
L 46.6875 54.6875 
L 56.203125 54.6875 
L 35.6875 0 
L 23.484375 0 
z
" id="DejaVuSans-118"/>
        <path d="M 39.40625 66.21875 
Q 28.65625 66.21875 22.328125 58.203125 
Q 16.015625 50.203125 16.015625 36.375 
Q 16.015625 22.609375 22.328125 14.59375 
Q 28.65625 6.59375 39.40625 6.59375 
Q 50.140625 6.59375 56.421875 14.59375 
Q 62.703125 22.609375 62.703125 36.375 
Q 62.703125 50.203125 56.421875 58.203125 
Q 50.140625 66.21875 39.40625 66.21875 
z
M 39.40625 74.21875 
Q 54.734375 74.21875 63.90625 63.9375 
Q 73.09375 53.65625 73.09375 36.375 
Q 73.09375 19.140625 63.90625 8.859375 
Q 54.734375 -1.421875 39.40625 -1.421875 
Q 24.03125 -1.421875 14.8125 8.828125 
Q 5.609375 19.09375 5.609375 36.375 
Q 5.609375 53.65625 14.8125 63.9375 
Q 24.03125 74.21875 39.40625 74.21875 
z
" id="DejaVuSans-79"/>
        <path d="M 48.6875 27.296875 
Q 48.6875 37.203125 44.609375 42.84375 
Q 40.53125 48.484375 33.40625 48.484375 
Q 26.265625 48.484375 22.1875 42.84375 
Q 18.109375 37.203125 18.109375 27.296875 
Q 18.109375 17.390625 22.1875 11.75 
Q 26.265625 6.109375 33.40625 6.109375 
Q 40.53125 6.109375 44.609375 11.75 
Q 48.6875 17.390625 48.6875 27.296875 
z
M 18.109375 46.390625 
Q 20.953125 51.265625 25.265625 53.625 
Q 29.59375 56 35.59375 56 
Q 45.5625 56 51.78125 48.09375 
Q 58.015625 40.1875 58.015625 27.296875 
Q 58.015625 14.40625 51.78125 6.484375 
Q 45.5625 -1.421875 35.59375 -1.421875 
Q 29.59375 -1.421875 25.265625 0.953125 
Q 20.953125 3.328125 18.109375 8.203125 
L 18.109375 0 
L 9.078125 0 
L 9.078125 75.984375 
L 18.109375 75.984375 
z
" id="DejaVuSans-98"/>
        <path d="M 45.40625 27.984375 
Q 45.40625 37.75 41.375 43.109375 
Q 37.359375 48.484375 30.078125 48.484375 
Q 22.859375 48.484375 18.828125 43.109375 
Q 14.796875 37.75 14.796875 27.984375 
Q 14.796875 18.265625 18.828125 12.890625 
Q 22.859375 7.515625 30.078125 7.515625 
Q 37.359375 7.515625 41.375 12.890625 
Q 45.40625 18.265625 45.40625 27.984375 
z
M 54.390625 6.78125 
Q 54.390625 -7.171875 48.1875 -13.984375 
Q 42 -20.796875 29.203125 -20.796875 
Q 24.46875 -20.796875 20.265625 -20.09375 
Q 16.0625 -19.390625 12.109375 -17.921875 
L 12.109375 -9.1875 
Q 16.0625 -11.328125 19.921875 -12.34375 
Q 23.78125 -13.375 27.78125 -13.375 
Q 36.625 -13.375 41.015625 -8.765625 
Q 45.40625 -4.15625 45.40625 5.171875 
L 45.40625 9.625 
Q 42.625 4.78125 38.28125 2.390625 
Q 33.9375 0 27.875 0 
Q 17.828125 0 11.671875 7.65625 
Q 5.515625 15.328125 5.515625 27.984375 
Q 5.515625 40.671875 11.671875 48.328125 
Q 17.828125 56 27.875 56 
Q 33.9375 56 38.28125 53.609375 
Q 42.625 51.21875 45.40625 46.390625 
L 45.40625 54.6875 
L 54.390625 54.6875 
z
" id="DejaVuSans-103"/>
       </defs>
       <use xlink:href="#DejaVuSans-65"/>
       <use x="68.408203" xlink:href="#DejaVuSans-108"/>
       <use x="96.191406" xlink:href="#DejaVuSans-118"/>
       <use x="155.371094" xlink:href="#DejaVuSans-97"/>
       <use x="216.650391" xlink:href="#DejaVuSans-114"/>
       <use x="255.513672" xlink:href="#DejaVuSans-111"/>
       <use x="316.695312" xlink:href="#DejaVuSans-32"/>
       <use x="348.482422" xlink:href="#DejaVuSans-79"/>
       <use x="427.193359" xlink:href="#DejaVuSans-98"/>
       <use x="490.669922" xlink:href="#DejaVuSans-114"/>
       <use x="529.533203" xlink:href="#DejaVuSans-101"/>
       <use x="591.056641" xlink:href="#DejaVuSans-103"/>
       <use x="654.533203" xlink:href="#DejaVuSans-111"/>
       <use x="715.714844" xlink:href="#DejaVuSans-110"/>
      </g>
     </g>
    </g>
    <g id="xtick_6">
     <g id="line2d_6">
      <g>
       <use style="stroke:#000000;stroke-width:0.8;" x="292.213333" xlink:href="#m603398648c" y="310.35015"/>
      </g>
     </g>
     <g id="text_6">
      <!-- Miguel Hidalgo -->
      <g transform="translate(282.113609 389.694717)rotate(-70)scale(0.1 -0.1)">
       <defs>
        <path d="M 9.8125 72.90625 
L 24.515625 72.90625 
L 43.109375 23.296875 
L 61.8125 72.90625 
L 76.515625 72.90625 
L 76.515625 0 
L 66.890625 0 
L 66.890625 64.015625 
L 48.09375 14.015625 
L 38.1875 14.015625 
L 19.390625 64.015625 
L 19.390625 0 
L 9.8125 0 
z
" id="DejaVuSans-77"/>
        <path d="M 9.8125 72.90625 
L 19.671875 72.90625 
L 19.671875 43.015625 
L 55.515625 43.015625 
L 55.515625 72.90625 
L 65.375 72.90625 
L 65.375 0 
L 55.515625 0 
L 55.515625 34.71875 
L 19.671875 34.71875 
L 19.671875 0 
L 9.8125 0 
z
" id="DejaVuSans-72"/>
        <path d="M 45.40625 46.390625 
L 45.40625 75.984375 
L 54.390625 75.984375 
L 54.390625 0 
L 45.40625 0 
L 45.40625 8.203125 
Q 42.578125 3.328125 38.25 0.953125 
Q 33.9375 -1.421875 27.875 -1.421875 
Q 17.96875 -1.421875 11.734375 6.484375 
Q 5.515625 14.40625 5.515625 27.296875 
Q 5.515625 40.1875 11.734375 48.09375 
Q 17.96875 56 27.875 56 
Q 33.9375 56 38.25 53.625 
Q 42.578125 51.265625 45.40625 46.390625 
z
M 14.796875 27.296875 
Q 14.796875 17.390625 18.875 11.75 
Q 22.953125 6.109375 30.078125 6.109375 
Q 37.203125 6.109375 41.296875 11.75 
Q 45.40625 17.390625 45.40625 27.296875 
Q 45.40625 37.203125 41.296875 42.84375 
Q 37.203125 48.484375 30.078125 48.484375 
Q 22.953125 48.484375 18.875 42.84375 
Q 14.796875 37.203125 14.796875 27.296875 
z
" id="DejaVuSans-100"/>
       </defs>
       <use xlink:href="#DejaVuSans-77"/>
       <use x="86.279297" xlink:href="#DejaVuSans-105"/>
       <use x="114.0625" xlink:href="#DejaVuSans-103"/>
       <use x="177.539062" xlink:href="#DejaVuSans-117"/>
       <use x="240.917969" xlink:href="#DejaVuSans-101"/>
       <use x="302.441406" xlink:href="#DejaVuSans-108"/>
       <use x="330.224609" xlink:href="#DejaVuSans-32"/>
       <use x="362.011719" xlink:href="#DejaVuSans-72"/>
       <use x="437.207031" xlink:href="#DejaVuSans-105"/>
       <use x="464.990234" xlink:href="#DejaVuSans-100"/>
       <use x="528.466797" xlink:href="#DejaVuSans-97"/>
       <use x="589.746094" xlink:href="#DejaVuSans-108"/>
       <use x="617.529297" xlink:href="#DejaVuSans-103"/>
       <use x="681.005859" xlink:href="#DejaVuSans-111"/>
      </g>
     </g>
    </g>
    <g id="xtick_7">
     <g id="line2d_7">
      <g>
       <use style="stroke:#000000;stroke-width:0.8;" x="336.106667" xlink:href="#m603398648c" y="310.35015"/>
      </g>
     </g>
     <g id="text_7">
      <!-- Coyoacan -->
      <g transform="translate(330.280591 366.211211)rotate(-70)scale(0.1 -0.1)">
       <defs>
        <path d="M 32.171875 -5.078125 
Q 28.375 -14.84375 24.75 -17.8125 
Q 21.140625 -20.796875 15.09375 -20.796875 
L 7.90625 -20.796875 
L 7.90625 -13.28125 
L 13.1875 -13.28125 
Q 16.890625 -13.28125 18.9375 -11.515625 
Q 21 -9.765625 23.484375 -3.21875 
L 25.09375 0.875 
L 2.984375 54.6875 
L 12.5 54.6875 
L 29.59375 11.921875 
L 46.6875 54.6875 
L 56.203125 54.6875 
z
" id="DejaVuSans-121"/>
       </defs>
       <use xlink:href="#DejaVuSans-67"/>
       <use x="69.824219" xlink:href="#DejaVuSans-111"/>
       <use x="131.005859" xlink:href="#DejaVuSans-121"/>
       <use x="190.185547" xlink:href="#DejaVuSans-111"/>
       <use x="251.367188" xlink:href="#DejaVuSans-97"/>
       <use x="312.646484" xlink:href="#DejaVuSans-99"/>
       <use x="367.626953" xlink:href="#DejaVuSans-97"/>
       <use x="428.90625" xlink:href="#DejaVuSans-110"/>
      </g>
     </g>
    </g>
    <g id="xtick_8">
     <g id="line2d_8">
      <g>
       <use style="stroke:#000000;stroke-width:0.8;" x="380" xlink:href="#m603398648c" y="310.35015"/>
      </g>
     </g>
     <g id="text_8">
      <!-- Azcapotzalco -->
      <g transform="translate(371.327676 381.85122)rotate(-70)scale(0.1 -0.1)">
       <use xlink:href="#DejaVuSans-65"/>
       <use x="68.408203" xlink:href="#DejaVuSans-122"/>
       <use x="120.898438" xlink:href="#DejaVuSans-99"/>
       <use x="175.878906" xlink:href="#DejaVuSans-97"/>
       <use x="237.158203" xlink:href="#DejaVuSans-112"/>
       <use x="300.634766" xlink:href="#DejaVuSans-111"/>
       <use x="361.816406" xlink:href="#DejaVuSans-116"/>
       <use x="401.025391" xlink:href="#DejaVuSans-122"/>
       <use x="453.515625" xlink:href="#DejaVuSans-97"/>
       <use x="514.794922" xlink:href="#DejaVuSans-108"/>
       <use x="542.578125" xlink:href="#DejaVuSans-99"/>
       <use x="597.558594" xlink:href="#DejaVuSans-111"/>
      </g>
     </g>
    </g>
    <g id="xtick_9">
     <g id="line2d_9">
      <g>
       <use style="stroke:#000000;stroke-width:0.8;" x="423.893333" xlink:href="#m603398648c" y="310.35015"/>
      </g>
     </g>
     <g id="text_9">
      <!-- Iztacalco -->
      <g transform="translate(418.915896 361.547986)rotate(-70)scale(0.1 -0.1)">
       <use xlink:href="#DejaVuSans-73"/>
       <use x="29.492188" xlink:href="#DejaVuSans-122"/>
       <use x="81.982422" xlink:href="#DejaVuSans-116"/>
       <use x="121.191406" xlink:href="#DejaVuSans-97"/>
       <use x="182.470703" xlink:href="#DejaVuSans-99"/>
       <use x="237.451172" xlink:href="#DejaVuSans-97"/>
       <use x="298.730469" xlink:href="#DejaVuSans-108"/>
       <use x="326.513672" xlink:href="#DejaVuSans-99"/>
       <use x="381.494141" xlink:href="#DejaVuSans-111"/>
      </g>
     </g>
    </g>
    <g id="xtick_10">
     <g id="line2d_10">
      <g>
       <use style="stroke:#000000;stroke-width:0.8;" x="467.786667" xlink:href="#m603398648c" y="310.35015"/>
      </g>
     </g>
     <g id="text_10">
      <!-- Tlahuac -->
      <g transform="translate(463.656263 356.893571)rotate(-70)scale(0.1 -0.1)">
       <defs>
        <path d="M -0.296875 72.90625 
L 61.375 72.90625 
L 61.375 64.59375 
L 35.5 64.59375 
L 35.5 0 
L 25.59375 0 
L 25.59375 64.59375 
L -0.296875 64.59375 
z
" id="DejaVuSans-84"/>
       </defs>
       <use xlink:href="#DejaVuSans-84"/>
       <use x="61.083984" xlink:href="#DejaVuSans-108"/>
       <use x="88.867188" xlink:href="#DejaVuSans-97"/>
       <use x="150.146484" xlink:href="#DejaVuSans-104"/>
       <use x="213.525391" xlink:href="#DejaVuSans-117"/>
       <use x="276.904297" xlink:href="#DejaVuSans-97"/>
       <use x="338.183594" xlink:href="#DejaVuSans-99"/>
      </g>
     </g>
    </g>
    <g id="xtick_11">
     <g id="line2d_11">
      <g>
       <use style="stroke:#000000;stroke-width:0.8;" x="511.68" xlink:href="#m603398648c" y="310.35015"/>
      </g>
     </g>
     <g id="text_11">
      <!-- Milpa Alta -->
      <g transform="translate(505.806897 366.469626)rotate(-70)scale(0.1 -0.1)">
       <use xlink:href="#DejaVuSans-77"/>
       <use x="86.279297" xlink:href="#DejaVuSans-105"/>
       <use x="114.0625" xlink:href="#DejaVuSans-108"/>
       <use x="141.845703" xlink:href="#DejaVuSans-112"/>
       <use x="205.322266" xlink:href="#DejaVuSans-97"/>
       <use x="266.601562" xlink:href="#DejaVuSans-32"/>
       <use x="298.388672" xlink:href="#DejaVuSans-65"/>
       <use x="366.796875" xlink:href="#DejaVuSans-108"/>
       <use x="394.580078" xlink:href="#DejaVuSans-116"/>
       <use x="433.789062" xlink:href="#DejaVuSans-97"/>
      </g>
     </g>
    </g>
    <g id="xtick_12">
     <g id="line2d_12">
      <g>
       <use style="stroke:#000000;stroke-width:0.8;" x="555.573333" xlink:href="#m603398648c" y="310.35015"/>
      </g>
     </g>
     <g id="text_12">
      <!-- Xochimilco -->
      <g transform="translate(548.846783 371.15928)rotate(-70)scale(0.1 -0.1)">
       <defs>
        <path d="M 6.296875 72.90625 
L 16.890625 72.90625 
L 35.015625 45.796875 
L 53.21875 72.90625 
L 63.8125 72.90625 
L 40.375 37.890625 
L 65.375 0 
L 54.78125 0 
L 34.28125 31 
L 13.625 0 
L 2.984375 0 
L 29 38.921875 
z
" id="DejaVuSans-88"/>
       </defs>
       <use xlink:href="#DejaVuSans-88"/>
       <use x="68.505859" xlink:href="#DejaVuSans-111"/>
       <use x="129.6875" xlink:href="#DejaVuSans-99"/>
       <use x="184.667969" xlink:href="#DejaVuSans-104"/>
       <use x="248.046875" xlink:href="#DejaVuSans-105"/>
       <use x="275.830078" xlink:href="#DejaVuSans-109"/>
       <use x="373.242188" xlink:href="#DejaVuSans-105"/>
       <use x="401.025391" xlink:href="#DejaVuSans-108"/>
       <use x="428.808594" xlink:href="#DejaVuSans-99"/>
       <use x="483.789062" xlink:href="#DejaVuSans-111"/>
      </g>
     </g>
    </g>
    <g id="xtick_13">
     <g id="line2d_13">
      <g>
       <use style="stroke:#000000;stroke-width:0.8;" x="599.466667" xlink:href="#m603398648c" y="310.35015"/>
      </g>
     </g>
     <g id="text_13">
      <!-- Cuajimalpa -->
      <g transform="translate(592.461156 372.692153)rotate(-70)scale(0.1 -0.1)">
       <defs>
        <path d="M 9.421875 54.6875 
L 18.40625 54.6875 
L 18.40625 -0.984375 
Q 18.40625 -11.421875 14.421875 -16.109375 
Q 10.453125 -20.796875 1.609375 -20.796875 
L -1.8125 -20.796875 
L -1.8125 -13.1875 
L 0.59375 -13.1875 
Q 5.71875 -13.1875 7.5625 -10.8125 
Q 9.421875 -8.453125 9.421875 -0.984375 
z
M 9.421875 75.984375 
L 18.40625 75.984375 
L 18.40625 64.59375 
L 9.421875 64.59375 
z
" id="DejaVuSans-106"/>
       </defs>
       <use xlink:href="#DejaVuSans-67"/>
       <use x="69.824219" xlink:href="#DejaVuSans-117"/>
       <use x="133.203125" xlink:href="#DejaVuSans-97"/>
       <use x="194.482422" xlink:href="#DejaVuSans-106"/>
       <use x="222.265625" xlink:href="#DejaVuSans-105"/>
       <use x="250.048828" xlink:href="#DejaVuSans-109"/>
       <use x="347.460938" xlink:href="#DejaVuSans-97"/>
       <use x="408.740234" xlink:href="#DejaVuSans-108"/>
       <use x="436.523438" xlink:href="#DejaVuSans-112"/>
       <use x="500" xlink:href="#DejaVuSans-97"/>
      </g>
     </g>
    </g>
    <g id="xtick_14">
     <g id="line2d_14">
      <g>
       <use style="stroke:#000000;stroke-width:0.8;" x="643.36" xlink:href="#m603398648c" y="310.35015"/>
      </g>
     </g>
     <g id="text_14">
      <!-- Magdalena Contreras -->
      <g transform="translate(627.654352 420.499015)rotate(-70)scale(0.1 -0.1)">
       <use xlink:href="#DejaVuSans-77"/>
       <use x="86.279297" xlink:href="#DejaVuSans-97"/>
       <use x="147.558594" xlink:href="#DejaVuSans-103"/>
       <use x="211.035156" xlink:href="#DejaVuSans-100"/>
       <use x="274.511719" xlink:href="#DejaVuSans-97"/>
       <use x="335.791016" xlink:href="#DejaVuSans-108"/>
       <use x="363.574219" xlink:href="#DejaVuSans-101"/>
       <use x="425.097656" xlink:href="#DejaVuSans-110"/>
       <use x="488.476562" xlink:href="#DejaVuSans-97"/>
       <use x="549.755859" xlink:href="#DejaVuSans-32"/>
       <use x="581.542969" xlink:href="#DejaVuSans-67"/>
       <use x="651.367188" xlink:href="#DejaVuSans-111"/>
       <use x="712.548828" xlink:href="#DejaVuSans-110"/>
       <use x="775.927734" xlink:href="#DejaVuSans-116"/>
       <use x="815.136719" xlink:href="#DejaVuSans-114"/>
       <use x="854" xlink:href="#DejaVuSans-101"/>
       <use x="915.523438" xlink:href="#DejaVuSans-114"/>
       <use x="956.636719" xlink:href="#DejaVuSans-97"/>
       <use x="1017.916016" xlink:href="#DejaVuSans-115"/>
      </g>
     </g>
    </g>
    <g id="xtick_15">
     <g id="line2d_15">
      <g>
       <use style="stroke:#000000;stroke-width:0.8;" x="687.253333" xlink:href="#m603398648c" y="310.35015"/>
      </g>
     </g>
     <g id="text_15">
      <!-- Tlalpan -->
      <g transform="translate(683.58626 354.347591)rotate(-70)scale(0.1 -0.1)">
       <use xlink:href="#DejaVuSans-84"/>
       <use x="61.083984" xlink:href="#DejaVuSans-108"/>
       <use x="88.867188" xlink:href="#DejaVuSans-97"/>
       <use x="150.146484" xlink:href="#DejaVuSans-108"/>
       <use x="177.929688" xlink:href="#DejaVuSans-112"/>
       <use x="241.40625" xlink:href="#DejaVuSans-97"/>
       <use x="302.685547" xlink:href="#DejaVuSans-110"/>
      </g>
     </g>
    </g>
   </g>
   <g id="matplotlib.axis_2">
    <g id="ytick_1">
     <g id="line2d_16">
      <defs>
       <path d="M 0 0 
L -3.5 0 
" id="m8dfa68a9af" style="stroke:#000000;stroke-width:0.8;"/>
      </defs>
      <g>
       <use style="stroke:#000000;stroke-width:0.8;" x="50.8" xlink:href="#m8dfa68a9af" y="310.35015"/>
      </g>
     </g>
     <g id="text_16">
      <!-- 0 -->
      <g transform="translate(37.4375 314.149368)scale(0.1 -0.1)">
       <defs>
        <path d="M 31.78125 66.40625 
Q 24.171875 66.40625 20.328125 58.90625 
Q 16.5 51.421875 16.5 36.375 
Q 16.5 21.390625 20.328125 13.890625 
Q 24.171875 6.390625 31.78125 6.390625 
Q 39.453125 6.390625 43.28125 13.890625 
Q 47.125 21.390625 47.125 36.375 
Q 47.125 51.421875 43.28125 58.90625 
Q 39.453125 66.40625 31.78125 66.40625 
z
M 31.78125 74.21875 
Q 44.046875 74.21875 50.515625 64.515625 
Q 56.984375 54.828125 56.984375 36.375 
Q 56.984375 17.96875 50.515625 8.265625 
Q 44.046875 -1.421875 31.78125 -1.421875 
Q 19.53125 -1.421875 13.0625 8.265625 
Q 6.59375 17.96875 6.59375 36.375 
Q 6.59375 54.828125 13.0625 64.515625 
Q 19.53125 74.21875 31.78125 74.21875 
z
" id="DejaVuSans-48"/>
       </defs>
       <use xlink:href="#DejaVuSans-48"/>
      </g>
     </g>
    </g>
    <g id="ytick_2">
     <g id="line2d_17">
      <g>
       <use style="stroke:#000000;stroke-width:0.8;" x="50.8" xlink:href="#m8dfa68a9af" y="261.071361"/>
      </g>
     </g>
     <g id="text_17">
      <!-- 50 -->
      <g transform="translate(31.075 264.87058)scale(0.1 -0.1)">
       <defs>
        <path d="M 10.796875 72.90625 
L 49.515625 72.90625 
L 49.515625 64.59375 
L 19.828125 64.59375 
L 19.828125 46.734375 
Q 21.96875 47.46875 24.109375 47.828125 
Q 26.265625 48.1875 28.421875 48.1875 
Q 40.625 48.1875 47.75 41.5 
Q 54.890625 34.8125 54.890625 23.390625 
Q 54.890625 11.625 47.5625 5.09375 
Q 40.234375 -1.421875 26.90625 -1.421875 
Q 22.3125 -1.421875 17.546875 -0.640625 
Q 12.796875 0.140625 7.71875 1.703125 
L 7.71875 11.625 
Q 12.109375 9.234375 16.796875 8.0625 
Q 21.484375 6.890625 26.703125 6.890625 
Q 35.15625 6.890625 40.078125 11.328125 
Q 45.015625 15.765625 45.015625 23.390625 
Q 45.015625 31 40.078125 35.4375 
Q 35.15625 39.890625 26.703125 39.890625 
Q 22.75 39.890625 18.8125 39.015625 
Q 14.890625 38.140625 10.796875 36.28125 
z
" id="DejaVuSans-53"/>
       </defs>
       <use xlink:href="#DejaVuSans-53"/>
       <use x="63.623047" xlink:href="#DejaVuSans-48"/>
      </g>
     </g>
    </g>
    <g id="ytick_3">
     <g id="line2d_18">
      <g>
       <use style="stroke:#000000;stroke-width:0.8;" x="50.8" xlink:href="#m8dfa68a9af" y="211.792572"/>
      </g>
     </g>
     <g id="text_18">
      <!-- 100 -->
      <g transform="translate(24.7125 215.591791)scale(0.1 -0.1)">
       <defs>
        <path d="M 12.40625 8.296875 
L 28.515625 8.296875 
L 28.515625 63.921875 
L 10.984375 60.40625 
L 10.984375 69.390625 
L 28.421875 72.90625 
L 38.28125 72.90625 
L 38.28125 8.296875 
L 54.390625 8.296875 
L 54.390625 0 
L 12.40625 0 
z
" id="DejaVuSans-49"/>
       </defs>
       <use xlink:href="#DejaVuSans-49"/>
       <use x="63.623047" xlink:href="#DejaVuSans-48"/>
       <use x="127.246094" xlink:href="#DejaVuSans-48"/>
      </g>
     </g>
    </g>
    <g id="ytick_4">
     <g id="line2d_19">
      <g>
       <use style="stroke:#000000;stroke-width:0.8;" x="50.8" xlink:href="#m8dfa68a9af" y="162.513784"/>
      </g>
     </g>
     <g id="text_19">
      <!-- 150 -->
      <g transform="translate(24.7125 166.313003)scale(0.1 -0.1)">
       <use xlink:href="#DejaVuSans-49"/>
       <use x="63.623047" xlink:href="#DejaVuSans-53"/>
       <use x="127.246094" xlink:href="#DejaVuSans-48"/>
      </g>
     </g>
    </g>
    <g id="ytick_5">
     <g id="line2d_20">
      <g>
       <use style="stroke:#000000;stroke-width:0.8;" x="50.8" xlink:href="#m8dfa68a9af" y="113.234995"/>
      </g>
     </g>
     <g id="text_20">
      <!-- 200 -->
      <g transform="translate(24.7125 117.034214)scale(0.1 -0.1)">
       <defs>
        <path d="M 19.1875 8.296875 
L 53.609375 8.296875 
L 53.609375 0 
L 7.328125 0 
L 7.328125 8.296875 
Q 12.9375 14.109375 22.625 23.890625 
Q 32.328125 33.6875 34.8125 36.53125 
Q 39.546875 41.84375 41.421875 45.53125 
Q 43.3125 49.21875 43.3125 52.78125 
Q 43.3125 58.59375 39.234375 62.25 
Q 35.15625 65.921875 28.609375 65.921875 
Q 23.96875 65.921875 18.8125 64.3125 
Q 13.671875 62.703125 7.8125 59.421875 
L 7.8125 69.390625 
Q 13.765625 71.78125 18.9375 73 
Q 24.125 74.21875 28.421875 74.21875 
Q 39.75 74.21875 46.484375 68.546875 
Q 53.21875 62.890625 53.21875 53.421875 
Q 53.21875 48.921875 51.53125 44.890625 
Q 49.859375 40.875 45.40625 35.40625 
Q 44.1875 33.984375 37.640625 27.21875 
Q 31.109375 20.453125 19.1875 8.296875 
z
" id="DejaVuSans-50"/>
       </defs>
       <use xlink:href="#DejaVuSans-50"/>
       <use x="63.623047" xlink:href="#DejaVuSans-48"/>
       <use x="127.246094" xlink:href="#DejaVuSans-48"/>
      </g>
     </g>
    </g>
    <g id="ytick_6">
     <g id="line2d_21">
      <g>
       <use style="stroke:#000000;stroke-width:0.8;" x="50.8" xlink:href="#m8dfa68a9af" y="63.956207"/>
      </g>
     </g>
     <g id="text_21">
      <!-- 250 -->
      <g transform="translate(24.7125 67.755425)scale(0.1 -0.1)">
       <use xlink:href="#DejaVuSans-50"/>
       <use x="63.623047" xlink:href="#DejaVuSans-53"/>
       <use x="127.246094" xlink:href="#DejaVuSans-48"/>
      </g>
     </g>
    </g>
    <g id="text_22">
     <!-- Cantidad -->
     <g transform="translate(18.632812 191.061012)rotate(-90)scale(0.1 -0.1)">
      <use xlink:href="#DejaVuSans-67"/>
      <use x="69.824219" xlink:href="#DejaVuSans-97"/>
      <use x="131.103516" xlink:href="#DejaVuSans-110"/>
      <use x="194.482422" xlink:href="#DejaVuSans-116"/>
      <use x="233.691406" xlink:href="#DejaVuSans-105"/>
      <use x="261.474609" xlink:href="#DejaVuSans-100"/>
      <use x="324.951172" xlink:href="#DejaVuSans-97"/>
      <use x="386.230469" xlink:href="#DejaVuSans-100"/>
     </g>
    </g>
   </g>
   <g id="patch_18">
    <path d="M 50.8 310.35015 
L 50.8 26.8 
" style="fill:none;stroke:#000000;stroke-linecap:square;stroke-linejoin:miter;stroke-width:0.8;"/>
   </g>
   <g id="patch_19">
    <path d="M 709.2 310.35015 
L 709.2 26.8 
" style="fill:none;stroke:#000000;stroke-linecap:square;stroke-linejoin:miter;stroke-width:0.8;"/>
   </g>
   <g id="patch_20">
    <path d="M 50.8 310.35015 
L 709.2 310.35015 
" style="fill:none;stroke:#000000;stroke-linecap:square;stroke-linejoin:miter;stroke-width:0.8;"/>
   </g>
   <g id="patch_21">
    <path d="M 50.8 26.8 
L 709.2 26.8 
" style="fill:none;stroke:#000000;stroke-linecap:square;stroke-linejoin:miter;stroke-width:0.8;"/>
   </g>
   <g id="text_23">
    <!-- Tiraderos Clandestinos por alcaldía -->
    <g transform="translate(274.695312 20.8)scale(0.12 -0.12)">
     <defs>
      <path d="M 20.65625 79.984375 
L 30.375 79.984375 
L 14.46875 61.625 
L 6.984375 61.625 
z
M 9.421875 54.6875 
L 18.40625 54.6875 
L 18.40625 0 
L 9.421875 0 
z
M 13.921875 56 
z
" id="DejaVuSans-237"/>
     </defs>
     <use xlink:href="#DejaVuSans-84"/>
     <use x="57.958984" xlink:href="#DejaVuSans-105"/>
     <use x="85.742188" xlink:href="#DejaVuSans-114"/>
     <use x="126.855469" xlink:href="#DejaVuSans-97"/>
     <use x="188.134766" xlink:href="#DejaVuSans-100"/>
     <use x="251.611328" xlink:href="#DejaVuSans-101"/>
     <use x="313.134766" xlink:href="#DejaVuSans-114"/>
     <use x="351.998047" xlink:href="#DejaVuSans-111"/>
     <use x="413.179688" xlink:href="#DejaVuSans-115"/>
     <use x="465.279297" xlink:href="#DejaVuSans-32"/>
     <use x="497.066406" xlink:href="#DejaVuSans-67"/>
     <use x="566.890625" xlink:href="#DejaVuSans-108"/>
     <use x="594.673828" xlink:href="#DejaVuSans-97"/>
     <use x="655.953125" xlink:href="#DejaVuSans-110"/>
     <use x="719.332031" xlink:href="#DejaVuSans-100"/>
     <use x="782.808594" xlink:href="#DejaVuSans-101"/>
     <use x="844.332031" xlink:href="#DejaVuSans-115"/>
     <use x="896.431641" xlink:href="#DejaVuSans-116"/>
     <use x="935.640625" xlink:href="#DejaVuSans-105"/>
     <use x="963.423828" xlink:href="#DejaVuSans-110"/>
     <use x="1026.802734" xlink:href="#DejaVuSans-111"/>
     <use x="1087.984375" xlink:href="#DejaVuSans-115"/>
     <use x="1140.083984" xlink:href="#DejaVuSans-32"/>
     <use x="1171.871094" xlink:href="#DejaVuSans-112"/>
     <use x="1235.347656" xlink:href="#DejaVuSans-111"/>
     <use x="1296.529297" xlink:href="#DejaVuSans-114"/>
     <use x="1337.642578" xlink:href="#DejaVuSans-32"/>
     <use x="1369.429688" xlink:href="#DejaVuSans-97"/>
     <use x="1430.708984" xlink:href="#DejaVuSans-108"/>
     <use x="1458.492188" xlink:href="#DejaVuSans-99"/>
     <use x="1513.472656" xlink:href="#DejaVuSans-97"/>
     <use x="1574.751953" xlink:href="#DejaVuSans-108"/>
     <use x="1602.535156" xlink:href="#DejaVuSans-100"/>
     <use x="1666.011719" xlink:href="#DejaVuSans-237"/>
     <use x="1693.794922" xlink:href="#DejaVuSans-97"/>
    </g>
   </g>
  </g>
 </g>
 <defs>
  <clipPath id="p2b6c6fc415">
   <rect height="283.55015" width="658.4" x="50.8" y="26.8"/>
  </clipPath>
 </defs>
</svg>
