<?xml version="1.0" encoding="utf-8" standalone="no"?>
<!DOCTYPE svg PUBLIC "-//W3C//DTD SVG 1.1//EN"
  "http://www.w3.org/Graphics/SVG/1.1/DTD/svg11.dtd">
<!-- Created with matplotlib (https://matplotlib.org/) -->
<svg height="432pt" version="1.1" viewBox="0 0 720 432" width="720pt" xmlns="http://www.w3.org/2000/svg" xmlns:xlink="http://www.w3.org/1999/xlink">
 <metadata>
  <rdf:RDF xmlns:cc="http://creativecommons.org/ns#" xmlns:dc="http://purl.org/dc/elements/1.1/" xmlns:rdf="http://www.w3.org/1999/02/22-rdf-syntax-ns#">
   <cc:Work>
    <dc:type rdf:resource="http://purl.org/dc/dcmitype/StillImage"/>
    <dc:date>2021-01-14T17:46:54.657735</dc:date>
    <dc:format>image/svg+xml</dc:format>
    <dc:creator>
     <cc:Agent>
      <dc:title>Matplotlib v3.3.2, https://matplotlib.org/</dc:title>
     </cc:Agent>
    </dc:creator>
   </cc:Work>
  </rdf:RDF>
 </metadata>
 <defs>
  <style type="text/css">*{stroke-linecap:butt;stroke-linejoin:round;}</style>
 </defs>
 <g id="figure_1">
  <g id="patch_1">
   <path d="M 0 432 
L 720 432 
L 720 0 
L 0 0 
z
" style="fill:none;"/>
  </g>
  <g id="axes_1">
   <g id="patch_2">
    <path d="M 57.3 301.858488 
L 709.2 301.858488 
L 709.2 28.3 
L 57.3 28.3 
z
" style="fill:#ffffff;"/>
   </g>
   <g id="patch_3">
    <path clip-path="url(#pc8b9399a18)" d="M 61.374375 301.858488 
L 93.969375 301.858488 
L 93.969375 41.326595 
L 61.374375 41.326595 
z
" style="fill:#1e785f;"/>
   </g>
   <g id="patch_4">
    <path clip-path="url(#pc8b9399a18)" d="M 102.118125 301.858488 
L 134.713125 301.858488 
L 134.713125 80.85304 
L 102.118125 80.85304 
z
" style="fill:#2c8062;"/>
   </g>
   <g id="patch_5">
    <path clip-path="url(#pc8b9399a18)" d="M 142.861875 301.858488 
L 175.456875 301.858488 
L 175.456875 184.380509 
L 142.861875 184.380509 
z
" style="fill:#3a8965;"/>
   </g>
   <g id="patch_6">
    <path clip-path="url(#pc8b9399a18)" d="M 183.605625 301.858488 
L 216.200625 301.858488 
L 216.200625 188.66356 
L 183.605625 188.66356 
z
" style="fill:#489168;"/>
   </g>
   <g id="patch_7">
    <path clip-path="url(#pc8b9399a18)" d="M 224.349375 301.858488 
L 256.944375 301.858488 
L 256.944375 199.67712 
L 224.349375 199.67712 
z
" style="fill:#569a6a;"/>
   </g>
   <g id="patch_8">
    <path clip-path="url(#pc8b9399a18)" d="M 265.093125 301.858488 
L 297.688125 301.858488 
L 297.688125 211.91441 
L 265.093125 211.91441 
z
" style="fill:#64a26d;"/>
   </g>
   <g id="patch_9">
    <path clip-path="url(#pc8b9399a18)" d="M 305.836875 301.858488 
L 338.431875 301.858488 
L 338.431875 213.62763 
L 305.836875 213.62763 
z
" style="fill:#72aa70;"/>
   </g>
   <g id="patch_10">
    <path clip-path="url(#pc8b9399a18)" d="M 346.580625 301.858488 
L 379.175625 301.858488 
L 379.175625 224.274072 
L 346.580625 224.274072 
z
" style="fill:#7eb171;"/>
   </g>
   <g id="patch_11">
    <path clip-path="url(#pc8b9399a18)" d="M 387.324375 301.858488 
L 419.919375 301.858488 
L 419.919375 230.759836 
L 387.324375 230.759836 
z
" style="fill:#8ab772;"/>
   </g>
   <g id="patch_12">
    <path clip-path="url(#pc8b9399a18)" d="M 428.068125 301.858488 
L 460.663125 301.858488 
L 460.663125 232.473056 
L 428.068125 232.473056 
z
" style="fill:#97be73;"/>
   </g>
   <g id="patch_13">
    <path clip-path="url(#pc8b9399a18)" d="M 468.811875 301.858488 
L 501.406875 301.858488 
L 501.406875 242.630006 
L 468.811875 242.630006 
z
" style="fill:#a3c573;"/>
   </g>
   <g id="patch_14">
    <path clip-path="url(#pc8b9399a18)" d="M 509.555625 301.858488 
L 542.150625 301.858488 
L 542.150625 247.035431 
L 509.555625 247.035431 
z
" style="fill:#afcb74;"/>
   </g>
   <g id="patch_15">
    <path clip-path="url(#pc8b9399a18)" d="M 550.299375 301.858488 
L 582.894375 301.858488 
L 582.894375 254.62255 
L 550.299375 254.62255 
z
" style="fill:#bbd275;"/>
   </g>
   <g id="patch_16">
    <path clip-path="url(#pc8b9399a18)" d="M 591.043125 301.858488 
L 623.638125 301.858488 
L 623.638125 277.139163 
L 591.043125 277.139163 
z
" style="fill:#c7d876;"/>
   </g>
   <g id="patch_17">
    <path clip-path="url(#pc8b9399a18)" d="M 631.786875 301.858488 
L 664.381875 301.858488 
L 664.381875 277.8734 
L 631.786875 277.8734 
z
" style="fill:#d3df77;"/>
   </g>
   <g id="patch_18">
    <path clip-path="url(#pc8b9399a18)" d="M 672.530625 301.858488 
L 705.125625 301.858488 
L 705.125625 285.950011 
L 672.530625 285.950011 
z
" style="fill:#e0e578;"/>
   </g>
   <g id="matplotlib.axis_1">
    <g id="xtick_1">
     <g id="line2d_1">
      <defs>
       <path d="M 0 0 
L 0 3.5 
" id="mb5fe8e12fe" style="stroke:#000000;stroke-width:0.8;"/>
      </defs>
      <g>
       <use style="stroke:#000000;stroke-width:0.8;" x="77.671875" xlink:href="#mb5fe8e12fe" y="301.858488"/>
      </g>
     </g>
     <g id="text_1">
      <!-- Iztapalapa -->
      <g transform="translate(73.594182 361.15588)rotate(-75)scale(0.1 -0.1)">
       <defs>
        <path d="M 9.8125 72.90625 
L 19.671875 72.90625 
L 19.671875 0 
L 9.8125 0 
z
" id="DejaVuSans-73"/>
        <path d="M 5.515625 54.6875 
L 48.1875 54.6875 
L 48.1875 46.484375 
L 14.40625 7.171875 
L 48.1875 7.171875 
L 48.1875 0 
L 4.296875 0 
L 4.296875 8.203125 
L 38.09375 47.515625 
L 5.515625 47.515625 
z
" id="DejaVuSans-122"/>
        <path d="M 18.3125 70.21875 
L 18.3125 54.6875 
L 36.8125 54.6875 
L 36.8125 47.703125 
L 18.3125 47.703125 
L 18.3125 18.015625 
Q 18.3125 11.328125 20.140625 9.421875 
Q 21.96875 7.515625 27.59375 7.515625 
L 36.8125 7.515625 
L 36.8125 0 
L 27.59375 0 
Q 17.1875 0 13.234375 3.875 
Q 9.28125 7.765625 9.28125 18.015625 
L 9.28125 47.703125 
L 2.6875 47.703125 
L 2.6875 54.6875 
L 9.28125 54.6875 
L 9.28125 70.21875 
z
" id="DejaVuSans-116"/>
        <path d="M 34.28125 27.484375 
Q 23.390625 27.484375 19.1875 25 
Q 14.984375 22.515625 14.984375 16.5 
Q 14.984375 11.71875 18.140625 8.90625 
Q 21.296875 6.109375 26.703125 6.109375 
Q 34.1875 6.109375 38.703125 11.40625 
Q 43.21875 16.703125 43.21875 25.484375 
L 43.21875 27.484375 
z
M 52.203125 31.203125 
L 52.203125 0 
L 43.21875 0 
L 43.21875 8.296875 
Q 40.140625 3.328125 35.546875 0.953125 
Q 30.953125 -1.421875 24.3125 -1.421875 
Q 15.921875 -1.421875 10.953125 3.296875 
Q 6 8.015625 6 15.921875 
Q 6 25.140625 12.171875 29.828125 
Q 18.359375 34.515625 30.609375 34.515625 
L 43.21875 34.515625 
L 43.21875 35.40625 
Q 43.21875 41.609375 39.140625 45 
Q 35.0625 48.390625 27.6875 48.390625 
Q 23 48.390625 18.546875 47.265625 
Q 14.109375 46.140625 10.015625 43.890625 
L 10.015625 52.203125 
Q 14.9375 54.109375 19.578125 55.046875 
Q 24.21875 56 28.609375 56 
Q 40.484375 56 46.34375 49.84375 
Q 52.203125 43.703125 52.203125 31.203125 
z
" id="DejaVuSans-97"/>
        <path d="M 18.109375 8.203125 
L 18.109375 -20.796875 
L 9.078125 -20.796875 
L 9.078125 54.6875 
L 18.109375 54.6875 
L 18.109375 46.390625 
Q 20.953125 51.265625 25.265625 53.625 
Q 29.59375 56 35.59375 56 
Q 45.5625 56 51.78125 48.09375 
Q 58.015625 40.1875 58.015625 27.296875 
Q 58.015625 14.40625 51.78125 6.484375 
Q 45.5625 -1.421875 35.59375 -1.421875 
Q 29.59375 -1.421875 25.265625 0.953125 
Q 20.953125 3.328125 18.109375 8.203125 
z
M 48.6875 27.296875 
Q 48.6875 37.203125 44.609375 42.84375 
Q 40.53125 48.484375 33.40625 48.484375 
Q 26.265625 48.484375 22.1875 42.84375 
Q 18.109375 37.203125 18.109375 27.296875 
Q 18.109375 17.390625 22.1875 11.75 
Q 26.265625 6.109375 33.40625 6.109375 
Q 40.53125 6.109375 44.609375 11.75 
Q 48.6875 17.390625 48.6875 27.296875 
z
" id="DejaVuSans-112"/>
        <path d="M 9.421875 75.984375 
L 18.40625 75.984375 
L 18.40625 0 
L 9.421875 0 
z
" id="DejaVuSans-108"/>
       </defs>
       <use xlink:href="#DejaVuSans-73"/>
       <use x="29.492188" xlink:href="#DejaVuSans-122"/>
       <use x="81.982422" xlink:href="#DejaVuSans-116"/>
       <use x="121.191406" xlink:href="#DejaVuSans-97"/>
       <use x="182.470703" xlink:href="#DejaVuSans-112"/>
       <use x="245.947266" xlink:href="#DejaVuSans-97"/>
       <use x="307.226562" xlink:href="#DejaVuSans-108"/>
       <use x="335.009766" xlink:href="#DejaVuSans-97"/>
       <use x="396.289062" xlink:href="#DejaVuSans-112"/>
       <use x="459.765625" xlink:href="#DejaVuSans-97"/>
      </g>
     </g>
    </g>
    <g id="xtick_2">
     <g id="line2d_2">
      <g>
       <use style="stroke:#000000;stroke-width:0.8;" x="118.415625" xlink:href="#mb5fe8e12fe" y="301.858488"/>
      </g>
     </g>
     <g id="text_2">
      <!-- Coyoacán -->
      <g transform="translate(114.903169 358.482371)rotate(-75)scale(0.1 -0.1)">
       <defs>
        <path d="M 64.40625 67.28125 
L 64.40625 56.890625 
Q 59.421875 61.53125 53.78125 63.8125 
Q 48.140625 66.109375 41.796875 66.109375 
Q 29.296875 66.109375 22.65625 58.46875 
Q 16.015625 50.828125 16.015625 36.375 
Q 16.015625 21.96875 22.65625 14.328125 
Q 29.296875 6.6875 41.796875 6.6875 
Q 48.140625 6.6875 53.78125 8.984375 
Q 59.421875 11.28125 64.40625 15.921875 
L 64.40625 5.609375 
Q 59.234375 2.09375 53.4375 0.328125 
Q 47.65625 -1.421875 41.21875 -1.421875 
Q 24.65625 -1.421875 15.125 8.703125 
Q 5.609375 18.84375 5.609375 36.375 
Q 5.609375 53.953125 15.125 64.078125 
Q 24.65625 74.21875 41.21875 74.21875 
Q 47.75 74.21875 53.53125 72.484375 
Q 59.328125 70.75 64.40625 67.28125 
z
" id="DejaVuSans-67"/>
        <path d="M 30.609375 48.390625 
Q 23.390625 48.390625 19.1875 42.75 
Q 14.984375 37.109375 14.984375 27.296875 
Q 14.984375 17.484375 19.15625 11.84375 
Q 23.34375 6.203125 30.609375 6.203125 
Q 37.796875 6.203125 41.984375 11.859375 
Q 46.1875 17.53125 46.1875 27.296875 
Q 46.1875 37.015625 41.984375 42.703125 
Q 37.796875 48.390625 30.609375 48.390625 
z
M 30.609375 56 
Q 42.328125 56 49.015625 48.375 
Q 55.71875 40.765625 55.71875 27.296875 
Q 55.71875 13.875 49.015625 6.21875 
Q 42.328125 -1.421875 30.609375 -1.421875 
Q 18.84375 -1.421875 12.171875 6.21875 
Q 5.515625 13.875 5.515625 27.296875 
Q 5.515625 40.765625 12.171875 48.375 
Q 18.84375 56 30.609375 56 
z
" id="DejaVuSans-111"/>
        <path d="M 32.171875 -5.078125 
Q 28.375 -14.84375 24.75 -17.8125 
Q 21.140625 -20.796875 15.09375 -20.796875 
L 7.90625 -20.796875 
L 7.90625 -13.28125 
L 13.1875 -13.28125 
Q 16.890625 -13.28125 18.9375 -11.515625 
Q 21 -9.765625 23.484375 -3.21875 
L 25.09375 0.875 
L 2.984375 54.6875 
L 12.5 54.6875 
L 29.59375 11.921875 
L 46.6875 54.6875 
L 56.203125 54.6875 
z
" id="DejaVuSans-121"/>
        <path d="M 48.78125 52.59375 
L 48.78125 44.1875 
Q 44.96875 46.296875 41.140625 47.34375 
Q 37.3125 48.390625 33.40625 48.390625 
Q 24.65625 48.390625 19.8125 42.84375 
Q 14.984375 37.3125 14.984375 27.296875 
Q 14.984375 17.28125 19.8125 11.734375 
Q 24.65625 6.203125 33.40625 6.203125 
Q 37.3125 6.203125 41.140625 7.25 
Q 44.96875 8.296875 48.78125 10.40625 
L 48.78125 2.09375 
Q 45.015625 0.34375 40.984375 -0.53125 
Q 36.96875 -1.421875 32.421875 -1.421875 
Q 20.0625 -1.421875 12.78125 6.34375 
Q 5.515625 14.109375 5.515625 27.296875 
Q 5.515625 40.671875 12.859375 48.328125 
Q 20.21875 56 33.015625 56 
Q 37.15625 56 41.109375 55.140625 
Q 45.0625 54.296875 48.78125 52.59375 
z
" id="DejaVuSans-99"/>
        <path d="M 34.28125 27.484375 
Q 23.390625 27.484375 19.1875 25 
Q 14.984375 22.515625 14.984375 16.5 
Q 14.984375 11.71875 18.140625 8.90625 
Q 21.296875 6.109375 26.703125 6.109375 
Q 34.1875 6.109375 38.703125 11.40625 
Q 43.21875 16.703125 43.21875 25.484375 
L 43.21875 27.484375 
z
M 52.203125 31.203125 
L 52.203125 0 
L 43.21875 0 
L 43.21875 8.296875 
Q 40.140625 3.328125 35.546875 0.953125 
Q 30.953125 -1.421875 24.3125 -1.421875 
Q 15.921875 -1.421875 10.953125 3.296875 
Q 6 8.015625 6 15.921875 
Q 6 25.140625 12.171875 29.828125 
Q 18.359375 34.515625 30.609375 34.515625 
L 43.21875 34.515625 
L 43.21875 35.40625 
Q 43.21875 41.609375 39.140625 45 
Q 35.0625 48.390625 27.6875 48.390625 
Q 23 48.390625 18.546875 47.265625 
Q 14.109375 46.140625 10.015625 43.890625 
L 10.015625 52.203125 
Q 14.9375 54.109375 19.578125 55.046875 
Q 24.21875 56 28.609375 56 
Q 40.484375 56 46.34375 49.84375 
Q 52.203125 43.703125 52.203125 31.203125 
z
M 35.796875 79.984375 
L 45.515625 79.984375 
L 29.59375 61.625 
L 22.125 61.625 
z
" id="DejaVuSans-225"/>
        <path d="M 54.890625 33.015625 
L 54.890625 0 
L 45.90625 0 
L 45.90625 32.71875 
Q 45.90625 40.484375 42.875 44.328125 
Q 39.84375 48.1875 33.796875 48.1875 
Q 26.515625 48.1875 22.3125 43.546875 
Q 18.109375 38.921875 18.109375 30.90625 
L 18.109375 0 
L 9.078125 0 
L 9.078125 54.6875 
L 18.109375 54.6875 
L 18.109375 46.1875 
Q 21.34375 51.125 25.703125 53.5625 
Q 30.078125 56 35.796875 56 
Q 45.21875 56 50.046875 50.171875 
Q 54.890625 44.34375 54.890625 33.015625 
z
" id="DejaVuSans-110"/>
       </defs>
       <use xlink:href="#DejaVuSans-67"/>
       <use x="69.824219" xlink:href="#DejaVuSans-111"/>
       <use x="131.005859" xlink:href="#DejaVuSans-121"/>
       <use x="190.185547" xlink:href="#DejaVuSans-111"/>
       <use x="251.367188" xlink:href="#DejaVuSans-97"/>
       <use x="312.646484" xlink:href="#DejaVuSans-99"/>
       <use x="367.626953" xlink:href="#DejaVuSans-225"/>
       <use x="428.90625" xlink:href="#DejaVuSans-110"/>
      </g>
     </g>
    </g>
    <g id="xtick_3">
     <g id="line2d_3">
      <g>
       <use style="stroke:#000000;stroke-width:0.8;" x="159.159375" xlink:href="#mb5fe8e12fe" y="301.858488"/>
      </g>
     </g>
     <g id="text_3">
      <!-- Azcapotzalco -->
      <g transform="translate(153.299874 374.455472)rotate(-75)scale(0.1 -0.1)">
       <defs>
        <path d="M 34.1875 63.1875 
L 20.796875 26.90625 
L 47.609375 26.90625 
z
M 28.609375 72.90625 
L 39.796875 72.90625 
L 67.578125 0 
L 57.328125 0 
L 50.6875 18.703125 
L 17.828125 18.703125 
L 11.1875 0 
L 0.78125 0 
z
" id="DejaVuSans-65"/>
       </defs>
       <use xlink:href="#DejaVuSans-65"/>
       <use x="68.408203" xlink:href="#DejaVuSans-122"/>
       <use x="120.898438" xlink:href="#DejaVuSans-99"/>
       <use x="175.878906" xlink:href="#DejaVuSans-97"/>
       <use x="237.158203" xlink:href="#DejaVuSans-112"/>
       <use x="300.634766" xlink:href="#DejaVuSans-111"/>
       <use x="361.816406" xlink:href="#DejaVuSans-116"/>
       <use x="401.025391" xlink:href="#DejaVuSans-122"/>
       <use x="453.515625" xlink:href="#DejaVuSans-97"/>
       <use x="514.794922" xlink:href="#DejaVuSans-108"/>
       <use x="542.578125" xlink:href="#DejaVuSans-99"/>
       <use x="597.558594" xlink:href="#DejaVuSans-111"/>
      </g>
     </g>
    </g>
    <g id="xtick_4">
     <g id="line2d_4">
      <g>
       <use style="stroke:#000000;stroke-width:0.8;" x="199.903125" xlink:href="#mb5fe8e12fe" y="301.858488"/>
      </g>
     </g>
     <g id="text_4">
      <!-- Miguel Hidalgo -->
      <g transform="translate(192.963459 382.517934)rotate(-75)scale(0.1 -0.1)">
       <defs>
        <path d="M 9.8125 72.90625 
L 24.515625 72.90625 
L 43.109375 23.296875 
L 61.8125 72.90625 
L 76.515625 72.90625 
L 76.515625 0 
L 66.890625 0 
L 66.890625 64.015625 
L 48.09375 14.015625 
L 38.1875 14.015625 
L 19.390625 64.015625 
L 19.390625 0 
L 9.8125 0 
z
" id="DejaVuSans-77"/>
        <path d="M 9.421875 54.6875 
L 18.40625 54.6875 
L 18.40625 0 
L 9.421875 0 
z
M 9.421875 75.984375 
L 18.40625 75.984375 
L 18.40625 64.59375 
L 9.421875 64.59375 
z
" id="DejaVuSans-105"/>
        <path d="M 45.40625 27.984375 
Q 45.40625 37.75 41.375 43.109375 
Q 37.359375 48.484375 30.078125 48.484375 
Q 22.859375 48.484375 18.828125 43.109375 
Q 14.796875 37.75 14.796875 27.984375 
Q 14.796875 18.265625 18.828125 12.890625 
Q 22.859375 7.515625 30.078125 7.515625 
Q 37.359375 7.515625 41.375 12.890625 
Q 45.40625 18.265625 45.40625 27.984375 
z
M 54.390625 6.78125 
Q 54.390625 -7.171875 48.1875 -13.984375 
Q 42 -20.796875 29.203125 -20.796875 
Q 24.46875 -20.796875 20.265625 -20.09375 
Q 16.0625 -19.390625 12.109375 -17.921875 
L 12.109375 -9.1875 
Q 16.0625 -11.328125 19.921875 -12.34375 
Q 23.78125 -13.375 27.78125 -13.375 
Q 36.625 -13.375 41.015625 -8.765625 
Q 45.40625 -4.15625 45.40625 5.171875 
L 45.40625 9.625 
Q 42.625 4.78125 38.28125 2.390625 
Q 33.9375 0 27.875 0 
Q 17.828125 0 11.671875 7.65625 
Q 5.515625 15.328125 5.515625 27.984375 
Q 5.515625 40.671875 11.671875 48.328125 
Q 17.828125 56 27.875 56 
Q 33.9375 56 38.28125 53.609375 
Q 42.625 51.21875 45.40625 46.390625 
L 45.40625 54.6875 
L 54.390625 54.6875 
z
" id="DejaVuSans-103"/>
        <path d="M 8.5 21.578125 
L 8.5 54.6875 
L 17.484375 54.6875 
L 17.484375 21.921875 
Q 17.484375 14.15625 20.5 10.265625 
Q 23.53125 6.390625 29.59375 6.390625 
Q 36.859375 6.390625 41.078125 11.03125 
Q 45.3125 15.671875 45.3125 23.6875 
L 45.3125 54.6875 
L 54.296875 54.6875 
L 54.296875 0 
L 45.3125 0 
L 45.3125 8.40625 
Q 42.046875 3.421875 37.71875 1 
Q 33.40625 -1.421875 27.6875 -1.421875 
Q 18.265625 -1.421875 13.375 4.4375 
Q 8.5 10.296875 8.5 21.578125 
z
M 31.109375 56 
z
" id="DejaVuSans-117"/>
        <path d="M 56.203125 29.59375 
L 56.203125 25.203125 
L 14.890625 25.203125 
Q 15.484375 15.921875 20.484375 11.0625 
Q 25.484375 6.203125 34.421875 6.203125 
Q 39.59375 6.203125 44.453125 7.46875 
Q 49.3125 8.734375 54.109375 11.28125 
L 54.109375 2.78125 
Q 49.265625 0.734375 44.1875 -0.34375 
Q 39.109375 -1.421875 33.890625 -1.421875 
Q 20.796875 -1.421875 13.15625 6.1875 
Q 5.515625 13.8125 5.515625 26.8125 
Q 5.515625 40.234375 12.765625 48.109375 
Q 20.015625 56 32.328125 56 
Q 43.359375 56 49.78125 48.890625 
Q 56.203125 41.796875 56.203125 29.59375 
z
M 47.21875 32.234375 
Q 47.125 39.59375 43.09375 43.984375 
Q 39.0625 48.390625 32.421875 48.390625 
Q 24.90625 48.390625 20.390625 44.140625 
Q 15.875 39.890625 15.1875 32.171875 
z
" id="DejaVuSans-101"/>
        <path id="DejaVuSans-32"/>
        <path d="M 9.8125 72.90625 
L 19.671875 72.90625 
L 19.671875 43.015625 
L 55.515625 43.015625 
L 55.515625 72.90625 
L 65.375 72.90625 
L 65.375 0 
L 55.515625 0 
L 55.515625 34.71875 
L 19.671875 34.71875 
L 19.671875 0 
L 9.8125 0 
z
" id="DejaVuSans-72"/>
        <path d="M 45.40625 46.390625 
L 45.40625 75.984375 
L 54.390625 75.984375 
L 54.390625 0 
L 45.40625 0 
L 45.40625 8.203125 
Q 42.578125 3.328125 38.25 0.953125 
Q 33.9375 -1.421875 27.875 -1.421875 
Q 17.96875 -1.421875 11.734375 6.484375 
Q 5.515625 14.40625 5.515625 27.296875 
Q 5.515625 40.1875 11.734375 48.09375 
Q 17.96875 56 27.875 56 
Q 33.9375 56 38.25 53.625 
Q 42.578125 51.265625 45.40625 46.390625 
z
M 14.796875 27.296875 
Q 14.796875 17.390625 18.875 11.75 
Q 22.953125 6.109375 30.078125 6.109375 
Q 37.203125 6.109375 41.296875 11.75 
Q 45.40625 17.390625 45.40625 27.296875 
Q 45.40625 37.203125 41.296875 42.84375 
Q 37.203125 48.484375 30.078125 48.484375 
Q 22.953125 48.484375 18.875 42.84375 
Q 14.796875 37.203125 14.796875 27.296875 
z
" id="DejaVuSans-100"/>
       </defs>
       <use xlink:href="#DejaVuSans-77"/>
       <use x="86.279297" xlink:href="#DejaVuSans-105"/>
       <use x="114.0625" xlink:href="#DejaVuSans-103"/>
       <use x="177.539062" xlink:href="#DejaVuSans-117"/>
       <use x="240.917969" xlink:href="#DejaVuSans-101"/>
       <use x="302.441406" xlink:href="#DejaVuSans-108"/>
       <use x="330.224609" xlink:href="#DejaVuSans-32"/>
       <use x="362.011719" xlink:href="#DejaVuSans-72"/>
       <use x="437.207031" xlink:href="#DejaVuSans-105"/>
       <use x="464.990234" xlink:href="#DejaVuSans-100"/>
       <use x="528.466797" xlink:href="#DejaVuSans-97"/>
       <use x="589.746094" xlink:href="#DejaVuSans-108"/>
       <use x="617.529297" xlink:href="#DejaVuSans-103"/>
       <use x="681.005859" xlink:href="#DejaVuSans-111"/>
      </g>
     </g>
    </g>
    <g id="xtick_5">
     <g id="line2d_5">
      <g>
       <use style="stroke:#000000;stroke-width:0.8;" x="240.646875" xlink:href="#mb5fe8e12fe" y="301.858488"/>
      </g>
     </g>
     <g id="text_5">
      <!-- Gustavo A. Madero -->
      <g transform="translate(231.038542 402.437135)rotate(-75)scale(0.1 -0.1)">
       <defs>
        <path d="M 59.515625 10.40625 
L 59.515625 29.984375 
L 43.40625 29.984375 
L 43.40625 38.09375 
L 69.28125 38.09375 
L 69.28125 6.78125 
Q 63.578125 2.734375 56.6875 0.65625 
Q 49.8125 -1.421875 42 -1.421875 
Q 24.90625 -1.421875 15.25 8.5625 
Q 5.609375 18.5625 5.609375 36.375 
Q 5.609375 54.25 15.25 64.234375 
Q 24.90625 74.21875 42 74.21875 
Q 49.125 74.21875 55.546875 72.453125 
Q 61.96875 70.703125 67.390625 67.28125 
L 67.390625 56.78125 
Q 61.921875 61.421875 55.765625 63.765625 
Q 49.609375 66.109375 42.828125 66.109375 
Q 29.4375 66.109375 22.71875 58.640625 
Q 16.015625 51.171875 16.015625 36.375 
Q 16.015625 21.625 22.71875 14.15625 
Q 29.4375 6.6875 42.828125 6.6875 
Q 48.046875 6.6875 52.140625 7.59375 
Q 56.25 8.5 59.515625 10.40625 
z
" id="DejaVuSans-71"/>
        <path d="M 44.28125 53.078125 
L 44.28125 44.578125 
Q 40.484375 46.53125 36.375 47.5 
Q 32.28125 48.484375 27.875 48.484375 
Q 21.1875 48.484375 17.84375 46.4375 
Q 14.5 44.390625 14.5 40.28125 
Q 14.5 37.15625 16.890625 35.375 
Q 19.28125 33.59375 26.515625 31.984375 
L 29.59375 31.296875 
Q 39.15625 29.25 43.1875 25.515625 
Q 47.21875 21.78125 47.21875 15.09375 
Q 47.21875 7.46875 41.1875 3.015625 
Q 35.15625 -1.421875 24.609375 -1.421875 
Q 20.21875 -1.421875 15.453125 -0.5625 
Q 10.6875 0.296875 5.421875 2 
L 5.421875 11.28125 
Q 10.40625 8.6875 15.234375 7.390625 
Q 20.0625 6.109375 24.8125 6.109375 
Q 31.15625 6.109375 34.5625 8.28125 
Q 37.984375 10.453125 37.984375 14.40625 
Q 37.984375 18.0625 35.515625 20.015625 
Q 33.0625 21.96875 24.703125 23.78125 
L 21.578125 24.515625 
Q 13.234375 26.265625 9.515625 29.90625 
Q 5.8125 33.546875 5.8125 39.890625 
Q 5.8125 47.609375 11.28125 51.796875 
Q 16.75 56 26.8125 56 
Q 31.78125 56 36.171875 55.265625 
Q 40.578125 54.546875 44.28125 53.078125 
z
" id="DejaVuSans-115"/>
        <path d="M 2.984375 54.6875 
L 12.5 54.6875 
L 29.59375 8.796875 
L 46.6875 54.6875 
L 56.203125 54.6875 
L 35.6875 0 
L 23.484375 0 
z
" id="DejaVuSans-118"/>
        <path d="M 10.6875 12.40625 
L 21 12.40625 
L 21 0 
L 10.6875 0 
z
" id="DejaVuSans-46"/>
        <path d="M 41.109375 46.296875 
Q 39.59375 47.171875 37.8125 47.578125 
Q 36.03125 48 33.890625 48 
Q 26.265625 48 22.1875 43.046875 
Q 18.109375 38.09375 18.109375 28.8125 
L 18.109375 0 
L 9.078125 0 
L 9.078125 54.6875 
L 18.109375 54.6875 
L 18.109375 46.1875 
Q 20.953125 51.171875 25.484375 53.578125 
Q 30.03125 56 36.53125 56 
Q 37.453125 56 38.578125 55.875 
Q 39.703125 55.765625 41.0625 55.515625 
z
" id="DejaVuSans-114"/>
       </defs>
       <use xlink:href="#DejaVuSans-71"/>
       <use x="77.490234" xlink:href="#DejaVuSans-117"/>
       <use x="140.869141" xlink:href="#DejaVuSans-115"/>
       <use x="192.96875" xlink:href="#DejaVuSans-116"/>
       <use x="232.177734" xlink:href="#DejaVuSans-97"/>
       <use x="293.457031" xlink:href="#DejaVuSans-118"/>
       <use x="352.636719" xlink:href="#DejaVuSans-111"/>
       <use x="413.818359" xlink:href="#DejaVuSans-32"/>
       <use x="445.605469" xlink:href="#DejaVuSans-65"/>
       <use x="512.263672" xlink:href="#DejaVuSans-46"/>
       <use x="544.050781" xlink:href="#DejaVuSans-32"/>
       <use x="575.837891" xlink:href="#DejaVuSans-77"/>
       <use x="662.117188" xlink:href="#DejaVuSans-97"/>
       <use x="723.396484" xlink:href="#DejaVuSans-100"/>
       <use x="786.873047" xlink:href="#DejaVuSans-101"/>
       <use x="848.396484" xlink:href="#DejaVuSans-114"/>
       <use x="887.259766" xlink:href="#DejaVuSans-111"/>
      </g>
     </g>
    </g>
    <g id="xtick_6">
     <g id="line2d_6">
      <g>
       <use style="stroke:#000000;stroke-width:0.8;" x="281.390625" xlink:href="#mb5fe8e12fe" y="301.858488"/>
      </g>
     </g>
     <g id="text_6">
      <!-- Tlalpan -->
      <g transform="translate(279.318779 346.18403)rotate(-75)scale(0.1 -0.1)">
       <defs>
        <path d="M -0.296875 72.90625 
L 61.375 72.90625 
L 61.375 64.59375 
L 35.5 64.59375 
L 35.5 0 
L 25.59375 0 
L 25.59375 64.59375 
L -0.296875 64.59375 
z
" id="DejaVuSans-84"/>
       </defs>
       <use xlink:href="#DejaVuSans-84"/>
       <use x="61.083984" xlink:href="#DejaVuSans-108"/>
       <use x="88.867188" xlink:href="#DejaVuSans-97"/>
       <use x="150.146484" xlink:href="#DejaVuSans-108"/>
       <use x="177.929688" xlink:href="#DejaVuSans-112"/>
       <use x="241.40625" xlink:href="#DejaVuSans-97"/>
       <use x="302.685547" xlink:href="#DejaVuSans-110"/>
      </g>
     </g>
    </g>
    <g id="xtick_7">
     <g id="line2d_7">
      <g>
       <use style="stroke:#000000;stroke-width:0.8;" x="322.134375" xlink:href="#mb5fe8e12fe" y="301.858488"/>
      </g>
     </g>
     <g id="text_7">
      <!-- Álvaro Obregón -->
      <g transform="translate(315.52607 386.516326)rotate(-75)scale(0.1 -0.1)">
       <defs>
        <path d="M 34.1875 63.1875 
L 20.796875 26.90625 
L 47.609375 26.90625 
z
M 28.609375 72.90625 
L 39.796875 72.90625 
L 67.578125 0 
L 57.328125 0 
L 50.6875 18.703125 
L 17.828125 18.703125 
L 11.1875 0 
L 0.78125 0 
z
M 36.859375 92.734375 
L 45.90625 92.734375 
L 34.765625 79.84375 
L 27.296875 79.84375 
z
" id="DejaVuSans-193"/>
        <path d="M 39.40625 66.21875 
Q 28.65625 66.21875 22.328125 58.203125 
Q 16.015625 50.203125 16.015625 36.375 
Q 16.015625 22.609375 22.328125 14.59375 
Q 28.65625 6.59375 39.40625 6.59375 
Q 50.140625 6.59375 56.421875 14.59375 
Q 62.703125 22.609375 62.703125 36.375 
Q 62.703125 50.203125 56.421875 58.203125 
Q 50.140625 66.21875 39.40625 66.21875 
z
M 39.40625 74.21875 
Q 54.734375 74.21875 63.90625 63.9375 
Q 73.09375 53.65625 73.09375 36.375 
Q 73.09375 19.140625 63.90625 8.859375 
Q 54.734375 -1.421875 39.40625 -1.421875 
Q 24.03125 -1.421875 14.8125 8.828125 
Q 5.609375 19.09375 5.609375 36.375 
Q 5.609375 53.65625 14.8125 63.9375 
Q 24.03125 74.21875 39.40625 74.21875 
z
" id="DejaVuSans-79"/>
        <path d="M 48.6875 27.296875 
Q 48.6875 37.203125 44.609375 42.84375 
Q 40.53125 48.484375 33.40625 48.484375 
Q 26.265625 48.484375 22.1875 42.84375 
Q 18.109375 37.203125 18.109375 27.296875 
Q 18.109375 17.390625 22.1875 11.75 
Q 26.265625 6.109375 33.40625 6.109375 
Q 40.53125 6.109375 44.609375 11.75 
Q 48.6875 17.390625 48.6875 27.296875 
z
M 18.109375 46.390625 
Q 20.953125 51.265625 25.265625 53.625 
Q 29.59375 56 35.59375 56 
Q 45.5625 56 51.78125 48.09375 
Q 58.015625 40.1875 58.015625 27.296875 
Q 58.015625 14.40625 51.78125 6.484375 
Q 45.5625 -1.421875 35.59375 -1.421875 
Q 29.59375 -1.421875 25.265625 0.953125 
Q 20.953125 3.328125 18.109375 8.203125 
L 18.109375 0 
L 9.078125 0 
L 9.078125 75.984375 
L 18.109375 75.984375 
z
" id="DejaVuSans-98"/>
        <path d="M 30.609375 48.390625 
Q 23.390625 48.390625 19.1875 42.75 
Q 14.984375 37.109375 14.984375 27.296875 
Q 14.984375 17.484375 19.15625 11.84375 
Q 23.34375 6.203125 30.609375 6.203125 
Q 37.796875 6.203125 41.984375 11.859375 
Q 46.1875 17.53125 46.1875 27.296875 
Q 46.1875 37.015625 41.984375 42.703125 
Q 37.796875 48.390625 30.609375 48.390625 
z
M 30.609375 56 
Q 42.328125 56 49.015625 48.375 
Q 55.71875 40.765625 55.71875 27.296875 
Q 55.71875 13.875 49.015625 6.21875 
Q 42.328125 -1.421875 30.609375 -1.421875 
Q 18.84375 -1.421875 12.171875 6.21875 
Q 5.515625 13.875 5.515625 27.296875 
Q 5.515625 40.765625 12.171875 48.375 
Q 18.84375 56 30.609375 56 
z
M 37.40625 79.984375 
L 47.125 79.984375 
L 31.203125 61.625 
L 23.734375 61.625 
z
" id="DejaVuSans-243"/>
       </defs>
       <use xlink:href="#DejaVuSans-193"/>
       <use x="68.408203" xlink:href="#DejaVuSans-108"/>
       <use x="96.191406" xlink:href="#DejaVuSans-118"/>
       <use x="155.371094" xlink:href="#DejaVuSans-97"/>
       <use x="216.650391" xlink:href="#DejaVuSans-114"/>
       <use x="255.513672" xlink:href="#DejaVuSans-111"/>
       <use x="316.695312" xlink:href="#DejaVuSans-32"/>
       <use x="348.482422" xlink:href="#DejaVuSans-79"/>
       <use x="427.193359" xlink:href="#DejaVuSans-98"/>
       <use x="490.669922" xlink:href="#DejaVuSans-114"/>
       <use x="529.533203" xlink:href="#DejaVuSans-101"/>
       <use x="591.056641" xlink:href="#DejaVuSans-103"/>
       <use x="654.533203" xlink:href="#DejaVuSans-243"/>
       <use x="715.714844" xlink:href="#DejaVuSans-110"/>
      </g>
     </g>
    </g>
    <g id="xtick_8">
     <g id="line2d_8">
      <g>
       <use style="stroke:#000000;stroke-width:0.8;" x="362.878125" xlink:href="#mb5fe8e12fe" y="301.858488"/>
      </g>
     </g>
     <g id="text_8">
      <!-- Venustiano Carranza -->
      <g transform="translate(352.141301 410.860311)rotate(-75)scale(0.1 -0.1)">
       <defs>
        <path d="M 28.609375 0 
L 0.78125 72.90625 
L 11.078125 72.90625 
L 34.1875 11.53125 
L 57.328125 72.90625 
L 67.578125 72.90625 
L 39.796875 0 
z
" id="DejaVuSans-86"/>
       </defs>
       <use xlink:href="#DejaVuSans-86"/>
       <use x="60.658203" xlink:href="#DejaVuSans-101"/>
       <use x="122.181641" xlink:href="#DejaVuSans-110"/>
       <use x="185.560547" xlink:href="#DejaVuSans-117"/>
       <use x="248.939453" xlink:href="#DejaVuSans-115"/>
       <use x="301.039062" xlink:href="#DejaVuSans-116"/>
       <use x="340.248047" xlink:href="#DejaVuSans-105"/>
       <use x="368.03125" xlink:href="#DejaVuSans-97"/>
       <use x="429.310547" xlink:href="#DejaVuSans-110"/>
       <use x="492.689453" xlink:href="#DejaVuSans-111"/>
       <use x="553.871094" xlink:href="#DejaVuSans-32"/>
       <use x="585.658203" xlink:href="#DejaVuSans-67"/>
       <use x="655.482422" xlink:href="#DejaVuSans-97"/>
       <use x="716.761719" xlink:href="#DejaVuSans-114"/>
       <use x="756.125" xlink:href="#DejaVuSans-114"/>
       <use x="797.238281" xlink:href="#DejaVuSans-97"/>
       <use x="858.517578" xlink:href="#DejaVuSans-110"/>
       <use x="921.896484" xlink:href="#DejaVuSans-122"/>
       <use x="974.386719" xlink:href="#DejaVuSans-97"/>
      </g>
     </g>
    </g>
    <g id="xtick_9">
     <g id="line2d_9">
      <g>
       <use style="stroke:#000000;stroke-width:0.8;" x="403.621875" xlink:href="#mb5fe8e12fe" y="301.858488"/>
      </g>
     </g>
     <g id="text_9">
      <!-- Tláhuac -->
      <g transform="translate(401.19941 348.801085)rotate(-75)scale(0.1 -0.1)">
       <defs>
        <path d="M 54.890625 33.015625 
L 54.890625 0 
L 45.90625 0 
L 45.90625 32.71875 
Q 45.90625 40.484375 42.875 44.328125 
Q 39.84375 48.1875 33.796875 48.1875 
Q 26.515625 48.1875 22.3125 43.546875 
Q 18.109375 38.921875 18.109375 30.90625 
L 18.109375 0 
L 9.078125 0 
L 9.078125 75.984375 
L 18.109375 75.984375 
L 18.109375 46.1875 
Q 21.34375 51.125 25.703125 53.5625 
Q 30.078125 56 35.796875 56 
Q 45.21875 56 50.046875 50.171875 
Q 54.890625 44.34375 54.890625 33.015625 
z
" id="DejaVuSans-104"/>
       </defs>
       <use xlink:href="#DejaVuSans-84"/>
       <use x="61.083984" xlink:href="#DejaVuSans-108"/>
       <use x="88.867188" xlink:href="#DejaVuSans-225"/>
       <use x="150.146484" xlink:href="#DejaVuSans-104"/>
       <use x="213.525391" xlink:href="#DejaVuSans-117"/>
       <use x="276.904297" xlink:href="#DejaVuSans-97"/>
       <use x="338.183594" xlink:href="#DejaVuSans-99"/>
      </g>
     </g>
    </g>
    <g id="xtick_10">
     <g id="line2d_10">
      <g>
       <use style="stroke:#000000;stroke-width:0.8;" x="444.365625" xlink:href="#mb5fe8e12fe" y="301.858488"/>
      </g>
     </g>
     <g id="text_10">
      <!-- Cuauhtémoc -->
      <g transform="translate(438.806395 372.214222)rotate(-75)scale(0.1 -0.1)">
       <defs>
        <path d="M 56.203125 29.59375 
L 56.203125 25.203125 
L 14.890625 25.203125 
Q 15.484375 15.921875 20.484375 11.0625 
Q 25.484375 6.203125 34.421875 6.203125 
Q 39.59375 6.203125 44.453125 7.46875 
Q 49.3125 8.734375 54.109375 11.28125 
L 54.109375 2.78125 
Q 49.265625 0.734375 44.1875 -0.34375 
Q 39.109375 -1.421875 33.890625 -1.421875 
Q 20.796875 -1.421875 13.15625 6.1875 
Q 5.515625 13.8125 5.515625 26.8125 
Q 5.515625 40.234375 12.765625 48.109375 
Q 20.015625 56 32.328125 56 
Q 43.359375 56 49.78125 48.890625 
Q 56.203125 41.796875 56.203125 29.59375 
z
M 47.21875 32.234375 
Q 47.125 39.59375 43.09375 43.984375 
Q 39.0625 48.390625 32.421875 48.390625 
Q 24.90625 48.390625 20.390625 44.140625 
Q 15.875 39.890625 15.1875 32.171875 
z
M 38.578125 79.984375 
L 48.296875 79.984375 
L 32.375 61.625 
L 24.90625 61.625 
z
" id="DejaVuSans-233"/>
        <path d="M 52 44.1875 
Q 55.375 50.25 60.0625 53.125 
Q 64.75 56 71.09375 56 
Q 79.640625 56 84.28125 50.015625 
Q 88.921875 44.046875 88.921875 33.015625 
L 88.921875 0 
L 79.890625 0 
L 79.890625 32.71875 
Q 79.890625 40.578125 77.09375 44.375 
Q 74.3125 48.1875 68.609375 48.1875 
Q 61.625 48.1875 57.5625 43.546875 
Q 53.515625 38.921875 53.515625 30.90625 
L 53.515625 0 
L 44.484375 0 
L 44.484375 32.71875 
Q 44.484375 40.625 41.703125 44.40625 
Q 38.921875 48.1875 33.109375 48.1875 
Q 26.21875 48.1875 22.15625 43.53125 
Q 18.109375 38.875 18.109375 30.90625 
L 18.109375 0 
L 9.078125 0 
L 9.078125 54.6875 
L 18.109375 54.6875 
L 18.109375 46.1875 
Q 21.1875 51.21875 25.484375 53.609375 
Q 29.78125 56 35.6875 56 
Q 41.65625 56 45.828125 52.96875 
Q 50 49.953125 52 44.1875 
z
" id="DejaVuSans-109"/>
       </defs>
       <use xlink:href="#DejaVuSans-67"/>
       <use x="69.824219" xlink:href="#DejaVuSans-117"/>
       <use x="133.203125" xlink:href="#DejaVuSans-97"/>
       <use x="194.482422" xlink:href="#DejaVuSans-117"/>
       <use x="257.861328" xlink:href="#DejaVuSans-104"/>
       <use x="321.240234" xlink:href="#DejaVuSans-116"/>
       <use x="360.449219" xlink:href="#DejaVuSans-233"/>
       <use x="421.972656" xlink:href="#DejaVuSans-109"/>
       <use x="519.384766" xlink:href="#DejaVuSans-111"/>
       <use x="580.566406" xlink:href="#DejaVuSans-99"/>
      </g>
     </g>
    </g>
    <g id="xtick_11">
     <g id="line2d_11">
      <g>
       <use style="stroke:#000000;stroke-width:0.8;" x="485.109375" xlink:href="#mb5fe8e12fe" y="301.858488"/>
      </g>
     </g>
     <g id="text_11">
      <!-- Benito Juárez -->
      <g transform="translate(479.382681 374.707816)rotate(-75)scale(0.1 -0.1)">
       <defs>
        <path d="M 19.671875 34.8125 
L 19.671875 8.109375 
L 35.5 8.109375 
Q 43.453125 8.109375 47.28125 11.40625 
Q 51.125 14.703125 51.125 21.484375 
Q 51.125 28.328125 47.28125 31.5625 
Q 43.453125 34.8125 35.5 34.8125 
z
M 19.671875 64.796875 
L 19.671875 42.828125 
L 34.28125 42.828125 
Q 41.5 42.828125 45.03125 45.53125 
Q 48.578125 48.25 48.578125 53.8125 
Q 48.578125 59.328125 45.03125 62.0625 
Q 41.5 64.796875 34.28125 64.796875 
z
M 9.8125 72.90625 
L 35.015625 72.90625 
Q 46.296875 72.90625 52.390625 68.21875 
Q 58.5 63.53125 58.5 54.890625 
Q 58.5 48.1875 55.375 44.234375 
Q 52.25 40.28125 46.1875 39.3125 
Q 53.46875 37.75 57.5 32.78125 
Q 61.53125 27.828125 61.53125 20.40625 
Q 61.53125 10.640625 54.890625 5.3125 
Q 48.25 0 35.984375 0 
L 9.8125 0 
z
" id="DejaVuSans-66"/>
        <path d="M 9.8125 72.90625 
L 19.671875 72.90625 
L 19.671875 5.078125 
Q 19.671875 -8.109375 14.671875 -14.0625 
Q 9.671875 -20.015625 -1.421875 -20.015625 
L -5.171875 -20.015625 
L -5.171875 -11.71875 
L -2.09375 -11.71875 
Q 4.4375 -11.71875 7.125 -8.046875 
Q 9.8125 -4.390625 9.8125 5.078125 
z
" id="DejaVuSans-74"/>
       </defs>
       <use xlink:href="#DejaVuSans-66"/>
       <use x="68.603516" xlink:href="#DejaVuSans-101"/>
       <use x="130.126953" xlink:href="#DejaVuSans-110"/>
       <use x="193.505859" xlink:href="#DejaVuSans-105"/>
       <use x="221.289062" xlink:href="#DejaVuSans-116"/>
       <use x="260.498047" xlink:href="#DejaVuSans-111"/>
       <use x="321.679688" xlink:href="#DejaVuSans-32"/>
       <use x="353.466797" xlink:href="#DejaVuSans-74"/>
       <use x="382.958984" xlink:href="#DejaVuSans-117"/>
       <use x="446.337891" xlink:href="#DejaVuSans-225"/>
       <use x="507.617188" xlink:href="#DejaVuSans-114"/>
       <use x="546.480469" xlink:href="#DejaVuSans-101"/>
       <use x="608.003906" xlink:href="#DejaVuSans-122"/>
      </g>
     </g>
    </g>
    <g id="xtick_12">
     <g id="line2d_12">
      <g>
       <use style="stroke:#000000;stroke-width:0.8;" x="525.853125" xlink:href="#mb5fe8e12fe" y="301.858488"/>
      </g>
     </g>
     <g id="text_12">
      <!-- Cuajimalpa de Morelos -->
      <g transform="translate(513.781563 420.82293)rotate(-75)scale(0.1 -0.1)">
       <defs>
        <path d="M 9.421875 54.6875 
L 18.40625 54.6875 
L 18.40625 -0.984375 
Q 18.40625 -11.421875 14.421875 -16.109375 
Q 10.453125 -20.796875 1.609375 -20.796875 
L -1.8125 -20.796875 
L -1.8125 -13.1875 
L 0.59375 -13.1875 
Q 5.71875 -13.1875 7.5625 -10.8125 
Q 9.421875 -8.453125 9.421875 -0.984375 
z
M 9.421875 75.984375 
L 18.40625 75.984375 
L 18.40625 64.59375 
L 9.421875 64.59375 
z
" id="DejaVuSans-106"/>
       </defs>
       <use xlink:href="#DejaVuSans-67"/>
       <use x="69.824219" xlink:href="#DejaVuSans-117"/>
       <use x="133.203125" xlink:href="#DejaVuSans-97"/>
       <use x="194.482422" xlink:href="#DejaVuSans-106"/>
       <use x="222.265625" xlink:href="#DejaVuSans-105"/>
       <use x="250.048828" xlink:href="#DejaVuSans-109"/>
       <use x="347.460938" xlink:href="#DejaVuSans-97"/>
       <use x="408.740234" xlink:href="#DejaVuSans-108"/>
       <use x="436.523438" xlink:href="#DejaVuSans-112"/>
       <use x="500" xlink:href="#DejaVuSans-97"/>
       <use x="561.279297" xlink:href="#DejaVuSans-32"/>
       <use x="593.066406" xlink:href="#DejaVuSans-100"/>
       <use x="656.542969" xlink:href="#DejaVuSans-101"/>
       <use x="718.066406" xlink:href="#DejaVuSans-32"/>
       <use x="749.853516" xlink:href="#DejaVuSans-77"/>
       <use x="836.132812" xlink:href="#DejaVuSans-111"/>
       <use x="897.314453" xlink:href="#DejaVuSans-114"/>
       <use x="936.177734" xlink:href="#DejaVuSans-101"/>
       <use x="997.701172" xlink:href="#DejaVuSans-108"/>
       <use x="1025.484375" xlink:href="#DejaVuSans-111"/>
       <use x="1086.666016" xlink:href="#DejaVuSans-115"/>
      </g>
     </g>
    </g>
    <g id="xtick_13">
     <g id="line2d_13">
      <g>
       <use style="stroke:#000000;stroke-width:0.8;" x="566.596875" xlink:href="#mb5fe8e12fe" y="301.858488"/>
      </g>
     </g>
     <g id="text_13">
      <!-- Iztacalco -->
      <g transform="translate(563.533429 353.585437)rotate(-75)scale(0.1 -0.1)">
       <use xlink:href="#DejaVuSans-73"/>
       <use x="29.492188" xlink:href="#DejaVuSans-122"/>
       <use x="81.982422" xlink:href="#DejaVuSans-116"/>
       <use x="121.191406" xlink:href="#DejaVuSans-97"/>
       <use x="182.470703" xlink:href="#DejaVuSans-99"/>
       <use x="237.451172" xlink:href="#DejaVuSans-97"/>
       <use x="298.730469" xlink:href="#DejaVuSans-108"/>
       <use x="326.513672" xlink:href="#DejaVuSans-99"/>
       <use x="381.494141" xlink:href="#DejaVuSans-111"/>
      </g>
     </g>
    </g>
    <g id="xtick_14">
     <g id="line2d_14">
      <g>
       <use style="stroke:#000000;stroke-width:0.8;" x="607.340625" xlink:href="#mb5fe8e12fe" y="301.858488"/>
      </g>
     </g>
     <g id="text_14">
      <!-- Magdalena Contreras -->
      <g transform="translate(596.158753 414.18219)rotate(-75)scale(0.1 -0.1)">
       <use xlink:href="#DejaVuSans-77"/>
       <use x="86.279297" xlink:href="#DejaVuSans-97"/>
       <use x="147.558594" xlink:href="#DejaVuSans-103"/>
       <use x="211.035156" xlink:href="#DejaVuSans-100"/>
       <use x="274.511719" xlink:href="#DejaVuSans-97"/>
       <use x="335.791016" xlink:href="#DejaVuSans-108"/>
       <use x="363.574219" xlink:href="#DejaVuSans-101"/>
       <use x="425.097656" xlink:href="#DejaVuSans-110"/>
       <use x="488.476562" xlink:href="#DejaVuSans-97"/>
       <use x="549.755859" xlink:href="#DejaVuSans-32"/>
       <use x="581.542969" xlink:href="#DejaVuSans-67"/>
       <use x="651.367188" xlink:href="#DejaVuSans-111"/>
       <use x="712.548828" xlink:href="#DejaVuSans-110"/>
       <use x="775.927734" xlink:href="#DejaVuSans-116"/>
       <use x="815.136719" xlink:href="#DejaVuSans-114"/>
       <use x="854" xlink:href="#DejaVuSans-101"/>
       <use x="915.523438" xlink:href="#DejaVuSans-114"/>
       <use x="956.636719" xlink:href="#DejaVuSans-97"/>
       <use x="1017.916016" xlink:href="#DejaVuSans-115"/>
      </g>
     </g>
    </g>
    <g id="xtick_15">
     <g id="line2d_15">
      <g>
       <use style="stroke:#000000;stroke-width:0.8;" x="648.084375" xlink:href="#mb5fe8e12fe" y="301.858488"/>
      </g>
     </g>
     <g id="text_15">
      <!-- Xochimilco -->
      <g transform="translate(643.697312 363.465047)rotate(-75)scale(0.1 -0.1)">
       <defs>
        <path d="M 6.296875 72.90625 
L 16.890625 72.90625 
L 35.015625 45.796875 
L 53.21875 72.90625 
L 63.8125 72.90625 
L 40.375 37.890625 
L 65.375 0 
L 54.78125 0 
L 34.28125 31 
L 13.625 0 
L 2.984375 0 
L 29 38.921875 
z
" id="DejaVuSans-88"/>
       </defs>
       <use xlink:href="#DejaVuSans-88"/>
       <use x="68.505859" xlink:href="#DejaVuSans-111"/>
       <use x="129.6875" xlink:href="#DejaVuSans-99"/>
       <use x="184.667969" xlink:href="#DejaVuSans-104"/>
       <use x="248.046875" xlink:href="#DejaVuSans-105"/>
       <use x="275.830078" xlink:href="#DejaVuSans-109"/>
       <use x="373.242188" xlink:href="#DejaVuSans-105"/>
       <use x="401.025391" xlink:href="#DejaVuSans-108"/>
       <use x="428.808594" xlink:href="#DejaVuSans-99"/>
       <use x="483.789062" xlink:href="#DejaVuSans-111"/>
      </g>
     </g>
    </g>
    <g id="xtick_16">
     <g id="line2d_16">
      <g>
       <use style="stroke:#000000;stroke-width:0.8;" x="688.828125" xlink:href="#mb5fe8e12fe" y="301.858488"/>
      </g>
     </g>
     <g id="text_16">
      <!-- Milpa Alta -->
      <g transform="translate(685.086896 358.644473)rotate(-75)scale(0.1 -0.1)">
       <use xlink:href="#DejaVuSans-77"/>
       <use x="86.279297" xlink:href="#DejaVuSans-105"/>
       <use x="114.0625" xlink:href="#DejaVuSans-108"/>
       <use x="141.845703" xlink:href="#DejaVuSans-112"/>
       <use x="205.322266" xlink:href="#DejaVuSans-97"/>
       <use x="266.601562" xlink:href="#DejaVuSans-32"/>
       <use x="298.388672" xlink:href="#DejaVuSans-65"/>
       <use x="366.796875" xlink:href="#DejaVuSans-108"/>
       <use x="394.580078" xlink:href="#DejaVuSans-116"/>
       <use x="433.789062" xlink:href="#DejaVuSans-97"/>
      </g>
     </g>
    </g>
   </g>
   <g id="matplotlib.axis_2">
    <g id="ytick_1">
     <g id="line2d_17">
      <defs>
       <path d="M 0 0 
L -3.5 0 
" id="mbca6ce48a8" style="stroke:#000000;stroke-width:0.8;"/>
      </defs>
      <g>
       <use style="stroke:#000000;stroke-width:0.8;" x="57.3" xlink:href="#mbca6ce48a8" y="301.858488"/>
      </g>
     </g>
     <g id="text_17">
      <!-- 0 -->
      <g transform="translate(43.9375 305.657706)scale(0.1 -0.1)">
       <defs>
        <path d="M 31.78125 66.40625 
Q 24.171875 66.40625 20.328125 58.90625 
Q 16.5 51.421875 16.5 36.375 
Q 16.5 21.390625 20.328125 13.890625 
Q 24.171875 6.390625 31.78125 6.390625 
Q 39.453125 6.390625 43.28125 13.890625 
Q 47.125 21.390625 47.125 36.375 
Q 47.125 51.421875 43.28125 58.90625 
Q 39.453125 66.40625 31.78125 66.40625 
z
M 31.78125 74.21875 
Q 44.046875 74.21875 50.515625 64.515625 
Q 56.984375 54.828125 56.984375 36.375 
Q 56.984375 17.96875 50.515625 8.265625 
Q 44.046875 -1.421875 31.78125 -1.421875 
Q 19.53125 -1.421875 13.0625 8.265625 
Q 6.59375 17.96875 6.59375 36.375 
Q 6.59375 54.828125 13.0625 64.515625 
Q 19.53125 74.21875 31.78125 74.21875 
z
" id="DejaVuSans-48"/>
       </defs>
       <use xlink:href="#DejaVuSans-48"/>
      </g>
     </g>
    </g>
    <g id="ytick_2">
     <g id="line2d_18">
      <g>
       <use style="stroke:#000000;stroke-width:0.8;" x="57.3" xlink:href="#mbca6ce48a8" y="271.265264"/>
      </g>
     </g>
     <g id="text_18">
      <!-- 250 -->
      <g transform="translate(31.2125 275.064483)scale(0.1 -0.1)">
       <defs>
        <path d="M 19.1875 8.296875 
L 53.609375 8.296875 
L 53.609375 0 
L 7.328125 0 
L 7.328125 8.296875 
Q 12.9375 14.109375 22.625 23.890625 
Q 32.328125 33.6875 34.8125 36.53125 
Q 39.546875 41.84375 41.421875 45.53125 
Q 43.3125 49.21875 43.3125 52.78125 
Q 43.3125 58.59375 39.234375 62.25 
Q 35.15625 65.921875 28.609375 65.921875 
Q 23.96875 65.921875 18.8125 64.3125 
Q 13.671875 62.703125 7.8125 59.421875 
L 7.8125 69.390625 
Q 13.765625 71.78125 18.9375 73 
Q 24.125 74.21875 28.421875 74.21875 
Q 39.75 74.21875 46.484375 68.546875 
Q 53.21875 62.890625 53.21875 53.421875 
Q 53.21875 48.921875 51.53125 44.890625 
Q 49.859375 40.875 45.40625 35.40625 
Q 44.1875 33.984375 37.640625 27.21875 
Q 31.109375 20.453125 19.1875 8.296875 
z
" id="DejaVuSans-50"/>
        <path d="M 10.796875 72.90625 
L 49.515625 72.90625 
L 49.515625 64.59375 
L 19.828125 64.59375 
L 19.828125 46.734375 
Q 21.96875 47.46875 24.109375 47.828125 
Q 26.265625 48.1875 28.421875 48.1875 
Q 40.625 48.1875 47.75 41.5 
Q 54.890625 34.8125 54.890625 23.390625 
Q 54.890625 11.625 47.5625 5.09375 
Q 40.234375 -1.421875 26.90625 -1.421875 
Q 22.3125 -1.421875 17.546875 -0.640625 
Q 12.796875 0.140625 7.71875 1.703125 
L 7.71875 11.625 
Q 12.109375 9.234375 16.796875 8.0625 
Q 21.484375 6.890625 26.703125 6.890625 
Q 35.15625 6.890625 40.078125 11.328125 
Q 45.015625 15.765625 45.015625 23.390625 
Q 45.015625 31 40.078125 35.4375 
Q 35.15625 39.890625 26.703125 39.890625 
Q 22.75 39.890625 18.8125 39.015625 
Q 14.890625 38.140625 10.796875 36.28125 
z
" id="DejaVuSans-53"/>
       </defs>
       <use xlink:href="#DejaVuSans-50"/>
       <use x="63.623047" xlink:href="#DejaVuSans-53"/>
       <use x="127.246094" xlink:href="#DejaVuSans-48"/>
      </g>
     </g>
    </g>
    <g id="ytick_3">
     <g id="line2d_19">
      <g>
       <use style="stroke:#000000;stroke-width:0.8;" x="57.3" xlink:href="#mbca6ce48a8" y="240.67204"/>
      </g>
     </g>
     <g id="text_19">
      <!-- 500 -->
      <g transform="translate(31.2125 244.471259)scale(0.1 -0.1)">
       <use xlink:href="#DejaVuSans-53"/>
       <use x="63.623047" xlink:href="#DejaVuSans-48"/>
       <use x="127.246094" xlink:href="#DejaVuSans-48"/>
      </g>
     </g>
    </g>
    <g id="ytick_4">
     <g id="line2d_20">
      <g>
       <use style="stroke:#000000;stroke-width:0.8;" x="57.3" xlink:href="#mbca6ce48a8" y="210.078816"/>
      </g>
     </g>
     <g id="text_20">
      <!-- 750 -->
      <g transform="translate(31.2125 213.878035)scale(0.1 -0.1)">
       <defs>
        <path d="M 8.203125 72.90625 
L 55.078125 72.90625 
L 55.078125 68.703125 
L 28.609375 0 
L 18.3125 0 
L 43.21875 64.59375 
L 8.203125 64.59375 
z
" id="DejaVuSans-55"/>
       </defs>
       <use xlink:href="#DejaVuSans-55"/>
       <use x="63.623047" xlink:href="#DejaVuSans-53"/>
       <use x="127.246094" xlink:href="#DejaVuSans-48"/>
      </g>
     </g>
    </g>
    <g id="ytick_5">
     <g id="line2d_21">
      <g>
       <use style="stroke:#000000;stroke-width:0.8;" x="57.3" xlink:href="#mbca6ce48a8" y="179.485593"/>
      </g>
     </g>
     <g id="text_21">
      <!-- 1000 -->
      <g transform="translate(24.85 183.284812)scale(0.1 -0.1)">
       <defs>
        <path d="M 12.40625 8.296875 
L 28.515625 8.296875 
L 28.515625 63.921875 
L 10.984375 60.40625 
L 10.984375 69.390625 
L 28.421875 72.90625 
L 38.28125 72.90625 
L 38.28125 8.296875 
L 54.390625 8.296875 
L 54.390625 0 
L 12.40625 0 
z
" id="DejaVuSans-49"/>
       </defs>
       <use xlink:href="#DejaVuSans-49"/>
       <use x="63.623047" xlink:href="#DejaVuSans-48"/>
       <use x="127.246094" xlink:href="#DejaVuSans-48"/>
       <use x="190.869141" xlink:href="#DejaVuSans-48"/>
      </g>
     </g>
    </g>
    <g id="ytick_6">
     <g id="line2d_22">
      <g>
       <use style="stroke:#000000;stroke-width:0.8;" x="57.3" xlink:href="#mbca6ce48a8" y="148.892369"/>
      </g>
     </g>
     <g id="text_22">
      <!-- 1250 -->
      <g transform="translate(24.85 152.691588)scale(0.1 -0.1)">
       <use xlink:href="#DejaVuSans-49"/>
       <use x="63.623047" xlink:href="#DejaVuSans-50"/>
       <use x="127.246094" xlink:href="#DejaVuSans-53"/>
       <use x="190.869141" xlink:href="#DejaVuSans-48"/>
      </g>
     </g>
    </g>
    <g id="ytick_7">
     <g id="line2d_23">
      <g>
       <use style="stroke:#000000;stroke-width:0.8;" x="57.3" xlink:href="#mbca6ce48a8" y="118.299145"/>
      </g>
     </g>
     <g id="text_23">
      <!-- 1500 -->
      <g transform="translate(24.85 122.098364)scale(0.1 -0.1)">
       <use xlink:href="#DejaVuSans-49"/>
       <use x="63.623047" xlink:href="#DejaVuSans-53"/>
       <use x="127.246094" xlink:href="#DejaVuSans-48"/>
       <use x="190.869141" xlink:href="#DejaVuSans-48"/>
      </g>
     </g>
    </g>
    <g id="ytick_8">
     <g id="line2d_24">
      <g>
       <use style="stroke:#000000;stroke-width:0.8;" x="57.3" xlink:href="#mbca6ce48a8" y="87.705922"/>
      </g>
     </g>
     <g id="text_24">
      <!-- 1750 -->
      <g transform="translate(24.85 91.50514)scale(0.1 -0.1)">
       <use xlink:href="#DejaVuSans-49"/>
       <use x="63.623047" xlink:href="#DejaVuSans-55"/>
       <use x="127.246094" xlink:href="#DejaVuSans-53"/>
       <use x="190.869141" xlink:href="#DejaVuSans-48"/>
      </g>
     </g>
    </g>
    <g id="ytick_9">
     <g id="line2d_25">
      <g>
       <use style="stroke:#000000;stroke-width:0.8;" x="57.3" xlink:href="#mbca6ce48a8" y="57.112698"/>
      </g>
     </g>
     <g id="text_25">
      <!-- 2000 -->
      <g transform="translate(24.85 60.911917)scale(0.1 -0.1)">
       <use xlink:href="#DejaVuSans-50"/>
       <use x="63.623047" xlink:href="#DejaVuSans-48"/>
       <use x="127.246094" xlink:href="#DejaVuSans-48"/>
       <use x="190.869141" xlink:href="#DejaVuSans-48"/>
      </g>
     </g>
    </g>
    <g id="text_26">
     <!-- Cantidad -->
     <g transform="translate(18.770312 187.565181)rotate(-90)scale(0.1 -0.1)">
      <use xlink:href="#DejaVuSans-67"/>
      <use x="69.824219" xlink:href="#DejaVuSans-97"/>
      <use x="131.103516" xlink:href="#DejaVuSans-110"/>
      <use x="194.482422" xlink:href="#DejaVuSans-116"/>
      <use x="233.691406" xlink:href="#DejaVuSans-105"/>
      <use x="261.474609" xlink:href="#DejaVuSans-100"/>
      <use x="324.951172" xlink:href="#DejaVuSans-97"/>
      <use x="386.230469" xlink:href="#DejaVuSans-100"/>
     </g>
    </g>
   </g>
   <g id="patch_19">
    <path d="M 57.3 301.858488 
L 57.3 28.3 
" style="fill:none;stroke:#000000;stroke-linecap:square;stroke-linejoin:miter;stroke-width:0.8;"/>
   </g>
   <g id="patch_20">
    <path d="M 709.2 301.858488 
L 709.2 28.3 
" style="fill:none;stroke:#000000;stroke-linecap:square;stroke-linejoin:miter;stroke-width:0.8;"/>
   </g>
   <g id="patch_21">
    <path d="M 57.3 301.858488 
L 709.2 301.858488 
" style="fill:none;stroke:#000000;stroke-linecap:square;stroke-linejoin:miter;stroke-width:0.8;"/>
   </g>
   <g id="patch_22">
    <path d="M 57.3 28.3 
L 709.2 28.3 
" style="fill:none;stroke:#000000;stroke-linecap:square;stroke-linejoin:miter;stroke-width:0.8;"/>
   </g>
   <g id="text_27">
    <!-- Áreas verdes por alcaldía -->
    <g transform="translate(307.281563 22.3)scale(0.12 -0.12)">
     <defs>
      <path d="M 20.703125 79.984375 
L 30.421875 79.984375 
L 14.5 61.625 
L 7.03125 61.625 
z
M 9.421875 54.6875 
L 18.40625 54.6875 
L 18.40625 0 
L 9.421875 0 
z
M 13.921875 56 
z
" id="DejaVuSans-237"/>
     </defs>
     <use xlink:href="#DejaVuSans-193"/>
     <use x="68.408203" xlink:href="#DejaVuSans-114"/>
     <use x="107.271484" xlink:href="#DejaVuSans-101"/>
     <use x="168.794922" xlink:href="#DejaVuSans-97"/>
     <use x="230.074219" xlink:href="#DejaVuSans-115"/>
     <use x="282.173828" xlink:href="#DejaVuSans-32"/>
     <use x="313.960938" xlink:href="#DejaVuSans-118"/>
     <use x="373.140625" xlink:href="#DejaVuSans-101"/>
     <use x="434.664062" xlink:href="#DejaVuSans-114"/>
     <use x="474.027344" xlink:href="#DejaVuSans-100"/>
     <use x="537.503906" xlink:href="#DejaVuSans-101"/>
     <use x="599.027344" xlink:href="#DejaVuSans-115"/>
     <use x="651.126953" xlink:href="#DejaVuSans-32"/>
     <use x="682.914062" xlink:href="#DejaVuSans-112"/>
     <use x="746.390625" xlink:href="#DejaVuSans-111"/>
     <use x="807.572266" xlink:href="#DejaVuSans-114"/>
     <use x="848.685547" xlink:href="#DejaVuSans-32"/>
     <use x="880.472656" xlink:href="#DejaVuSans-97"/>
     <use x="941.751953" xlink:href="#DejaVuSans-108"/>
     <use x="969.535156" xlink:href="#DejaVuSans-99"/>
     <use x="1024.515625" xlink:href="#DejaVuSans-97"/>
     <use x="1085.794922" xlink:href="#DejaVuSans-108"/>
     <use x="1113.578125" xlink:href="#DejaVuSans-100"/>
     <use x="1177.054688" xlink:href="#DejaVuSans-237"/>
     <use x="1204.837891" xlink:href="#DejaVuSans-97"/>
    </g>
   </g>
  </g>
 </g>
 <defs>
  <clipPath id="pc8b9399a18">
   <rect height="273.558488" width="651.9" x="57.3" y="28.3"/>
  </clipPath>
 </defs>
</svg>
